<svg width="1760" height="469" viewBox="0 0 1760 469" fill="none" xmlns="http://www.w3.org/2000/svg">
<path fill-rule="evenodd" clip-rule="evenodd" d="M441.946 92L596.218 246L441.946 400V317.278H290.069L441.946 205.525V92ZM450.809 113.369V210.007L317.067 308.416H450.809V378.631L583.674 246L450.809 113.369Z" fill="#4E5299"/>
<path fill-rule="evenodd" clip-rule="evenodd" d="M231.531 92.0126V174.721H383.032L231.531 287.472V399.986L77 245.999L231.531 92.0126ZM89.5553 245.999L222.669 378.644V283.021L356.28 183.584H222.669V113.355L89.5553 245.999Z" fill="#8B8CFB"/>
<path d="M803.147 214.601V184.723H695.787V215.867H757.317L694.268 286.006V317.657H804.16V286.259H738.326L803.147 214.601Z" fill="#11142B" fill-opacity="0.9"/>
<path d="M954.312 184.723H907.469L861.385 234.099V121.928H825.43V317.657H861.385V282.462L876.324 266.763L911.52 317.657H955.578L901.139 240.682L954.312 184.723Z" fill="#11142B" fill-opacity="0.9"/>
<path d="M1059.9 205.994L1033.06 200.93C1019.13 198.144 1012.3 191.055 1012.3 179.407C1012.3 172.824 1015.08 167 1020.65 162.442C1026.22 157.631 1033.57 155.099 1042.18 155.099C1053.06 155.099 1061.17 157.884 1066.74 163.455C1072.31 169.026 1075.85 175.356 1077.12 182.192L1110.54 171.811C1109.28 165.987 1107.25 160.163 1104.21 154.846C1101.43 149.529 1097.37 144.211 1092.06 139.147C1086.74 133.83 1079.9 129.778 1071.29 126.74C1062.69 123.701 1052.81 122.182 1041.92 122.182C1023.44 122.182 1007.74 128.006 994.572 139.4C981.659 151.048 975.075 165.227 975.075 182.192C975.075 196.372 979.633 208.273 988.495 217.895C997.611 227.517 1009.76 233.847 1025.21 237.138L1052.05 242.456C1059.39 243.975 1065.22 246.76 1069.02 250.812C1073.07 254.863 1075.35 259.421 1075.35 265.244C1075.35 272.334 1072.56 277.905 1066.99 282.209C1061.67 286.514 1054.08 288.793 1044.2 288.793C1031.29 288.793 1021.41 285.248 1014.07 278.411C1006.98 271.575 1003.18 262.966 1002.17 252.837L967.479 261.953C968.239 269.043 970.264 276.132 973.303 282.969C976.848 289.552 981.405 296.136 987.482 302.213C993.306 308.037 1001.16 312.848 1011.03 316.646C1020.65 320.191 1031.79 321.963 1043.69 321.963C1064.71 321.963 1081.42 316.139 1094.08 304.492C1106.74 292.591 1113.07 278.665 1113.07 262.966C1113.07 249.039 1108.26 237.139 1098.89 226.757C1090.03 216.122 1076.86 209.286 1059.9 205.994Z" fill="#11142B" fill-opacity="0.9"/>
<path d="M1186.5 262.458L1151.06 184.723H1110.8L1167.26 300.945L1135.86 370.071H1174.1L1257.66 184.723H1219.17L1186.5 262.458Z" fill="#11142B" fill-opacity="0.9"/>
<path d="M1344.51 181.178C1336.66 181.178 1329.31 182.951 1322.22 186.242C1315.13 189.787 1309.82 194.598 1306.02 201.181V184.723H1271.08V317.657H1307.03V241.188C1307.03 233.339 1309.31 226.755 1313.87 221.438C1318.43 216.121 1324.5 213.589 1332.1 213.589C1340.46 213.589 1346.53 216.121 1350.58 220.932C1354.63 225.743 1356.91 232.073 1356.91 240.175V317.657H1392.87V233.845C1392.87 218.4 1388.82 205.739 1380.46 196.117C1372.11 186.242 1360.21 181.178 1344.51 181.178Z" fill="#11142B" fill-opacity="0.9"/>
<path d="M1511.62 266.257C1509.85 272.334 1506.31 277.651 1501.24 282.209C1496.18 286.513 1489.34 288.792 1480.98 288.792C1471.36 288.792 1463.26 285.5 1456.68 278.917C1450.09 272.08 1447.05 262.965 1447.05 251.317C1447.05 239.67 1450.35 230.807 1456.68 223.971C1463.26 217.387 1471.11 214.096 1480.73 214.096C1495.92 214.096 1505.8 221.692 1510.1 236.631L1542.26 225.743C1539.22 213.336 1532.39 202.701 1521.5 194.092C1510.61 185.23 1496.94 180.926 1479.97 180.926C1460.47 180.926 1444.02 187.509 1430.85 200.929C1417.68 214.349 1411.1 231.061 1411.1 251.317C1411.1 271.574 1417.68 288.286 1431.1 301.706C1444.52 315.126 1461.23 321.709 1481.24 321.709C1497.7 321.709 1511.62 317.405 1522.26 308.542C1533.15 299.68 1539.98 289.299 1543.27 276.891L1511.62 266.257Z" fill="#11142B" fill-opacity="0.9"/>
<path d="M1537.45 168.012V104.203H1550.11V168.012H1537.45Z" fill="#8B8CFB"/>
<path d="M1563.28 116.357V104.203H1576.45V116.357H1563.28ZM1563.53 168.012V122.94H1576.19V168.012H1563.53Z" fill="#8B8CFB"/>
<path d="M1582.27 132.564V122.688H1612.4V132.564H1582.27ZM1590.12 168.013V110.281H1602.78V168.013H1590.12Z" fill="#8B8CFB"/>
<path d="M1640.51 169.024C1636.46 169.024 1632.91 168.265 1630.13 166.999C1627.34 165.733 1624.81 163.96 1623.04 161.681C1621.26 159.403 1620 157.124 1618.98 154.338C1618.22 151.553 1617.72 148.768 1617.72 145.729C1617.72 142.944 1618.22 139.905 1618.98 137.12C1619.74 134.335 1621.01 131.803 1622.78 129.524C1624.55 127.245 1626.83 125.473 1629.62 123.953C1632.4 122.687 1635.7 121.928 1639.75 121.928C1643.29 121.928 1646.33 122.434 1648.86 123.7C1651.39 124.966 1653.67 126.486 1655.45 128.764C1657.22 130.79 1658.48 133.322 1659.5 136.107C1660.26 138.893 1660.76 141.931 1660.76 145.476C1660.76 145.982 1660.76 146.742 1660.76 147.502C1660.76 148.261 1660.76 149.021 1660.51 150.034H1630.38C1630.63 152.819 1631.9 154.845 1633.92 156.364C1635.95 157.63 1638.23 158.39 1641.27 158.39C1643.55 158.39 1645.82 157.883 1648.1 157.124C1650.38 156.364 1652.41 155.098 1653.93 153.832L1659.75 162.694C1657.47 164.213 1655.45 165.48 1653.42 166.492C1651.39 167.505 1649.62 168.265 1647.6 168.518C1645.32 168.771 1643.04 169.024 1640.51 169.024ZM1648.36 143.45C1648.36 142.944 1648.61 142.438 1648.61 141.931C1648.61 141.425 1648.86 140.918 1648.86 140.665C1648.86 139.399 1648.61 138.386 1648.1 137.373C1647.6 136.361 1647.09 135.601 1646.33 134.841C1645.57 134.082 1644.56 133.575 1643.54 133.069C1642.53 132.562 1641.27 132.562 1640 132.562C1637.97 132.562 1636.2 133.069 1634.68 133.829C1633.42 134.588 1632.15 135.601 1631.64 136.867C1630.88 138.133 1630.38 139.399 1630.38 140.665H1652.91L1648.36 143.45Z" fill="#8B8CFB"/>
</svg>
