<svg id="Layer_1" data-name="Layer 1" xmlns="http://www.w3.org/2000/svg" viewBox="0 0 1048.15 150.33"><defs><style>.cls-1{fill:#8c8aff;}.cls-2{fill:#151a4c;}</style></defs><title>MATTER Labs_identity</title><path class="cls-1" d="M748.41,23.75v85.52h47.77V127H728.94V23.75Z"/><path class="cls-1" d="M861.78,127V116.64h-2.07c-3.83,6.19-10.32,12.39-23.29,12.39-18.29,0-33.62-16.22-33.62-38.64s15.33-38.63,33.62-38.63c13,0,19.46,6.19,23.29,12.39h2.07V53.83h18.28V127Zm-.3-36.57c0-13.86-8.55-22.11-20.05-22.11-11.21,0-20,8-20,22.11s8.84,22.12,20,22.12C852.93,112.51,861.48,104.25,861.48,90.39Z"/><path class="cls-1" d="M912.2,23.75v40.4H914c3.84-6.2,10.32-12.39,23.3-12.39,18.28,0,33.62,16.22,33.62,38.63S955.55,129,937.27,129c-13,0-19.46-6.2-23.3-12.39h-2.06V127H893.62V23.75Zm0,66.64c0,13.86,8.55,22.12,20.06,22.12,11.2,0,20-8,20-22.12s-8.85-22.11-20-22.11C920.75,68.28,912.2,76.53,912.2,90.39Z"/><path class="cls-1" d="M1010.11,51.76c17.11,0,29.2,7.82,37.6,16.66l-12.53,11.06c-8.41-9.73-16.81-12.68-24.18-12.68s-10.77,3-10.77,6.93,3.69,6,10.62,7.23l8.85,1.47c15.92,2.66,28.45,8.11,28.45,22.56s-13,24-31,24c-18.88,0-32.74-9.59-40.11-21.24l14.6-9c6.63,11.79,16.37,15.19,25.21,15.19,8.56,0,13.27-3.4,13.27-7.82s-3.83-6.49-11.2-7.67L1010.11,97c-17.1-2.8-27.87-9.14-27.87-22.71S993.3,51.76,1010.11,51.76Z"/><path class="cls-2" d="M303.51,23.75l21.82,82.86h1.77l21.82-82.86h33.62V127H363.67V44.39H361.9L340.52,127H311.91L290.53,44.39h-1.77V127H269.89V23.75Z"/><path class="cls-2" d="M450.81,127V116.64h-2.06c-3.83,6.19-10.32,12.39-23.3,12.39-18.28,0-33.62-16.22-33.62-38.64s15.34-38.63,33.62-38.63c13,0,19.47,6.2,23.3,12.39h2.06V53.83H469.1V127Zm-.29-36.57c0-13.86-8.55-22.11-20-22.11-11.21,0-20.06,8-20.06,22.11s8.85,22.12,20.06,22.12C442,112.51,450.52,104.25,450.52,90.39Z"/><path class="cls-2" d="M487.91,53.83V31.12h18.57V53.83h20.06V69.46H506.48v37.45c0,3,1.48,4.42,4.13,4.42h12.61V127H502.36c-8.26,0-14.45-5.9-14.45-14.15V69.46H477.42V53.83Z"/><path class="cls-2" d="M533.94,53.83V31.12h18.58V53.83h20.05V69.46H552.52v37.45c0,3,1.47,4.42,4.12,4.42h12.61V127H548.39c-8.26,0-14.45-5.9-14.45-14.15v-59Z"/><path class="cls-2" d="M614.37,51.76c21.23,0,35.53,14.89,35.53,36.87v6.93H596.67c.74,10,7.67,17.54,18.29,17.54,10.32,0,15.78-5.75,18.28-10.91L648.43,111c-5,7.67-13.57,18-33.18,18-21.82,0-37.6-16.52-37.6-39.23C577.65,67.69,592.84,51.76,614.37,51.76ZM631,83.17c-1-9.58-7.22-15.48-16.81-15.48-10.47,0-16.22,6.19-17.4,15.48Z"/><path class="cls-2" d="M677.55,64.44h2.06c2.8-8.11,9-10.91,18.28-10.91H705V69.75H694.06c-9.44,0-16.22,5-16.22,15.34V127H659.26V53.83h18.29Z"/><path class="cls-2" d="M163,22.55a11.28,11.28,0,1,0-11.28-11.28A11.29,11.29,0,0,0,163,22.55Z"/><path class="cls-2" d="M59.19,22.55A11.28,11.28,0,1,0,47.92,11.27,11.29,11.29,0,0,0,59.19,22.55Z"/><path class="cls-2" d="M163,79.86a11.28,11.28,0,1,0,11.27,11.28A11.29,11.29,0,0,0,163,79.86Z"/><path class="cls-2" d="M111.1,70.47A11.28,11.28,0,1,0,99.83,59.19,11.29,11.29,0,0,0,111.1,70.47Z"/><path class="cls-2" d="M111.1,127.78a11.28,11.28,0,1,0,11.28,11.28A11.29,11.29,0,0,0,111.1,127.78Z"/><path class="cls-2" d="M11.27,127.78a11.28,11.28,0,1,0,11.28,11.28A11.29,11.29,0,0,0,11.27,127.78Z"/><path class="cls-2" d="M210.93,127.78a11.28,11.28,0,1,0,11.28,11.28A11.29,11.29,0,0,0,210.93,127.78Z"/><path class="cls-2" d="M59.19,79.86A11.28,11.28,0,1,0,70.47,91.14,11.29,11.29,0,0,0,59.19,79.86Z"/><path class="cls-2" d="M172.42,25a16.58,16.58,0,0,1-24-5.73L120.19,45.38a16.77,16.77,0,0,1,5.41,5.79l23.46-21.66,1.76,1.22-33.68,82.91-2.11-.41V75.4a16.62,16.62,0,0,1-7.93,0V113l-2.11.41L71.39,30.73l1.75-1.22L96.61,51.17A16.67,16.67,0,0,1,102,45.38L73.77,19.3a16.58,16.58,0,0,1-24,5.73L13.18,122.64a16.55,16.55,0,0,1,12.25,7.83l25.1-25.1A16.6,16.6,0,0,1,45,99.74l-20,20-1.8-1.16,29.93-79.8,2.12.38v36a16.62,16.62,0,0,1,7.93,0v-38l2.1-.42,33.65,82.82-1.76,1.22L73.77,99.16A16.71,16.71,0,0,1,68.42,105l28.19,26a16.6,16.6,0,0,1,29,0l28.19-26a16.71,16.71,0,0,1-5.35-5.86l-23.38,21.59-1.76-1.22,33.64-82.82,2.11.42v38a16.62,16.62,0,0,1,7.93,0v-36l2.12-.38L199,118.55l-1.79,1.16-20-20a16.6,16.6,0,0,1-5.58,5.63l25.1,25.1A16.55,16.55,0,0,1,209,122.64Z"/></svg>