<svg id="Layer_1" data-name="Layer 1" xmlns="http://www.w3.org/2000/svg" viewBox="0 0 796.29 220.53"><defs><style>.cls-1{fill:#151a4c;}.cls-2{fill:#8c8aff;}</style></defs><title>MATTER Labs_identity</title><path class="cls-1" d="M394.82,0l21.82,82.87h1.77L440.24,0h33.61V103.22H455V20.64h-1.77l-21.38,82.58H403.22L381.84,20.64h-1.77v82.58H361.2V0Z"/><path class="cls-1" d="M542.13,103.22V92.89h-2.07c-3.83,6.2-10.32,12.39-23.29,12.39-18.29,0-33.62-16.22-33.62-38.63S498.48,28,516.77,28c13,0,19.46,6.19,23.29,12.38h2.07V30.08h18.28v73.14Zm-.3-36.57c0-13.86-8.55-22.12-20.05-22.12-11.21,0-20,8-20,22.12s8.84,22.12,20,22.12C533.28,88.77,541.83,80.51,541.83,66.65Z"/><path class="cls-1" d="M579.22,30.08V7.37H597.8V30.08h20.05V45.71H597.8V83.16c0,3,1.47,4.43,4.13,4.43h12.6v15.63H593.67c-8.26,0-14.45-5.9-14.45-14.16V45.71H568.73V30.08Z"/><path class="cls-1" d="M625.25,30.08V7.37h18.58V30.08h20V45.71h-20V83.16c0,3,1.47,4.43,4.13,4.43h12.6v15.63H639.7c-8.26,0-14.45-5.9-14.45-14.16v-59Z"/><path class="cls-1" d="M705.68,28c21.24,0,35.54,14.89,35.54,36.86v6.93H688c.74,10,7.67,17.55,18.28,17.55,10.32,0,15.78-5.75,18.29-10.92l15.18,8.85c-5,7.67-13.56,18-33.17,18-21.83,0-37.6-16.51-37.6-39.22C669,43.94,684.15,28,705.68,28Zm16.66,31.4c-1-9.58-7.22-15.48-16.8-15.48-10.47,0-16.22,6.19-17.4,15.48Z"/><path class="cls-1" d="M768.86,40.7h2.06c2.81-8.11,9-10.91,18.29-10.91h7.08V46H785.37c-9.43,0-16.21,5-16.21,15.33v41.88H750.58V30.08h18.28Z"/><path class="cls-1" d="M238.6,33.51A16.51,16.51,0,1,0,222.1,17,16.52,16.52,0,0,0,238.6,33.51Z"/><path class="cls-1" d="M86.64,33.51A16.51,16.51,0,1,0,70.14,17,16.52,16.52,0,0,0,86.64,33.51Z"/><path class="cls-1" d="M238.6,117.4a16.5,16.5,0,1,0,16.5,16.5A16.52,16.52,0,0,0,238.6,117.4Z"/><circle class="cls-1" cx="162.62" cy="87.14" r="16.5" transform="translate(-11.86 27.17) rotate(-9.22)"/><path class="cls-1" d="M162.62,187.53a16.5,16.5,0,1,0,16.5,16.5A16.52,16.52,0,0,0,162.62,187.53Z"/><path class="cls-1" d="M16.5,187.53A16.5,16.5,0,1,0,33,204,16.52,16.52,0,0,0,16.5,187.53Z"/><path class="cls-1" d="M308.73,187.53A16.5,16.5,0,1,0,325.24,204,16.52,16.52,0,0,0,308.73,187.53Z"/><path class="cls-1" d="M86.64,117.4a16.5,16.5,0,1,0,16.5,16.5A16.52,16.52,0,0,0,86.64,117.4Z"/><path class="cls-1" d="M252.37,37.14a24.28,24.28,0,0,1-35.11-8.39L175.91,66.92a24.29,24.29,0,0,1,7.92,8.48l34.35-31.7,2.57,1.77-49.3,121.36-3.09-.6V110.87a24.21,24.21,0,0,1-11.6,0V166l-3.09.6L104.49,45.47l2.57-1.77,34.35,31.7a24.35,24.35,0,0,1,7.91-8.48L108,28.75a24.28,24.28,0,0,1-35.11,8.39L19.3,180a24.24,24.24,0,0,1,17.93,11.45L74,154.73a24.27,24.27,0,0,1-8.16-8.24L36.57,175.71,33.93,174,77.74,57.21l3.1.57v52.63a24.21,24.21,0,0,1,11.6,0V54.84l3.08-.6,49.25,121.22-2.57,1.78L108,145.64a24.36,24.36,0,0,1-7.82,8.57l41.26,38.09a24.29,24.29,0,0,1,42.42,0l41.26-38.08a24.39,24.39,0,0,1-7.83-8.57L183,177.24l-2.57-1.78L229.71,54.24l3.09.6v55.57a24.21,24.21,0,0,1,11.6,0V57.78l3.1-.57L291.3,174l-2.63,1.69-29.22-29.22a24.3,24.3,0,0,1-8.17,8.24L288,191.46A24.21,24.21,0,0,1,305.94,180Z"/><path class="cls-2" d="M380.66,115.25v85.53h47.78v17.69H361.2V115.25Z"/><path class="cls-2" d="M494,218.47V208.15H492c-3.83,6.19-10.32,12.38-23.3,12.38-18.28,0-33.62-16.22-33.62-38.63s15.34-38.63,33.62-38.63c13,0,19.47,6.19,23.3,12.39H494V145.33h18.29v73.14Zm-.29-36.57c0-13.86-8.55-22.12-20.05-22.12-11.21,0-20.06,8-20.06,22.12S462.48,204,473.69,204C485.19,204,493.74,195.76,493.74,181.9Z"/><path class="cls-2" d="M544.46,115.25v40.41h1.77c3.83-6.2,10.32-12.39,23.29-12.39,18.29,0,33.62,16.22,33.62,38.63s-15.33,38.63-33.62,38.63c-13,0-19.46-6.19-23.29-12.38h-2.07v10.32H525.88V115.25Zm0,66.65c0,13.86,8.55,22.12,20,22.12,11.21,0,20-8,20-22.12s-8.84-22.12-20-22.12C553,159.78,544.46,168,544.46,181.9Z"/><path class="cls-2" d="M642.37,143.27c17.1,0,29.19,7.81,37.6,16.66L667.43,171c-8.4-9.73-16.81-12.68-24.18-12.68s-10.76,2.95-10.76,6.93,3.68,6,10.61,7.23l8.85,1.47c15.93,2.65,28.46,8.11,28.46,22.56s-13,24-31,24c-18.87,0-32.73-9.58-40.1-21.23l14.6-9c6.63,11.79,16.36,15.18,25.21,15.18,8.55,0,13.27-3.39,13.27-7.81s-3.83-6.49-11.21-7.67l-8.84-1.47c-17.11-2.8-27.87-9.14-27.87-22.71S625.56,143.27,642.37,143.27Z"/></svg>