<svg width="127.38" height="50" viewBox="0 0 204 80" fill="none" xmlns="http://www.w3.org/2000/svg">
<g clip-path="url(#clip0_4_41)">
<path d="M89.5238 22.0952H97.1429V52.5714H104.762V14.4762H97.1429C92.9524 14.4762 89.5238 17.9048 89.5238 22.0952Z" fill="white"/>
<path d="M112.381 52.5714H120V37.3333C120 33.1428 116.571 29.7142 112.381 29.7142V52.5714Z" fill="white"/>
<path d="M127.619 29.7142V52.5714H135.238V37.3333H142.857V44.9523C142.857 49.1428 146.286 52.5714 150.476 52.5714V37.3333C150.476 33.1428 147.048 29.7142 142.857 29.7142H127.619Z" fill="white"/>
<path d="M196.19 29.7143H188.571V22.0952C188.571 17.9048 185.143 14.4762 180.952 14.4762V44.9524H165.714V37.3333H173.333V29.7143H165.714C161.524 29.7143 158.095 33.1429 158.095 37.3333V44.9524C158.095 49.1429 161.524 52.5714 165.714 52.5714H188.571V37.3333H196.19V44.9524C196.19 49.1429 199.619 52.5714 203.81 52.5714V37.3333C203.81 33.1429 200.381 29.7143 196.19 29.7143Z" fill="white"/>
<path d="M112.381 22.0952H120C120 17.9048 116.571 14.4762 112.381 14.4762V22.0952Z" fill="white"/>
<path d="M101.402 60.1904V65.1765H100.704L97.9621 61.7219V65.1765H97.1429V60.1904H97.841L100.583 63.6594V60.1904H101.402Z" fill="white" fill-opacity="0.7"/>
<path d="M116.901 65.1765H113.945V60.1904H116.83V61.0097H114.821V62.2489H116.616V63.0681H114.821V64.3575H116.901V65.1765Z" fill="white" fill-opacity="0.7"/>
<path d="M131.06 61.0097H129.443V60.1904H133.553V61.0097H131.936V65.1765H131.06V61.0097Z" fill="white" fill-opacity="0.7"/>
<path d="M152.2 60.1904H153.041L151.616 65.1765H150.797L149.593 61.5723L148.411 65.1765H147.584L146.095 60.1904H147.079L148.083 63.7449L149.194 60.1904H150.063L151.203 63.752L152.2 60.1904Z" fill="white" fill-opacity="0.7"/>
<path d="M165.583 62.7619C165.583 62.0354 165.825 61.4251 166.309 60.9312C166.803 60.4373 167.425 60.1904 168.176 60.1904C168.926 60.1904 169.546 60.428 170.035 60.9028C170.529 61.3824 170.775 62.002 170.775 62.7619C170.775 63.5074 170.529 64.1224 170.035 64.6068C169.541 65.0912 168.921 65.3333 168.176 65.3333C167.425 65.3333 166.806 65.0958 166.316 64.6209C165.827 64.1461 165.583 63.5264 165.583 62.7619ZM166.509 62.7619C166.509 63.2653 166.668 63.6832 166.986 64.0156C167.304 64.348 167.701 64.5141 168.176 64.5141C168.688 64.5141 169.094 64.348 169.394 64.0156C169.698 63.6832 169.85 63.2653 169.85 62.7619C169.85 62.2537 169.688 61.8335 169.365 61.5011C169.042 61.1735 168.646 61.0097 168.176 61.0097C167.696 61.0097 167.297 61.1735 166.979 61.5011C166.666 61.8287 166.509 62.2489 166.509 62.7619Z" fill="white" fill-opacity="0.7"/>
<path d="M184.194 63.3245V65.1908H183.318V60.2047C183.565 60.2047 183.833 60.2022 184.123 60.1975C184.412 60.1927 184.65 60.1904 184.835 60.1904C186.041 60.1904 186.644 60.7034 186.644 61.7291C186.644 62.1089 186.547 62.4222 186.352 62.6693C186.158 62.9066 185.934 63.0681 185.683 63.1537L187.243 65.1908H186.181L184.807 63.3245H184.194ZM184.792 61.0097C184.769 61.0097 184.731 61.012 184.678 61.0167C184.626 61.0167 184.553 61.019 184.458 61.0238C184.363 61.0238 184.275 61.0238 184.194 61.0238V62.5055H184.764C185.044 62.5055 185.272 62.4365 185.448 62.2988C185.628 62.1611 185.718 61.9735 185.718 61.7361C185.718 61.2518 185.41 61.0097 184.792 61.0097Z" fill="white" fill-opacity="0.7"/>
<path d="M200.661 65.1765H199.785V60.1904H200.661V62.5554L202.627 60.1904H203.682L201.631 62.5125L203.81 65.1765H202.699L200.661 62.6051V65.1765Z" fill="white" fill-opacity="0.7"/>
<path fill-rule="evenodd" clip-rule="evenodd" d="M62.8375 14.0101C60.4985 12.4922 58.8326 11.8348 58.8326 11.8348C58.8326 11.8348 59.9263 11.8785 61.4926 11.9919C62.0943 12.0355 62.7657 12.0893 63.4716 12.1549C64.0343 12.2071 64.6188 12.2669 65.2074 12.3348C64.1718 11.5203 63.1434 10.7873 62.1253 10.1292C55.956 6.14058 50.1607 4.89729 45.3326 4.89729C41.0716 4.89729 37.5663 5.86081 35.2219 6.75952C33.3326 7.48376 32.1971 8.16592 32.0274 8.26782L32.02 8.27228L34.4575 4.39729L34.6398 2.50127C35.2975 2.56453 35.8756 2.96418 36.167 3.55727C36.2906 3.80868 36.355 4.07961 36.3617 4.35096C38.7301 3.61733 41.7868 2.99253 45.3326 2.99253C51.3706 2.99253 58.7259 4.81504 66.3849 10.8375C67.0548 11.3643 67.2933 12.272 66.9687 13.06C66.7992 13.4718 66.4975 13.7986 66.1272 14.0028C67.5066 15.059 68.9868 16.3521 70.4425 17.9088C75.7187 23.5513 80.6006 32.5922 79.2908 46.0814C79.2162 46.8503 78.6844 47.498 77.9447 47.721C77.6063 47.8231 77.255 47.8269 76.9268 47.7437C76.4996 53.5098 73.9857 63.0431 63.1638 71.1703C62.515 71.6576 61.6289 71.6804 60.956 71.2271C60.6834 71.0435 60.4701 70.7981 60.3265 70.5191C60.2175 70.6208 60.1066 70.7227 59.9935 70.825C56.9162 73.6105 52.2331 76.6543 45.9072 77.534C45.8204 77.546 45.7327 77.5521 45.6449 77.5521H45.5825C44.796 77.5521 44.0905 77.0688 43.8065 76.3355C43.7596 76.2145 43.7257 76.0909 43.7046 75.9663C42.1436 76.2768 40.3076 76.4896 38.2074 76.4896C34.6733 76.4896 30.3981 75.8884 25.3897 74.1322C24.4326 73.7966 23.9063 72.7698 24.1927 71.7966C24.4794 70.8237 25.4783 70.246 26.4645 70.4825C27.8826 70.8229 29.296 70.9924 30.7701 70.9924C40.356 70.9924 47.8653 63.8374 47.8653 55.2722C47.8653 51.0503 46.0746 47.178 43.0592 44.3199C43.0508 44.3305 43.0425 44.3414 43.0341 44.3521C42.3457 45.2416 41.5162 46.317 40.9287 47.0896C39.9783 48.4233 39.6449 49.1608 39.7202 49.8288C40.0444 52.0016 39.3748 54.1383 38.14 55.7025C38.1242 55.7227 38.1078 55.7425 38.0912 55.762C37.6025 56.3321 36.6735 57.1421 35.8459 57.8637C35.8082 57.8966 35.7706 57.9294 35.7331 57.962C34.9 58.689 34.0844 59.4016 33.4918 59.9941C33.4764 60.0096 33.4606 60.0248 33.4446 60.0399C31.9687 61.4172 30.0426 61.6145 28.895 61.6145C28.5771 61.6145 28.2912 61.5905 28.0977 61.5742L28.0872 61.5734C28.0845 61.5732 28.0819 61.573 28.0792 61.5726C27.8895 61.5568 27.8177 61.5521 27.7701 61.5521H27.5825C27.551 61.5521 27.5272 61.5526 27.5097 61.5534C27.4741 61.5757 27.4106 61.6191 27.3082 61.6995C27.1684 61.8092 26.9918 61.9591 26.7468 62.1749C26.2781 62.6149 25.7167 62.8075 25.3413 62.9014C24.9057 63.0103 24.4482 63.0521 24.02 63.0521C22.9078 63.0521 21.6327 62.8029 20.5847 62.5429C19.5068 62.2755 18.5256 61.9597 17.9486 61.7561C17.9284 61.7488 17.9083 61.7414 17.8884 61.7336C17.3392 61.5187 16.9282 61.1559 16.6477 60.8564C16.3529 60.5416 16.0973 60.1827 15.8788 59.8321C15.442 59.1307 15.0531 58.2976 14.7312 57.5033C14.11 55.9705 13.5916 54.21 13.5007 53.3467C13.4404 52.7736 13.5801 52.2302 13.684 51.8903C13.8036 51.4993 13.9699 51.0913 14.1432 50.7054C14.4844 49.9456 14.9324 49.0983 15.3183 48.3688L15.3347 48.3378C15.6081 47.8206 15.848 47.3665 16.033 46.9867C16.1247 46.7983 16.193 46.648 16.2403 46.5332C16.2731 46.4534 16.2863 46.413 16.2894 46.4041C16.394 45.91 16.7197 43.4894 17.0524 40.8827C17.38 38.3164 17.6917 35.7604 17.7533 35.2372C17.8049 34.7983 17.7973 34.5852 17.753 34.3825C17.7049 34.1627 17.5814 33.8178 17.2054 33.2002C17.2018 33.1941 17.1982 33.1882 17.1947 33.1823C17.1934 33.1801 17.192 33.1778 17.1907 33.1755C16.3582 31.7602 16.3162 30.3686 16.6667 28.6661C12.4142 25.7122 1.60759 17.7312 0.938819 17.184C0.934392 17.1804 0.929981 17.1767 0.925586 17.1731C0.529897 16.8433 0.127432 16.3549 0.0053229 15.6833C-0.0551886 15.3505 -0.0331244 15.0367 0.0382332 14.7632C0.0729743 14.63 0.11778 14.5123 0.165222 14.4109C0.188938 14.3603 0.21339 14.3135 0.237735 14.2707C0.249914 14.2493 0.262095 14.2288 0.274181 14.2092C0.280224 14.1994 0.286249 14.1899 0.292243 14.1805C0.29524 14.1759 0.298228 14.1713 0.301209 14.1667L0.305674 14.1599L0.307903 14.1566C0.309013 14.1549 0.310127 14.1532 1.89499 15.2098C1.89499 15.2098 1.76999 15.3973 2.14499 15.7098C2.17539 15.7347 2.23009 15.7774 2.30716 15.8364C2.31948 15.8459 2.3324 15.8558 2.34588 15.8661C2.53904 16.0136 2.8483 16.2462 3.24992 16.546C3.79198 16.9507 4.50228 17.478 5.32259 18.0845C9.5771 21.2298 16.7904 26.5029 18.8325 27.8347C18.2075 30.0848 18.2075 31.1473 18.8325 32.2098C19.7074 33.6473 19.7701 34.3972 19.6449 35.4599C19.52 36.5223 18.395 45.7098 18.145 46.8347C18.0441 47.2888 17.5562 48.2113 17.0185 49.2282C16.224 50.7305 15.3204 52.4391 15.395 53.1473C15.52 54.3347 17.145 59.3972 18.5825 59.9599C19.6449 60.3347 22.2701 61.1473 24.02 61.1473C24.6449 61.1473 25.2074 61.0223 25.4575 60.7722C26.52 59.8347 26.8326 59.6473 27.5825 59.6473H27.7701C27.9131 59.6473 28.0693 59.6604 28.2385 59.6745H28.2386C28.4392 59.6915 28.6579 59.7098 28.895 59.7098C29.895 59.7098 31.2074 59.5223 32.1449 58.6473C32.7931 57.9991 33.6634 57.2399 34.4811 56.5267C35.3979 55.7269 36.2486 54.9848 36.6449 54.5223C37.5825 53.3347 38.0825 51.7098 37.8326 50.0848C37.6449 48.5848 38.4575 47.2722 39.395 45.9599C40.5825 44.3972 42.7701 41.5848 42.7701 41.5848C42.9225 41.6997 43.0727 41.8166 43.2209 41.9357C43.5695 42.2153 43.9066 42.5063 44.2316 42.8082C47.6811 46.0117 49.7701 50.4235 49.7701 55.2722C49.7701 63.7128 43.3998 70.7482 34.8764 72.4858C33.5541 72.7553 32.1802 72.8972 30.7701 72.8972C29.1449 72.8972 27.5825 72.7098 26.02 72.3347C27.6941 72.9218 29.2775 73.3726 30.7701 73.7111C32.2535 74.0475 33.6474 74.2728 34.9516 74.4102C36.1072 74.5321 37.1926 74.5848 38.2074 74.5848C40.9049 74.5848 43.119 74.2109 44.8257 73.749C47.5874 73.0012 49.02 72.0223 49.02 72.0223C49.02 72.0223 48.6497 72.4985 47.984 73.2353C47.4379 73.8397 46.6931 74.6195 45.7908 75.4557C45.7426 75.5004 45.6941 75.5452 45.6449 75.5901C45.6426 75.5922 45.6404 75.5945 45.6379 75.5966C45.6196 75.6136 45.6011 75.6303 45.5825 75.6473H45.6449C46.8318 75.4823 47.9567 75.2347 49.02 74.9233C54.4474 73.3332 58.2718 70.0751 60.5366 67.6025C62.1979 65.7886 63.02 64.3972 63.02 64.3972C63.02 64.3972 62.8752 65.4317 62.6451 66.7149C62.5432 67.2825 62.4247 67.8987 62.2948 68.4957C62.2078 68.8949 62.1158 69.2856 62.02 69.6473C62.8644 69.0132 63.6552 68.3703 64.396 67.7216C73.5512 59.7025 75.031 50.7783 75.0964 46.0974C75.0994 45.8827 75.0994 45.6768 75.0971 45.4802C75.0971 45.4793 75.0969 45.4783 75.0969 45.4774C75.0969 45.4774 75.0969 45.4772 75.0969 45.477C75.0969 45.477 75.0969 45.4768 75.0969 45.4766C75.0969 45.4762 75.0969 45.476 75.0969 45.4757C75.0969 45.4747 75.0969 45.4736 75.0969 45.4726V45.4724C75.0969 45.4722 75.0969 45.4721 75.0969 45.4719C75.0969 45.4684 75.0969 45.4652 75.0967 45.462C75.0967 45.4618 75.0967 45.4618 75.0967 45.4616C75.079 44.0759 74.9434 43.1633 74.9044 42.9001L74.8994 42.8665C74.8975 42.8528 74.896 42.8423 74.895 42.8347C74.8998 42.8421 74.9068 42.8519 74.916 42.864C74.9226 42.8732 74.9305 42.8835 74.9392 42.8949C75.0474 43.0362 75.3135 43.3629 75.6438 43.7654C75.8339 43.9968 76.0451 44.2534 76.2598 44.514L76.26 44.5141L76.2602 44.5143L76.2604 44.5145L76.2627 44.5174C76.5131 44.8214 76.768 45.1309 76.9992 45.4128C77.1425 45.5875 77.2767 45.7517 77.395 45.8972C77.476 45.0635 77.5322 44.248 77.5653 43.4507C77.5653 43.4505 77.5653 43.4503 77.5653 43.4503C77.5653 43.4482 77.5655 43.4463 77.5655 43.4442C77.5655 43.4433 77.5655 43.4421 77.5657 43.441C77.5657 43.4406 77.5657 43.44 77.5657 43.4397C77.5657 43.4395 77.5657 43.4395 77.5657 43.4393C77.5657 43.4389 77.5657 43.4387 77.5657 43.4383C77.5657 43.4376 77.5659 43.4368 77.5659 43.4361C77.5659 43.4353 77.5659 43.4345 77.5659 43.4338C77.5659 43.4338 77.5659 43.4336 77.5659 43.4334C77.5703 43.3279 77.5743 43.2227 77.5777 43.118C78.1383 26.4286 68.5089 17.6904 62.8375 14.0101ZM20.1847 10.5584C20.2295 10.7092 20.2762 10.864 20.3244 11.0217C20.6011 11.9262 20.9308 12.9244 21.2701 13.7723C21.588 12.8183 21.96 11.9605 22.3733 11.1894C25.0516 6.19315 29.4638 4.83384 32.151 4.48672C33.5322 4.3083 34.4575 4.39729 34.4575 4.39729C34.6398 2.50127 34.6388 2.50117 34.6377 2.50106L34.6354 2.50085L34.6299 2.50034L34.6166 2.49914C34.611 2.49866 34.6049 2.49815 34.5981 2.49757C34.5922 2.49708 34.5857 2.49656 34.5788 2.49601C34.5489 2.49367 34.5097 2.49085 34.4615 2.48795C34.3655 2.48216 34.2337 2.47605 34.0701 2.47277C33.7436 2.4662 33.288 2.47087 32.7366 2.5126C31.6383 2.59573 30.1318 2.82797 28.4952 3.42995C26.1657 4.28689 23.6223 5.88039 21.644 8.73399C21.6139 8.62449 21.5865 8.5238 21.5621 8.43336C21.5186 8.27192 21.4846 8.14354 21.4619 8.05632C21.4505 8.01272 21.4417 7.97944 21.4362 7.95752L21.4299 7.93327L21.4282 7.92681C21.2646 7.28506 20.7792 6.77422 20.1468 6.57803C19.5141 6.3818 18.825 6.52832 18.3269 6.96491L19.5825 8.39729C18.3269 6.96491 18.3262 6.96557 18.3254 6.96626L18.3237 6.96771L18.3201 6.97094L18.3114 6.97868C18.3049 6.98441 18.2973 6.99129 18.2885 6.99929C18.2708 7.01531 18.2484 7.03586 18.2218 7.06093C18.1685 7.11102 18.0978 7.17925 18.013 7.26529C17.8436 7.43715 17.6166 7.68129 17.3582 7.995C16.8432 8.62043 16.1929 9.53538 15.6289 10.718C14.8228 12.408 14.2042 14.6279 14.3888 17.2737C12.2933 16.5175 10.1225 15.7421 8.25 15.0785C6.82613 14.5739 5.57194 14.1329 4.65259 13.8137C4.19356 13.6544 3.81403 13.5239 3.53716 13.4307C3.39954 13.3843 3.28116 13.3451 3.18857 13.3154C3.18607 13.3146 3.18293 13.3136 3.17916 13.3124C3.12918 13.2962 2.97074 13.2449 2.83104 13.217C2.79649 13.2101 2.76175 13.2041 2.72685 13.1992C2.21078 13.1254 1.69383 13.1762 1.22398 13.3898C0.995944 13.4935 0.805666 13.6238 0.65127 13.762C0.574933 13.8303 0.509036 13.8989 0.45252 13.9652C0.424283 13.9982 0.398409 14.0307 0.374744 14.0621C0.36291 14.0778 0.351623 14.0933 0.340863 14.1085C0.335482 14.1161 0.330234 14.1236 0.325112 14.1311L0.317525 14.1422L0.313805 14.1477L0.311962 14.1505C0.311045 14.1518 0.310129 14.1532 1.89499 15.2098C1.89499 15.2098 2.01998 15.0223 2.45748 15.0848C2.47782 15.0888 2.53207 15.1051 2.61729 15.1325C2.61958 15.1332 2.62188 15.134 2.62419 15.1347C2.83542 15.2028 3.22937 15.3367 3.76447 15.5218C4.40584 15.7437 5.24998 16.0392 6.22525 16.383C8.61554 17.2257 11.7935 18.3592 14.7045 19.4132C15.4587 19.6861 16.195 19.954 16.895 20.2098C16.6467 19.4387 16.4797 18.6997 16.3797 17.9946C15.8831 14.4928 17.0392 11.8252 18.0984 10.2017C18.8659 9.0254 19.5825 8.39729 19.5825 8.39729C19.5825 8.39729 19.8236 9.3434 20.1847 10.5584ZM1.9607 16.9229C1.96064 16.9229 1.96198 16.9232 1.96482 16.9241C1.96219 16.9233 1.96076 16.9229 1.9607 16.9229Z" fill="white"/>
<path d="M34.8951 52.9599C34.7025 53.2005 34.028 53.8121 33.3853 54.3944C33.1937 54.5683 33.0048 54.7393 32.8326 54.8974C32.572 55.1363 32.3038 55.3751 32.0387 55.6113L32.0385 55.6115C31.5404 56.0551 31.0528 56.4896 30.645 56.8974C30.3951 57.1473 29.8951 57.2723 29.145 57.2723H27.2699C27.6459 56.7713 28.313 56.009 29.0379 55.2351C29.4375 54.8652 29.8411 54.5115 30.2074 54.2098C30.8484 53.6795 31.4891 53.321 32.0499 53.0073C33.075 52.434 33.8326 52.0102 33.8326 50.9597C33.872 48.8298 32.4429 48.4174 31.3829 48.4031C31.6991 48.3298 32.0552 48.2723 32.3951 48.2723C31.2074 47.9599 29.7074 48.2723 29.02 48.9599C28.52 49.4182 28.409 50.6544 28.2977 51.8904C28.2423 52.5085 28.1867 53.1265 28.0825 53.6473C27.8027 55.1025 26.9213 55.9062 25.5731 57.1355L25.5712 57.1372L25.5672 57.1408C25.4118 57.2827 25.2501 57.4302 25.0825 57.5848C25.0432 57.6214 25.0044 57.6566 24.9661 57.6909L20.8326 56.7723C20.8326 56.7723 23.5825 55.3347 24.02 53.7098C24.4118 52.3104 23.3998 48.0029 23.1394 46.8947C23.1092 46.7656 23.089 46.6799 23.0825 46.6473C23.0863 46.6511 23.0947 46.6587 23.1071 46.6702C23.2964 46.8433 24.4297 47.8801 24.9575 49.5224C25.9575 46.7723 27.2699 44.1473 27.645 43.8972C27.9672 43.6826 31.7497 41.6683 32.8086 41.1052C32.3457 42.3616 31.9023 43.6056 31.5825 44.5224C30.4575 44.8349 29.3326 45.4599 28.52 46.7098C28.9575 46.3974 30.3326 46.2098 31.3326 46.0848C32.2074 46.0224 34.895 47.4599 35.5825 50.1473V50.2723C35.7074 51.2723 35.3951 52.2098 34.8951 52.9599Z" fill="white" fill-opacity="0.7"/>
<path d="M32.7729 44.3954C34.0554 44.2784 35.1181 44.5367 35.395 44.6474C37.8326 40.0224 39.7701 37.5224 40.2701 37.5224C40.323 37.5157 40.4375 37.5197 40.6027 37.5255C41.9907 37.5731 46.9531 37.7439 49.02 32.7723C51.2364 27.3548 48.1162 22.7255 47.9027 22.4089L47.8951 22.3975C50.52 31.0224 44.7074 35.8348 40.7699 35.8973C38.5825 35.8973 35.645 37.3348 35.645 37.3348L32.7729 44.3954Z" fill="white" fill-opacity="0.7"/>
<path d="M47.895 22.3975C47.8971 22.3984 47.9004 22.3999 47.9047 22.4022C48.1748 22.5333 52.8442 24.7984 54.1904 31.8279C57.2962 35.4525 59.2432 39.9792 59.7699 44.7723C59.7699 45.0849 60.2074 45.5224 60.6449 45.8973C61.2074 46.4597 61.7699 47.0224 61.7699 47.5849C61.7699 49.0849 61.6449 50.5849 61.395 52.0224C61.2843 52.4649 60.7819 52.7605 60.2344 53.0828L60.1817 53.1138C60.1604 53.1264 60.1392 53.139 60.1179 53.1516C60.0853 53.1708 60.0525 53.1902 60.02 53.2098C59.935 53.2664 59.8404 53.3264 59.7442 53.3872L59.744 53.3874C59.4156 53.5952 59.0684 53.8148 59.02 53.9597C57.7474 58.4714 55.0834 62.5011 51.5228 65.5537C57.4003 62.2462 61.832 56.6858 63.6621 50.0733C64.2693 47.4681 64.3729 44.739 63.895 41.9597C61.6449 29.2098 48.6449 22.71 47.895 22.3975Z" fill="white" fill-opacity="0.7"/>
<path d="M32.8754 23.0257C34.0295 23.084 36.498 22.9659 38.8325 21.2722C39.0697 21.8259 39.3049 22.3835 39.5314 22.9282C36.6601 23.6985 34.0857 23.3016 32.8754 23.0257Z" fill="white" fill-opacity="0.7"/>
<path d="M41.4941 22.2202C43.0493 21.5044 44.6208 20.3841 46.0518 18.6706C44.6686 18.2745 43.2377 17.9923 41.7699 17.8348C41.3326 18.5223 40.895 19.1473 40.4575 19.6473C40.7164 20.2858 41.0895 21.21 41.4941 22.2202Z" fill="white" fill-opacity="0.7"/>
<path d="M53.9575 41.7723C54.5825 38.5848 54.645 35.8349 54.4575 33.5848C56.8951 36.8349 58.3951 40.7723 58.8326 44.8349C58.8951 45.3349 59.3951 45.8349 59.8951 46.3349C60.3326 46.7098 60.8326 47.2098 60.8326 47.5224C60.8326 48.9599 60.7074 50.3974 60.4575 51.8349C60.3983 52.0126 59.8897 52.3026 59.4644 52.5452L59.3951 52.5848C58.7699 52.8974 58.2074 53.2098 58.0825 53.7098C56.7074 58.5224 53.7699 62.7723 49.8326 65.7723C55.645 59.7098 58.4575 49.7098 53.9575 41.7723Z" fill="white" fill-opacity="0.7"/>
<path fill-rule="evenodd" clip-rule="evenodd" d="M26.2699 18.0223C26.2699 18.0223 25.1449 9.95985 30.7699 6.58484C30.7501 6.59333 30.7118 6.60773 30.6573 6.62825C29.507 7.06065 21.1388 10.2062 26.2699 18.0223ZM38.395 10.6474C42.7074 9.02244 48.7074 8.14743 58.02 9.89743C53.895 7.83493 49.5825 6.77244 45.2699 6.70992C43.6449 6.70992 42.1449 6.83493 40.7699 7.08493C35.895 7.95992 31.895 11.4599 30.52 16.1474C30.52 16.1474 31.52 14.5849 33.895 12.9599L33.9941 12.8254C34.8716 11.6342 36.1935 9.83964 37.4575 8.33493C37.8324 9.14743 38.2699 10.1474 38.395 10.6474ZM60.02 21.0223C68.8324 26.8347 72.8324 33.2722 75.6449 40.8347C75.52 32.8347 72.8324 25.9598 67.6449 20.4598L67.52 20.3347C62.9575 15.5223 56.2699 13.2723 49.6449 14.2098C47.1449 14.5223 44.6449 15.0223 42.7074 15.6473C42.395 15.7098 42.0825 15.7723 41.7699 15.8973H41.895C42.395 15.8348 51.52 15.3973 60.02 21.0223ZM68.1449 60.7722C67.2074 62.0223 66.1449 63.3349 64.895 64.5848C72.9575 49.0848 65.2699 34.8974 64.9575 34.3349C65.52 34.8974 66.0825 35.5223 66.5825 36.0848C72.7699 42.9598 73.52 53.2722 68.1449 60.7722ZM18.817 12.7071C18.5798 13.6126 16.4727 21.6543 23.5824 21.8974C19.3325 19.3349 18.8325 12.7099 18.8325 12.6474L18.829 12.661L18.8249 12.677L18.817 12.7071ZM31.2074 29.46L27.9575 35.0225C27.9575 35.0225 30.9575 33.6474 32.1449 31.8974C33.0824 30.3974 31.2074 29.46 31.2074 29.46ZM29.0379 55.2351C29.4375 54.8652 29.8411 54.5114 30.2074 54.2097C30.8482 53.6794 31.4891 53.321 32.0499 53.0073C33.075 52.4339 33.8324 52.0101 33.8324 50.9598C33.8718 48.8299 32.4426 48.4175 31.3828 48.4031C31.3992 48.3993 31.4156 48.3956 31.432 48.3918C30.8525 48.5214 30.3948 48.7099 30.3948 48.7099C30.3948 48.7099 32.2074 48.3973 32.8948 49.7099C33.5824 51.0223 33.02 51.7724 31.895 52.5223C31.3333 52.8968 30.1211 54.0789 29.0379 55.2351ZM34.9575 35.9598C34.6691 36.2069 33.7026 38.6789 32.8085 41.1054C31.7497 41.6682 27.9672 43.6825 27.6449 43.8974C27.2699 44.1473 25.9575 46.7722 24.9575 49.5223C24.4295 47.88 23.2963 46.8433 23.107 46.6701C23.0946 46.6587 23.0863 46.6511 23.0824 46.6473C23.0889 46.6798 23.1091 46.7655 23.1394 46.8947C23.3998 48.0029 24.4118 52.3103 24.02 53.7097C23.5824 55.3347 20.8323 56.7722 20.8323 56.7722L24.9661 57.6909C24.1516 58.4193 23.56 58.6473 23.0824 58.6473C22.02 58.4598 20.7699 58.1473 19.8948 57.8349C19.2699 57.0223 18.3324 54.3349 18.0824 53.2099C18.2173 52.7602 18.6435 51.9545 19.0116 51.2585H19.0116L19.0118 51.2583L19.0119 51.2579L19.0122 51.2574C19.1554 50.9865 19.2899 50.7324 19.3948 50.5223L19.499 50.3227C20.1855 49.0082 20.5883 48.237 20.7074 47.5223C20.9575 46.4598 21.7699 39.8974 22.0824 37.1473C22.8948 38.2099 24.02 39.9598 23.7699 41.0848C25.5824 38.5223 24.2699 36.0223 23.6449 35.0223C23.0824 34.0223 22.3323 32.0223 22.9575 29.8974C23.5824 27.7724 25.8323 21.8974 25.8323 21.8974C25.8323 21.8974 26.5824 23.2099 27.6449 22.9598C28.7074 22.7099 37.2699 9.83484 37.2699 9.83484C37.2699 9.83484 39.5825 14.8973 37.1449 18.5848C34.6449 22.2724 32.2074 22.9598 32.2074 22.9598C32.2074 22.9598 32.4537 23.0046 32.8752 23.0259C34.0857 23.3015 36.6602 23.6985 39.5314 22.9282C40.5581 25.3974 41.4063 27.6014 41.4575 27.9598C41.4257 28.0337 41.3282 28.2661 41.1866 28.6031L41.1861 28.605L41.1857 28.6055L41.1855 28.6061L41.1853 28.6067C40.4874 30.2688 38.7276 34.4608 38.52 34.7724C38.3948 34.8974 37.52 35.1473 36.895 35.2724C35.8324 35.5848 35.2074 35.7724 34.9575 35.9598ZM36.6449 13.5848C36.6449 13.5848 37.2074 16.0848 35.7699 17.7723C33.9575 19.8347 32.395 19.7722 32.4575 19.7722L36.6449 13.5848ZM22.2074 49.085L21.7074 51.585C21.7074 51.585 22.7074 51.4598 22.7074 52.585C22.7074 53.4598 21.7074 54.6474 20.895 54.7099C20.0824 54.7724 19.7699 53.7724 19.9575 53.2099C20.1449 52.7099 22.2074 49.085 22.2074 49.085ZM31.7699 28.2097C33.9575 28.6473 34.5825 31.2097 33.395 32.5848C32.2074 33.8974 29.2074 35.7724 27.4575 36.2097C27.0824 37.6473 23.895 37.0223 25.0824 32.4598C25.0824 32.4598 25.6449 34.6473 26.2074 34.4598C26.7699 34.2724 33.1449 24.2724 33.1449 24.2724C33.1449 24.2724 32.3324 26.8974 31.7699 28.2097ZM29.5522 51.4775C29.5183 52.0827 29.4626 53.0705 29.02 53.7099C29.0634 53.6663 29.1981 53.5242 29.3733 53.3389L29.3737 53.3387C29.7017 52.9922 30.1724 52.4949 30.4575 52.2099C30.652 52.0347 30.8708 51.8958 31.08 51.7633C31.5424 51.4699 31.9575 51.2069 31.9575 50.6473C31.9575 49.7724 30.7699 49.5848 30.2699 49.7099C29.7699 49.8349 29.6449 50.6473 29.5824 51.0848C29.5691 51.1781 29.5615 51.3137 29.5522 51.4775ZM58.5825 53.8974C57.2074 58.8349 54.0825 63.2099 50.02 66.3349C50.5305 66.0907 51.0316 65.8301 51.5228 65.5537C55.0832 62.501 57.7474 58.4713 59.02 53.9598C59.0682 53.8149 59.4154 53.5951 59.7438 53.3873L59.7442 53.3871C59.8404 53.3263 59.935 53.2663 60.02 53.2097C60.039 53.1983 60.0583 53.1869 60.0775 53.1754L60.1179 53.1514C60.1392 53.1389 60.1604 53.1263 60.1817 53.1137L60.2345 53.0827C60.7819 52.7606 61.2844 52.4648 61.3948 52.0223C61.6449 50.5848 61.7699 49.0848 61.7699 47.5848C61.7699 47.0223 61.2074 46.4598 60.6449 45.8974C60.2074 45.5223 59.7699 45.0848 59.7699 44.7722C59.2432 39.9793 57.2962 35.4524 54.1905 31.828C54.2185 31.9741 54.2449 32.1221 54.2699 32.2724C57.0825 35.8349 58.8948 40.1473 59.3948 44.7099C59.3948 44.9434 59.6743 45.2469 59.9459 45.5419C60.0377 45.6415 60.1286 45.7402 60.2074 45.8349C60.7699 46.3974 61.3324 46.9598 61.3324 47.5223C61.3324 49.0223 61.2074 50.5223 60.9575 51.9598C60.8324 52.4598 60.2074 52.8349 59.5825 53.1473C59.4979 53.2036 59.4038 53.2633 59.3082 53.3238L59.3066 53.3248L59.3063 53.325C58.9781 53.5326 58.6308 53.7524 58.5825 53.8974ZM47.895 22.3974L47.8954 22.3975C48.6501 22.7124 61.6453 29.2124 63.8948 41.9598C64.3729 44.7389 64.2693 47.468 63.6621 50.073C64.2621 47.9052 64.5825 45.6242 64.5825 43.2724C64.5825 31.5956 56.7423 21.7318 46.0516 18.6706C44.6205 20.384 43.0493 21.5044 41.4941 22.2202C42.555 24.869 43.8324 28.1086 43.8324 28.3349C43.8324 28.7099 42.6449 31.7724 42.52 31.8974C42.3948 31.9598 40.9575 32.0848 40.3948 32.0848C39.7699 33.5848 39.1449 35.0223 39.02 35.2099C38.8324 35.4598 38.2699 35.6473 37.0825 35.9598C36.9554 35.9979 36.8156 36.0387 36.6722 36.0802C36.1101 36.2438 35.4944 36.4227 35.3948 36.5223C35.0824 36.8974 33.3948 41.3349 32.2699 44.4598C32.4404 44.4314 32.6084 44.4103 32.7729 44.3953L35.6449 37.3347C35.6449 37.3347 38.5825 35.8974 40.7699 35.8974C44.7074 35.8347 50.5198 31.0223 47.895 22.3974ZM21.8325 25.8349C22.2699 25.0223 21.895 24.4598 21.52 24.1473L21.395 24.0223C20.6449 23.6473 15.9575 21.8974 11.3325 20.2724C15.395 22.9598 19.895 25.5848 20.6449 25.9598C21.2074 26.2099 21.5824 26.2724 21.8325 25.8349Z" fill="white"/>
</g>
<defs>
<clipPath id="clip0_4_41">
<rect width="203.81" height="80" fill="white"/>
</clipPath>
</defs>
</svg>
