<svg width="175" height="74" viewBox="0 0 175 74" fill="none" xmlns="http://www.w3.org/2000/svg">
<g filter="url(#filter0_d)">
<path d="M69.1099 23.1786C69.1099 23.3393 69.0474 23.3571 68.5742 23.3571C68.101 23.3571 68.0385 23.375 68.0385 23.5357C68.0385 23.6964 67.976 23.7143 67.5028 23.7143C67.0296 23.7143 66.9671 23.7321 66.9671 23.8929C66.9671 24.0536 66.9046 24.0714 66.4314 24.0714C65.9581 24.0714 65.8956 24.0893 65.8956 24.25C65.8956 24.4107 65.8331 24.4286 65.3599 24.4286C64.8867 24.4286 64.8242 24.4464 64.8242 24.6071C64.8242 24.7679 64.7617 24.7857 64.2885 24.7857C63.8153 24.7857 63.7528 24.8036 63.7528 24.9643C63.7528 25.125 63.6903 25.1429 63.2171 25.1429C62.7439 25.1429 62.6814 25.1607 62.6814 25.3214C62.6814 25.4375 62.6189 25.5 62.5028 25.5C62.3421 25.5 62.3242 25.5625 62.3242 26.0357C62.3242 26.5089 62.3421 26.5714 62.5028 26.5714C62.6189 26.5714 62.6814 26.6339 62.6814 26.75C62.6814 26.9107 62.7439 26.9286 63.2171 26.9286C63.6903 26.9286 63.7528 26.9107 63.7528 26.75C63.7528 26.5893 63.8153 26.5714 64.2885 26.5714C64.7617 26.5714 64.8242 26.5536 64.8242 26.3929C64.8242 26.2321 64.8867 26.2143 65.3599 26.2143C65.8331 26.2143 65.8956 26.1964 65.8956 26.0357C65.8956 25.875 65.9581 25.8571 66.4314 25.8571C66.9046 25.8571 66.9671 25.8393 66.9671 25.6786C66.9671 25.5179 67.0296 25.5 67.5028 25.5C67.976 25.5 68.0385 25.4821 68.0385 25.3214C68.0385 25.1607 68.101 25.1429 68.5742 25.1429H69.1099V35.6786V46.2143H65.8956C62.7439 46.2143 62.6814 46.2143 62.6814 46.3929C62.6814 46.5089 62.6189 46.5714 62.5028 46.5714C62.3421 46.5714 62.3242 46.6339 62.3242 47.1071C62.3242 47.5804 62.3421 47.6429 62.5028 47.6429C62.6189 47.6429 62.6814 47.7054 62.6814 47.8214C62.6814 48 62.7439 48 70.0028 48H77.3242V47.6429C77.3242 47.3482 77.351 47.2857 77.5028 47.2857C77.6189 47.2857 77.6814 47.2232 77.6814 47.1071C77.6814 46.9911 77.6189 46.9286 77.5028 46.9286C77.3867 46.9286 77.3242 46.8661 77.3242 46.75C77.3242 46.6339 77.2617 46.5714 77.1456 46.5714C77.0296 46.5714 76.9671 46.5089 76.9671 46.3929C76.9671 46.2143 76.9046 46.2143 73.9314 46.2143C70.9581 46.2143 70.8956 46.2143 70.8956 46.0357C70.8956 45.9196 70.8331 45.8571 70.7171 45.8571C70.601 45.8571 70.5385 45.7946 70.5385 45.6786C70.5385 45.5625 70.601 45.5 70.7171 45.5C70.8956 45.5 70.8956 45.4375 70.8956 34.6071C70.8956 23.7768 70.8956 23.7143 70.7171 23.7143C70.601 23.7143 70.5385 23.6518 70.5385 23.5357C70.5385 23.4196 70.601 23.3571 70.7171 23.3571C70.8331 23.3571 70.8956 23.2946 70.8956 23.1786C70.8956 23.0089 70.8331 23 70.0028 23C69.1724 23 69.1099 23.0089 69.1099 23.1786Z" fill="white"/>
<path d="M80.5368 23.1786C80.5368 23.2946 80.4743 23.3571 80.3583 23.3571C80.1975 23.3571 80.1797 23.4196 80.1797 23.8929C80.1797 24.3661 80.1975 24.4286 80.3583 24.4286C80.4743 24.4286 80.5368 24.4911 80.5368 24.6071C80.5368 24.7768 80.5993 24.7857 81.9654 24.7857H83.394V35.5V46.2143H81.9654C80.5993 46.2143 80.5368 46.2232 80.5368 46.3929C80.5368 46.5089 80.4743 46.5714 80.3583 46.5714C80.1975 46.5714 80.1797 46.6339 80.1797 47.1071C80.1797 47.5804 80.1975 47.6429 80.3583 47.6429C80.4743 47.6429 80.5368 47.7054 80.5368 47.8214C80.5368 47.9911 80.5993 48 82.8583 48H85.1797V44.25C85.1797 40.5625 85.1797 40.5 85.3583 40.5C85.4743 40.5 85.5368 40.4375 85.5368 40.3214C85.5368 40.2054 85.5993 40.1429 85.7154 40.1429C85.8315 40.1429 85.894 40.0804 85.894 39.9643C85.894 39.8482 85.9565 39.7857 86.0725 39.7857C86.1886 39.7857 86.2511 39.7232 86.2511 39.6071C86.2511 39.4911 86.3136 39.4286 86.4297 39.4286C86.5458 39.4286 86.6083 39.3661 86.6083 39.25C86.6083 39.0982 86.6708 39.0714 86.9654 39.0714C87.26 39.0714 87.3225 39.0982 87.3225 39.25C87.3225 39.3661 87.385 39.4286 87.5011 39.4286C87.6172 39.4286 87.6797 39.4911 87.6797 39.6071C87.6797 39.7232 87.7422 39.7857 87.8583 39.7857C87.9743 39.7857 88.0368 39.8482 88.0368 39.9643C88.0368 40.0804 88.0993 40.1429 88.2154 40.1429C88.3315 40.1429 88.394 40.2054 88.394 40.3214C88.394 40.4375 88.4565 40.5 88.5725 40.5C88.6886 40.5 88.7511 40.5625 88.7511 40.6786C88.7511 40.7946 88.8136 40.8571 88.9297 40.8571C89.0458 40.8571 89.1083 40.9196 89.1083 41.0357C89.1083 41.1518 89.1708 41.2143 89.2868 41.2143C89.4029 41.2143 89.4654 41.2768 89.4654 41.3929C89.4654 41.5089 89.5279 41.5714 89.644 41.5714C89.76 41.5714 89.8225 41.6339 89.8225 41.75C89.8225 41.8661 89.885 41.9286 90.0011 41.9286C90.1172 41.9286 90.1797 41.9911 90.1797 42.1071C90.1797 42.2232 90.2422 42.2857 90.3583 42.2857C90.4743 42.2857 90.5368 42.3482 90.5368 42.4643C90.5368 42.5804 90.5993 42.6429 90.7154 42.6429C90.8315 42.6429 90.894 42.7054 90.894 42.8214C90.894 42.9375 90.9565 43 91.0725 43C91.1886 43 91.2511 43.0625 91.2511 43.1786C91.2511 43.2946 91.3136 43.3571 91.4297 43.3571C91.5458 43.3571 91.6083 43.4196 91.6083 43.5357C91.6083 43.6518 91.6708 43.7143 91.7868 43.7143C91.9029 43.7143 91.9654 43.7768 91.9654 43.8929C91.9654 44.0089 92.0279 44.0714 92.144 44.0714C92.26 44.0714 92.3225 44.1339 92.3225 44.25C92.3225 44.3661 92.385 44.4286 92.5011 44.4286C92.6172 44.4286 92.6797 44.4911 92.6797 44.6071C92.6797 44.7232 92.7422 44.7857 92.8583 44.7857C92.9743 44.7857 93.0368 44.8482 93.0368 44.9643C93.0368 45.0804 93.0993 45.1429 93.2154 45.1429C93.3315 45.1429 93.394 45.2054 93.394 45.3214C93.394 45.4375 93.4565 45.5 93.5725 45.5C93.7243 45.5 93.7511 45.5625 93.7511 45.8571V46.2143H93.0368C92.385 46.2143 92.3225 46.2321 92.3225 46.3929C92.3225 46.5089 92.26 46.5714 92.144 46.5714C91.9833 46.5714 91.9654 46.6339 91.9654 47.1071C91.9654 47.5804 91.9833 47.6429 92.144 47.6429C92.26 47.6429 92.3225 47.7054 92.3225 47.8214C92.3225 48 92.385 48 95.894 48C99.4029 48 99.4654 48 99.4654 47.8214C99.4654 47.7054 99.5279 47.6429 99.644 47.6429C99.8047 47.6429 99.8225 47.5804 99.8225 47.1071C99.8225 46.6339 99.8047 46.5714 99.644 46.5714C99.5279 46.5714 99.4654 46.5089 99.4654 46.3929C99.4654 46.2232 99.4029 46.2143 97.8583 46.2143C96.3136 46.2143 96.2511 46.2054 96.2511 46.0357C96.2511 45.9196 96.3136 45.8571 96.4297 45.8571C96.5458 45.8571 96.6083 45.7946 96.6083 45.6786C96.6083 45.5625 96.6708 45.5 96.7868 45.5C96.9029 45.5 96.9654 45.4375 96.9654 45.3214C96.9654 45.2054 97.0279 45.1429 97.144 45.1429C97.26 45.1429 97.3225 45.0804 97.3225 44.9643C97.3225 44.8482 97.385 44.7857 97.5011 44.7857C97.6172 44.7857 97.6797 44.7232 97.6797 44.6071C97.6797 44.4911 97.7422 44.4286 97.8583 44.4286C97.9743 44.4286 98.0368 44.3661 98.0368 44.25C98.0368 44.1339 98.0993 44.0714 98.2154 44.0714C98.3315 44.0714 98.394 44.0089 98.394 43.8929C98.394 43.7768 98.4565 43.7143 98.5725 43.7143C98.6886 43.7143 98.7511 43.6518 98.7511 43.5357C98.7511 43.4196 98.8136 43.3571 98.9297 43.3571C99.0458 43.3571 99.1083 43.2946 99.1083 43.1786C99.1083 43.0625 99.1708 43 99.2868 43C99.4029 43 99.4654 42.9375 99.4654 42.8214C99.4654 42.7054 99.5279 42.6429 99.644 42.6429C99.76 42.6429 99.8225 42.5804 99.8225 42.4643C99.8225 42.3482 99.885 42.2857 100.001 42.2857C100.117 42.2857 100.18 42.2232 100.18 42.1071C100.18 41.9911 100.242 41.9286 100.358 41.9286C100.474 41.9286 100.537 41.8661 100.537 41.75C100.537 41.6339 100.599 41.5714 100.715 41.5714C100.831 41.5714 100.894 41.5089 100.894 41.3929C100.894 41.2768 100.956 41.2143 101.073 41.2143C101.189 41.2143 101.251 41.1518 101.251 41.0357C101.251 40.9196 101.314 40.8571 101.43 40.8571C101.546 40.8571 101.608 40.7946 101.608 40.6786C101.608 40.5625 101.671 40.5 101.787 40.5C101.903 40.5 101.965 40.4375 101.965 40.3214C101.965 40.1696 102.028 40.1429 102.323 40.1429C102.617 40.1429 102.68 40.1696 102.68 40.3214C102.68 40.4375 102.742 40.5 102.858 40.5C102.974 40.5 103.037 40.5625 103.037 40.6786C103.037 40.7946 103.099 40.8571 103.215 40.8571C103.331 40.8571 103.394 40.9196 103.394 41.0357C103.394 41.1518 103.456 41.2143 103.573 41.2143C103.689 41.2143 103.751 41.2768 103.751 41.3929C103.751 41.5089 103.814 41.5714 103.93 41.5714C104.046 41.5714 104.108 41.6339 104.108 41.75C104.108 41.8661 104.171 41.9286 104.287 41.9286C104.403 41.9286 104.465 41.9911 104.465 42.1071C104.465 42.2232 104.528 42.2857 104.644 42.2857C104.76 42.2857 104.823 42.3482 104.823 42.4643C104.823 42.5804 104.885 42.6429 105.001 42.6429C105.117 42.6429 105.18 42.7054 105.18 42.8214C105.18 42.9375 105.242 43 105.358 43C105.474 43 105.537 43.0625 105.537 43.1786C105.537 43.2946 105.599 43.3571 105.715 43.3571C105.831 43.3571 105.894 43.4196 105.894 43.5357C105.894 43.6518 105.956 43.7143 106.073 43.7143C106.189 43.7143 106.251 43.7768 106.251 43.8929C106.251 44.0089 106.314 44.0714 106.43 44.0714C106.546 44.0714 106.608 44.1339 106.608 44.25C106.608 44.3661 106.671 44.4286 106.787 44.4286C106.903 44.4286 106.965 44.4911 106.965 44.6071C106.965 44.7232 107.028 44.7857 107.144 44.7857C107.26 44.7857 107.323 44.8482 107.323 44.9643C107.323 45.0804 107.385 45.1429 107.501 45.1429C107.617 45.1429 107.68 45.2054 107.68 45.3214C107.68 45.4375 107.742 45.5 107.858 45.5C107.974 45.5 108.037 45.5625 108.037 45.6786C108.037 45.8304 108.099 45.8571 108.394 45.8571C108.689 45.8571 108.751 45.8839 108.751 46.0357C108.751 46.2054 108.689 46.2143 107.144 46.2143C105.599 46.2143 105.537 46.2232 105.537 46.3929C105.537 46.5089 105.474 46.5714 105.358 46.5714C105.242 46.5714 105.18 46.6339 105.18 46.75C105.18 46.8661 105.117 46.9286 105.001 46.9286C104.885 46.9286 104.823 46.9911 104.823 47.1071C104.823 47.2232 104.885 47.2857 105.001 47.2857C105.117 47.2857 105.18 47.3482 105.18 47.4643C105.18 47.5804 105.242 47.6429 105.358 47.6429C105.474 47.6429 105.537 47.7054 105.537 47.8214C105.537 48 105.599 48 108.751 48C111.903 48 111.965 48 111.965 47.8214C111.965 47.7054 112.028 47.6429 112.144 47.6429C112.26 47.6429 112.323 47.5804 112.323 47.4643C112.323 47.3482 112.385 47.2857 112.501 47.2857C112.617 47.2857 112.68 47.2232 112.68 47.1071C112.68 46.9911 112.617 46.9286 112.501 46.9286C112.385 46.9286 112.323 46.8661 112.323 46.75C112.323 46.6339 112.26 46.5714 112.144 46.5714C112.028 46.5714 111.965 46.5089 111.965 46.3929C111.965 46.2321 111.903 46.2143 111.43 46.2143C110.956 46.2143 110.894 46.1964 110.894 46.0357C110.894 45.9196 110.831 45.8571 110.715 45.8571C110.599 45.8571 110.537 45.7946 110.537 45.6786C110.537 45.5625 110.474 45.5 110.358 45.5C110.242 45.5 110.18 45.4375 110.18 45.3214C110.18 45.2054 110.117 45.1429 110.001 45.1429C109.885 45.1429 109.823 45.0804 109.823 44.9643C109.823 44.8482 109.76 44.7857 109.644 44.7857C109.528 44.7857 109.465 44.7232 109.465 44.6071C109.465 44.4911 109.403 44.4286 109.287 44.4286C109.171 44.4286 109.108 44.3661 109.108 44.25C109.108 44.1339 109.046 44.0714 108.93 44.0714C108.814 44.0714 108.751 44.0089 108.751 43.8929C108.751 43.7768 108.689 43.7143 108.573 43.7143C108.456 43.7143 108.394 43.6518 108.394 43.5357C108.394 43.4196 108.331 43.3571 108.215 43.3571C108.099 43.3571 108.037 43.2946 108.037 43.1786C108.037 43.0625 107.974 43 107.858 43C107.742 43 107.68 42.9375 107.68 42.8214C107.68 42.7054 107.617 42.6429 107.501 42.6429C107.385 42.6429 107.323 42.5804 107.323 42.4643C107.323 42.3482 107.26 42.2857 107.144 42.2857C107.028 42.2857 106.965 42.2232 106.965 42.1071C106.965 41.9911 106.903 41.9286 106.787 41.9286C106.671 41.9286 106.608 41.8661 106.608 41.75C106.608 41.5982 106.546 41.5714 106.251 41.5714C105.956 41.5714 105.894 41.5446 105.894 41.3929C105.894 41.2768 105.831 41.2143 105.715 41.2143C105.599 41.2143 105.537 41.1518 105.537 41.0357C105.537 40.9196 105.474 40.8571 105.358 40.8571C105.242 40.8571 105.18 40.7946 105.18 40.6786C105.18 40.5625 105.117 40.5 105.001 40.5C104.885 40.5 104.823 40.4375 104.823 40.3214C104.823 40.2054 104.76 40.1429 104.644 40.1429C104.528 40.1429 104.465 40.0804 104.465 39.9643C104.465 39.8482 104.403 39.7857 104.287 39.7857C104.171 39.7857 104.108 39.7232 104.108 39.6071C104.108 39.4911 104.046 39.4286 103.93 39.4286C103.778 39.4286 103.751 39.3661 103.751 39.0714C103.751 38.7768 103.778 38.7143 103.93 38.7143C104.046 38.7143 104.108 38.6518 104.108 38.5357C104.108 38.4196 104.171 38.3571 104.287 38.3571C104.403 38.3571 104.465 38.2946 104.465 38.1786C104.465 38.0625 104.528 38 104.644 38C104.76 38 104.823 37.9375 104.823 37.8214C104.823 37.7054 104.885 37.6429 105.001 37.6429C105.117 37.6429 105.18 37.5804 105.18 37.4643C105.18 37.3482 105.242 37.2857 105.358 37.2857C105.474 37.2857 105.537 37.2232 105.537 37.1071C105.537 36.9911 105.599 36.9286 105.715 36.9286C105.831 36.9286 105.894 36.8661 105.894 36.75C105.894 36.6339 105.956 36.5714 106.073 36.5714C106.189 36.5714 106.251 36.5089 106.251 36.3929C106.251 36.2768 106.314 36.2143 106.43 36.2143C106.546 36.2143 106.608 36.1518 106.608 36.0357C106.608 35.9196 106.671 35.8571 106.787 35.8571C106.903 35.8571 106.965 35.7946 106.965 35.6786C106.965 35.5625 107.028 35.5 107.144 35.5C107.26 35.5 107.323 35.4375 107.323 35.3214C107.323 35.2054 107.385 35.1429 107.501 35.1429C107.617 35.1429 107.68 35.0804 107.68 34.9643C107.68 34.8482 107.742 34.7857 107.858 34.7857C107.974 34.7857 108.037 34.7232 108.037 34.6071C108.037 34.4911 108.099 34.4286 108.215 34.4286C108.331 34.4286 108.394 34.3661 108.394 34.25C108.394 34.1339 108.456 34.0714 108.573 34.0714C108.689 34.0714 108.751 34.0089 108.751 33.8929C108.751 33.7768 108.814 33.7143 108.93 33.7143C109.046 33.7143 109.108 33.6518 109.108 33.5357C109.108 33.4196 109.171 33.3571 109.287 33.3571C109.403 33.3571 109.465 33.2946 109.465 33.1786C109.465 33.0625 109.528 33 109.644 33C109.76 33 109.823 32.9375 109.823 32.8214C109.823 32.6607 109.885 32.6429 110.358 32.6429C110.831 32.6429 110.894 32.625 110.894 32.4643C110.894 32.3125 110.956 32.2857 111.251 32.2857H111.608V31.75C111.608 31.2768 111.59 31.2143 111.43 31.2143C111.314 31.2143 111.251 31.1518 111.251 31.0357C111.251 30.8571 111.189 30.8571 108.215 30.8571C105.242 30.8571 105.18 30.8571 105.18 31.0357C105.18 31.1518 105.117 31.2143 105.001 31.2143C104.849 31.2143 104.823 31.2768 104.823 31.5714C104.823 31.8661 104.849 31.9286 105.001 31.9286C105.117 31.9286 105.18 31.9911 105.18 32.1071C105.18 32.2679 105.242 32.2857 105.715 32.2857C106.189 32.2857 106.251 32.3036 106.251 32.4643C106.251 32.625 106.314 32.6429 106.787 32.6429C107.26 32.6429 107.323 32.625 107.323 32.4643C107.323 32.3482 107.385 32.2857 107.501 32.2857C107.653 32.2857 107.68 32.3482 107.68 32.6429C107.68 32.9375 107.653 33 107.501 33C107.385 33 107.323 33.0625 107.323 33.1786C107.323 33.2946 107.26 33.3571 107.144 33.3571C107.028 33.3571 106.965 33.4196 106.965 33.5357C106.965 33.6518 106.903 33.7143 106.787 33.7143C106.671 33.7143 106.608 33.7768 106.608 33.8929C106.608 34.0089 106.546 34.0714 106.43 34.0714C106.314 34.0714 106.251 34.1339 106.251 34.25C106.251 34.3661 106.189 34.4286 106.073 34.4286C105.956 34.4286 105.894 34.4911 105.894 34.6071C105.894 34.7232 105.831 34.7857 105.715 34.7857C105.599 34.7857 105.537 34.8482 105.537 34.9643C105.537 35.0804 105.474 35.1429 105.358 35.1429C105.242 35.1429 105.18 35.2054 105.18 35.3214C105.18 35.4375 105.117 35.5 105.001 35.5C104.885 35.5 104.823 35.5625 104.823 35.6786C104.823 35.7946 104.76 35.8571 104.644 35.8571C104.528 35.8571 104.465 35.9196 104.465 36.0357C104.465 36.1518 104.403 36.2143 104.287 36.2143C104.171 36.2143 104.108 36.2768 104.108 36.3929C104.108 36.5446 104.046 36.5714 103.751 36.5714C103.456 36.5714 103.394 36.5982 103.394 36.75C103.394 36.8661 103.331 36.9286 103.215 36.9286C103.099 36.9286 103.037 36.9911 103.037 37.1071C103.037 37.2232 102.974 37.2857 102.858 37.2857C102.742 37.2857 102.68 37.3482 102.68 37.4643C102.68 37.6161 102.617 37.6429 102.323 37.6429C102.028 37.6429 101.965 37.6161 101.965 37.4643C101.965 37.3482 101.903 37.2857 101.787 37.2857C101.671 37.2857 101.608 37.2232 101.608 37.1071C101.608 36.9911 101.546 36.9286 101.43 36.9286C101.314 36.9286 101.251 36.8661 101.251 36.75C101.251 36.6339 101.189 36.5714 101.073 36.5714C100.956 36.5714 100.894 36.5089 100.894 36.3929C100.894 36.2768 100.831 36.2143 100.715 36.2143C100.599 36.2143 100.537 36.1518 100.537 36.0357C100.537 35.9196 100.474 35.8571 100.358 35.8571C100.242 35.8571 100.18 35.7946 100.18 35.6786C100.18 35.5625 100.117 35.5 100.001 35.5C99.885 35.5 99.8225 35.4375 99.8225 35.3214C99.8225 35.2054 99.76 35.1429 99.644 35.1429C99.5279 35.1429 99.4654 35.0804 99.4654 34.9643C99.4654 34.8482 99.4029 34.7857 99.2868 34.7857C99.1708 34.7857 99.1083 34.7232 99.1083 34.6071C99.1083 34.4911 99.0458 34.4286 98.9297 34.4286C98.8136 34.4286 98.7511 34.3661 98.7511 34.25C98.7511 34.1339 98.6886 34.0714 98.5725 34.0714C98.4565 34.0714 98.394 34.0089 98.394 33.8929C98.394 33.7768 98.3315 33.7143 98.2154 33.7143C98.0993 33.7143 98.0368 33.6518 98.0368 33.5357C98.0368 33.4196 97.9743 33.3571 97.8583 33.3571C97.7422 33.3571 97.6797 33.2946 97.6797 33.1786C97.6797 33.0268 97.6172 33 97.3225 33H96.9654V32.6429V32.2857H97.3225C97.6172 32.2857 97.6797 32.3125 97.6797 32.4643C97.6797 32.625 97.7422 32.6429 98.2154 32.6429C98.6886 32.6429 98.7511 32.625 98.7511 32.4643C98.7511 32.3036 98.8136 32.2857 99.2868 32.2857H99.8225V31.75C99.8225 31.2768 99.8047 31.2143 99.644 31.2143C99.5279 31.2143 99.4654 31.1518 99.4654 31.0357C99.4654 30.8571 99.4029 30.8571 95.0011 30.8571C90.5993 30.8571 90.5368 30.8571 90.5368 31.0357C90.5368 31.1518 90.4743 31.2143 90.3583 31.2143C90.2065 31.2143 90.1797 31.2768 90.1797 31.5714C90.1797 31.8661 90.2065 31.9286 90.3583 31.9286C90.4743 31.9286 90.5368 31.9911 90.5368 32.1071C90.5368 32.2679 90.5993 32.2857 91.2511 32.2857H91.9654V32.6429V33H91.6083C91.3136 33 91.2511 33.0268 91.2511 33.1786C91.2511 33.2946 91.1886 33.3571 91.0725 33.3571C90.9565 33.3571 90.894 33.4196 90.894 33.5357C90.894 33.6518 90.8315 33.7143 90.7154 33.7143C90.5993 33.7143 90.5368 33.7768 90.5368 33.8929C90.5368 34.0089 90.4743 34.0714 90.3583 34.0714C90.2422 34.0714 90.1797 34.1339 90.1797 34.25C90.1797 34.3661 90.1172 34.4286 90.0011 34.4286C89.885 34.4286 89.8225 34.4911 89.8225 34.6071C89.8225 34.7232 89.76 34.7857 89.644 34.7857C89.5279 34.7857 89.4654 34.8482 89.4654 34.9643C89.4654 35.1161 89.4029 35.1429 89.1083 35.1429C88.8136 35.1429 88.7511 35.1696 88.7511 35.3214C88.7511 35.4375 88.6886 35.5 88.5725 35.5C88.4565 35.5 88.394 35.5625 88.394 35.6786C88.394 35.7946 88.3315 35.8571 88.2154 35.8571C88.0993 35.8571 88.0368 35.9196 88.0368 36.0357C88.0368 36.1518 87.9743 36.2143 87.8583 36.2143C87.7422 36.2143 87.6797 36.2768 87.6797 36.3929C87.6797 36.5089 87.6172 36.5714 87.5011 36.5714C87.385 36.5714 87.3225 36.6339 87.3225 36.75C87.3225 36.9018 87.26 36.9286 86.9654 36.9286C86.6708 36.9286 86.6083 36.9554 86.6083 37.1071C86.6083 37.2232 86.5458 37.2857 86.4297 37.2857C86.3136 37.2857 86.2511 37.3482 86.2511 37.4643C86.2511 37.5804 86.1886 37.6429 86.0725 37.6429C85.9565 37.6429 85.894 37.7054 85.894 37.8214C85.894 37.9375 85.8315 38 85.7154 38C85.5993 38 85.5368 38.0625 85.5368 38.1786C85.5368 38.2946 85.4743 38.3571 85.3583 38.3571C85.1797 38.3571 85.1797 38.2946 85.1797 30.6786V23H82.8583C80.5993 23 80.5368 23.0089 80.5368 23.1786ZM94.8225 32.8214C94.8225 32.9375 94.885 33 95.0011 33C95.1172 33 95.1797 33.0625 95.1797 33.1786C95.1797 33.2946 95.2422 33.3571 95.3583 33.3571C95.4743 33.3571 95.5368 33.4196 95.5368 33.5357C95.5368 33.6518 95.5993 33.7143 95.7154 33.7143C95.8315 33.7143 95.894 33.7768 95.894 33.8929C95.894 34.0089 95.9565 34.0714 96.0725 34.0714C96.1886 34.0714 96.2511 34.1339 96.2511 34.25C96.2511 34.3661 96.3136 34.4286 96.4297 34.4286C96.5458 34.4286 96.6083 34.4911 96.6083 34.6071C96.6083 34.7232 96.6708 34.7857 96.7868 34.7857C96.9029 34.7857 96.9654 34.8482 96.9654 34.9643C96.9654 35.0804 97.0279 35.1429 97.144 35.1429C97.26 35.1429 97.3225 35.2054 97.3225 35.3214C97.3225 35.4375 97.385 35.5 97.5011 35.5C97.6172 35.5 97.6797 35.5625 97.6797 35.6786C97.6797 35.7946 97.7422 35.8571 97.8583 35.8571C97.9743 35.8571 98.0368 35.9196 98.0368 36.0357C98.0368 36.1518 98.0993 36.2143 98.2154 36.2143C98.3315 36.2143 98.394 36.2768 98.394 36.3929C98.394 36.5089 98.4565 36.5714 98.5725 36.5714C98.6886 36.5714 98.7511 36.6339 98.7511 36.75C98.7511 36.9018 98.8136 36.9286 99.1083 36.9286C99.4029 36.9286 99.4654 36.9554 99.4654 37.1071C99.4654 37.2232 99.5279 37.2857 99.644 37.2857C99.76 37.2857 99.8225 37.3482 99.8225 37.4643C99.8225 37.5804 99.885 37.6429 100.001 37.6429C100.117 37.6429 100.18 37.7054 100.18 37.8214C100.18 37.9375 100.242 38 100.358 38C100.474 38 100.537 38.0625 100.537 38.1786C100.537 38.2946 100.599 38.3571 100.715 38.3571C100.831 38.3571 100.894 38.4196 100.894 38.5357C100.894 38.6518 100.956 38.7143 101.073 38.7143C101.189 38.7143 101.251 38.7768 101.251 38.8929C101.251 39.0089 101.189 39.0714 101.073 39.0714C100.956 39.0714 100.894 39.1339 100.894 39.25C100.894 39.3661 100.831 39.4286 100.715 39.4286C100.599 39.4286 100.537 39.4911 100.537 39.6071C100.537 39.7232 100.474 39.7857 100.358 39.7857C100.242 39.7857 100.18 39.8482 100.18 39.9643C100.18 40.0804 100.117 40.1429 100.001 40.1429C99.885 40.1429 99.8225 40.2054 99.8225 40.3214C99.8225 40.4375 99.76 40.5 99.644 40.5C99.5279 40.5 99.4654 40.5625 99.4654 40.6786C99.4654 40.7946 99.4029 40.8571 99.2868 40.8571C99.1708 40.8571 99.1083 40.9196 99.1083 41.0357C99.1083 41.1518 99.0458 41.2143 98.9297 41.2143C98.8136 41.2143 98.7511 41.2768 98.7511 41.3929C98.7511 41.5089 98.6886 41.5714 98.5725 41.5714C98.4565 41.5714 98.394 41.6339 98.394 41.75C98.394 41.8661 98.3315 41.9286 98.2154 41.9286C98.0993 41.9286 98.0368 41.9911 98.0368 42.1071C98.0368 42.2232 97.9743 42.2857 97.8583 42.2857C97.7422 42.2857 97.6797 42.3482 97.6797 42.4643C97.6797 42.5804 97.6172 42.6429 97.5011 42.6429C97.385 42.6429 97.3225 42.7054 97.3225 42.8214C97.3225 42.9375 97.26 43 97.144 43C97.0279 43 96.9654 43.0625 96.9654 43.1786C96.9654 43.2946 96.9029 43.3571 96.7868 43.3571C96.6708 43.3571 96.6083 43.4196 96.6083 43.5357C96.6083 43.6875 96.5458 43.7143 96.2511 43.7143C95.9565 43.7143 95.894 43.7411 95.894 43.8929C95.894 44.0089 95.8315 44.0714 95.7154 44.0714C95.5993 44.0714 95.5368 44.1339 95.5368 44.25C95.5368 44.3661 95.4743 44.4286 95.3583 44.4286C95.2422 44.4286 95.1797 44.4911 95.1797 44.6071C95.1797 44.7232 95.1172 44.7857 95.0011 44.7857C94.885 44.7857 94.8225 44.7232 94.8225 44.6071C94.8225 44.4911 94.76 44.4286 94.644 44.4286C94.5279 44.4286 94.4654 44.3661 94.4654 44.25C94.4654 44.1339 94.4029 44.0714 94.2868 44.0714C94.1708 44.0714 94.1083 44.0089 94.1083 43.8929C94.1083 43.7768 94.0458 43.7143 93.9297 43.7143C93.8136 43.7143 93.7511 43.6518 93.7511 43.5357C93.7511 43.4196 93.6886 43.3571 93.5725 43.3571C93.4565 43.3571 93.394 43.2946 93.394 43.1786C93.394 43.0625 93.3315 43 93.2154 43C93.0993 43 93.0368 42.9375 93.0368 42.8214C93.0368 42.7054 92.9743 42.6429 92.8583 42.6429C92.7422 42.6429 92.6797 42.5804 92.6797 42.4643C92.6797 42.3482 92.6172 42.2857 92.5011 42.2857C92.385 42.2857 92.3225 42.2232 92.3225 42.1071C92.3225 41.9911 92.26 41.9286 92.144 41.9286C92.0279 41.9286 91.9654 41.8661 91.9654 41.75C91.9654 41.6339 91.9029 41.5714 91.7868 41.5714C91.6708 41.5714 91.6083 41.5089 91.6083 41.3929C91.6083 41.2768 91.5458 41.2143 91.4297 41.2143C91.3136 41.2143 91.2511 41.1518 91.2511 41.0357C91.2511 40.9196 91.1886 40.8571 91.0725 40.8571C90.9565 40.8571 90.894 40.7946 90.894 40.6786C90.894 40.5625 90.8315 40.5 90.7154 40.5C90.5636 40.5 90.5368 40.4375 90.5368 40.1429V39.7857H90.1797C89.885 39.7857 89.8225 39.7589 89.8225 39.6071C89.8225 39.4911 89.76 39.4286 89.644 39.4286C89.4922 39.4286 89.4654 39.3661 89.4654 39.0714C89.4654 38.7768 89.4386 38.7143 89.2868 38.7143C89.1708 38.7143 89.1083 38.6518 89.1083 38.5357C89.1083 38.4196 89.0458 38.3571 88.9297 38.3571C88.8136 38.3571 88.7511 38.2946 88.7511 38.1786C88.7511 38.0625 88.6886 38 88.5725 38C88.4565 38 88.394 37.9375 88.394 37.8214C88.394 37.7054 88.4565 37.6429 88.5725 37.6429C88.6886 37.6429 88.7511 37.5804 88.7511 37.4643C88.7511 37.3125 88.8136 37.2857 89.1083 37.2857C89.4029 37.2857 89.4654 37.2589 89.4654 37.1071C89.4654 36.9911 89.5279 36.9286 89.644 36.9286C89.76 36.9286 89.8225 36.8661 89.8225 36.75C89.8225 36.6339 89.885 36.5714 90.0011 36.5714C90.1172 36.5714 90.1797 36.5089 90.1797 36.3929C90.1797 36.2768 90.2422 36.2143 90.3583 36.2143C90.4743 36.2143 90.5368 36.1518 90.5368 36.0357C90.5368 35.9196 90.5993 35.8571 90.7154 35.8571C90.8315 35.8571 90.894 35.7946 90.894 35.6786C90.894 35.5625 90.9565 35.5 91.0725 35.5C91.1886 35.5 91.2511 35.4375 91.2511 35.3214C91.2511 35.1696 91.3136 35.1429 91.6083 35.1429C91.9029 35.1429 91.9654 35.1161 91.9654 34.9643C91.9654 34.8482 92.0279 34.7857 92.144 34.7857C92.26 34.7857 92.3225 34.7232 92.3225 34.6071C92.3225 34.4911 92.385 34.4286 92.5011 34.4286C92.6172 34.4286 92.6797 34.3661 92.6797 34.25C92.6797 34.1339 92.7422 34.0714 92.8583 34.0714C92.9743 34.0714 93.0368 34.0089 93.0368 33.8929C93.0368 33.7411 93.0993 33.7143 93.394 33.7143C93.6886 33.7143 93.7511 33.6875 93.7511 33.5357C93.7511 33.4196 93.8136 33.3571 93.9297 33.3571C94.0458 33.3571 94.1083 33.2946 94.1083 33.1786C94.1083 33.0625 94.1708 33 94.2868 33C94.4029 33 94.4654 32.9375 94.4654 32.8214C94.4654 32.7054 94.5279 32.6429 94.644 32.6429C94.76 32.6429 94.8225 32.7054 94.8225 32.8214Z" fill="white"/>
</g>
<defs>
<filter id="filter0_d" x="58.9909" y="21.3333" width="57.0224" height="31.6667" color-interpolation-filters="sRGB">
<feFlood flood-opacity="0" result="BackgroundImageFix"/>
<feColorMatrix in="SourceAlpha" type="matrix" values="0 0 0 0 0 0 0 0 0 0 0 0 0 0 0 0 0 0 127 0"/>
<feOffset dy="1.66667"/>
<feGaussianBlur stdDeviation="1.66667"/>
<feColorMatrix type="matrix" values="0 0 0 0 0 0 0 0 0 0 0 0 0 0 0 0 0 0 0.1 0"/>
<feBlend mode="normal" in2="BackgroundImageFix" result="effect1_dropShadow"/>
<feBlend mode="normal" in="SourceGraphic" in2="effect1_dropShadow" result="shape"/>
</filter>
</defs>
</svg>
