<svg width="168" height="67" viewBox="0 0 168 67" fill="none" xmlns="http://www.w3.org/2000/svg">
<path d="M125.46 28.8688H123.615V26.6442C123.615 26.5264 123.563 26.4176 123.471 26.3458C123.383 26.276 123.268 26.2512 123.16 26.2784L121.538 26.6782C121.372 26.7192 121.255 26.8696 121.255 27.0442V28.8688H120.331C120.127 28.8688 119.961 29.0384 119.961 29.2469V30.5931C119.961 30.8017 120.127 30.9714 120.331 30.9714H121.255V36.403C121.276 38.7118 122.752 39.0299 124.343 39.0299C124.5 39.0299 124.658 39.0255 124.817 39.0206C124.978 39.0158 125.142 39.0108 125.311 39.0108L125.329 39.0096C125.546 38.9817 125.681 38.8299 125.681 38.6134V37.1708C125.681 36.9623 125.515 36.7929 125.311 36.7929H124.753C123.944 36.7929 123.615 36.4343 123.615 35.5554V30.9714H125.46C125.664 30.9714 125.829 30.8017 125.829 30.5931V29.2469C125.829 29.0384 125.664 28.8688 125.46 28.8688Z" fill="white"/>
<path d="M115.538 28.7148C114.572 28.7148 113.816 29.0128 113.285 29.6009V29.2468C113.285 29.0312 113.126 28.8687 112.914 28.8687H111.203C110.991 28.8687 110.832 29.0312 110.832 29.2468V38.6133C110.832 38.8289 110.991 38.9916 111.203 38.9916H112.914C113.126 38.9916 113.285 38.8289 113.285 38.6133V32.7472C113.285 31.662 113.944 30.9327 114.924 30.9327C115.908 30.9327 116.545 31.6525 116.545 32.7664V38.6133C116.545 38.8289 116.704 38.9916 116.915 38.9916H118.627C118.838 38.9916 118.998 38.8289 118.998 38.6133V32.3049C118.998 30.124 117.64 28.7148 115.538 28.7148Z" fill="white"/>
<path d="M106.907 32.9268H103.263C103.285 32.605 103.326 32.3804 103.399 32.1834L103.403 32.1732C103.64 31.3616 104.209 30.9327 105.048 30.9327C105.951 30.9327 106.591 31.4247 106.806 32.2924C106.852 32.4331 106.887 32.6598 106.907 32.9268ZM105.048 28.7148C103.06 28.7148 101.553 29.8404 101.018 31.7225C100.843 32.2842 100.768 32.9853 100.788 33.8626C100.788 34.9413 100.932 35.8094 101.226 36.5128C101.878 38.1845 103.3 39.1263 105.232 39.1644C105.256 39.1648 105.279 39.1649 105.303 39.1649C106.912 39.1649 108.291 38.4989 109.098 37.3275C109.212 37.1504 109.182 36.973 109.014 36.8278L107.861 35.8477C107.753 35.7551 107.654 35.7465 107.588 35.7541C107.52 35.763 107.418 35.8013 107.327 35.9337C106.868 36.6059 106.233 36.9465 105.441 36.9465C104.361 36.9291 103.675 36.4913 103.396 35.6306C103.314 35.4441 103.278 35.1732 103.247 34.8756H109.011C109.232 34.8756 109.381 34.7247 109.382 34.4996C109.401 33.8497 109.399 33.3393 109.325 32.8073C109.012 30.0916 107.573 28.7148 105.048 28.7148Z" fill="white"/>
<path d="M96.8832 33.8441C96.8832 34.9047 96.8431 35.1783 96.7576 35.5145C96.5627 36.3196 95.9732 36.7814 95.1398 36.7814C94.316 36.7814 93.6757 36.2974 93.4233 35.477C93.3435 35.2702 93.2481 34.8226 93.2481 33.8632C93.2481 33.105 93.3153 32.587 93.4629 32.2237C93.7354 31.3991 94.3399 30.9261 95.1212 30.9261C95.9486 30.9261 96.5533 31.4063 96.7408 32.2185C96.8419 32.5675 96.8832 32.8122 96.8832 33.8441ZM98.9581 28.869H97.2528C97.0421 28.869 96.8832 29.0311 96.8832 29.2462V29.5004C96.3171 28.9727 95.5808 28.7158 94.6393 28.7158C92.9734 28.7158 91.6129 29.7387 91.09 31.3816C90.8198 32.155 90.7852 33.1142 90.7852 33.8632C90.7852 34.8464 90.8633 35.5951 91.0324 36.2238C91.6219 38.1941 93.3492 38.8958 94.769 38.8958C95.6538 38.8958 96.3645 38.646 96.8829 38.1545C96.8733 38.9779 96.6578 39.5705 96.225 39.9649C95.6582 40.4813 94.699 40.6671 93.2784 40.5337C92.9112 40.5337 92.8717 40.7839 92.8717 40.8863L92.8161 42.4627C92.8161 42.6832 92.9402 42.8308 93.1519 42.8584C93.5037 42.8948 93.8459 42.9131 94.1763 42.9131C95.7651 42.9131 97.0882 42.4948 97.9675 41.7015C98.8699 40.8868 99.3275 39.6936 99.3275 38.1548V29.2462C99.3275 29.0311 99.1686 28.869 98.9581 28.869Z" fill="white"/>
<path d="M89.9522 28.9089C89.6922 28.8046 89.4056 28.7539 89.0759 28.7539C88.2005 28.7539 87.4877 29.1103 86.9528 29.814V29.2474C86.9528 29.039 86.7866 28.8692 86.5823 28.8692H84.8704C84.6661 28.8692 84.5 29.0387 84.5 29.2473V38.6138C84.5 38.8224 84.6662 38.9921 84.8705 38.9921H86.5823C86.7866 38.9921 86.9528 38.8224 86.9528 38.6138V33.1709C86.9528 31.9974 87.7989 31.4234 88.6498 31.3742C88.9451 31.3326 89.1123 31.3462 89.3007 31.3836C89.5111 31.4253 89.7097 31.2961 89.7567 31.0892L90.2108 29.4182C90.2569 29.2056 90.1457 28.9865 89.9522 28.9089Z" fill="white"/>
<path d="M80.3218 34.6063V35.4591C80.3218 36.4745 79.2708 37.0813 78.2545 37.0813C77.5701 37.0813 76.8386 36.7814 76.8386 35.9398C76.8386 35.0924 77.5581 34.6063 78.8127 34.6063H80.3218ZM78.7012 28.7148C76.8099 28.7148 75.3002 29.5827 74.855 30.9258C74.8171 31.0401 74.8303 31.1641 74.8907 31.2665C74.9473 31.3623 75.0409 31.429 75.1483 31.4502L76.8357 31.8741C77.0124 31.9067 77.1884 31.8117 77.2563 31.6483C77.4493 31.1869 77.9821 30.9327 78.757 30.9327C79.7806 30.9327 80.3218 31.4271 80.3218 32.3626V32.773H78.3848C75.8692 32.773 74.3672 34.0144 74.3672 36.0939C74.3672 38.3437 76.0967 39.1453 77.7151 39.1453C78.8005 39.1453 79.6976 38.822 80.3218 38.2107V38.6133C80.3218 38.8219 80.488 38.9914 80.6923 38.9914H82.404C82.6083 38.9914 82.7746 38.8219 82.7746 38.6133V32.1319C82.7746 30.1199 81.0996 28.7148 78.7012 28.7148Z" fill="white"/>
<path d="M59.2699 21.1211H52.4038C52.1744 21.1211 51.9906 21.3118 51.9855 21.549C51.8468 28.2139 48.4733 34.5396 42.6668 39.0203C42.4824 39.1624 42.4404 39.4297 42.5752 39.6222L46.5925 45.3636C46.7291 45.559 46.9954 45.6032 47.1829 45.4596C50.8136 42.6764 53.7338 39.3187 55.8369 35.5972C57.9399 39.3187 60.8604 42.6764 64.4911 45.4596C64.6784 45.6032 64.9447 45.559 65.0815 45.3636L69.0988 39.6222C69.2334 39.4297 69.1914 39.1624 69.0072 39.0203C63.2005 34.5396 59.827 28.2139 59.6884 21.549C59.6834 21.3118 59.4994 21.1211 59.2699 21.1211Z" fill="white"/>
</svg>
