<svg width="163" height="65" viewBox="0 0 163 65" fill="none" xmlns="http://www.w3.org/2000/svg">
<g filter="url(#filter0_d)">
<g clip-path="url(#clip0)">
<path fill-rule="evenodd" clip-rule="evenodd" d="M34.4928 33.9824C35.9136 34.3473 37.5906 34.5581 39.3869 34.5581C41.1831 34.5581 42.8602 34.3473 44.2809 33.9824C47.5499 34.5799 49.7737 35.7575 49.7737 37.1124C49.7737 39.0717 45.1234 40.6601 39.3869 40.6601C33.6504 40.6601 29 39.0717 29 37.1124C29 35.7575 31.2238 34.5799 34.4928 33.9824Z" fill="white"/>
<path fill-rule="evenodd" clip-rule="evenodd" d="M35.7447 28.2363C36.8115 28.5045 38.0568 28.6584 39.387 28.6584C40.7171 28.6584 41.9625 28.5045 43.0293 28.2363C45.8058 28.6938 47.7193 29.6581 47.7193 30.7736C47.7193 32.3312 43.9888 33.5939 39.387 33.5939C34.7852 33.5939 31.0547 32.3312 31.0547 30.7736C31.0547 29.6581 32.9681 28.6938 35.7447 28.2363Z" fill="white"/>
<path d="M39.4233 27.7706C42.8694 27.7706 45.663 26.8146 45.663 25.6353C45.663 24.456 42.8694 23.5 39.4233 23.5C35.9772 23.5 33.1836 24.456 33.1836 25.6353C33.1836 26.8146 35.9772 27.7706 39.4233 27.7706Z" fill="white"/>
<path d="M55.6367 39.1438V24.3324H60.2658C61.1572 24.3324 61.9253 24.422 62.5702 24.6011C63.2151 24.7803 63.7452 25.0352 64.1604 25.366C64.5757 25.6967 64.883 26.1015 65.0822 26.5804C65.2814 27.0593 65.3811 27.5985 65.3811 28.198C65.3811 28.5632 65.3254 28.9146 65.2139 29.2523C65.1025 29.5899 64.9337 29.9034 64.7075 30.1928C64.4812 30.4823 64.1976 30.7406 63.8566 30.968C63.5156 31.1954 63.1155 31.3815 62.6563 31.5262C63.7165 31.7398 64.5167 32.1291 65.0569 32.6942C65.5971 33.2592 65.8672 34.0034 65.8672 34.9267C65.8672 35.5538 65.7541 36.1257 65.5279 36.6424C65.3017 37.1593 64.9708 37.6037 64.5353 37.9758C64.0997 38.3479 63.5662 38.6356 62.9348 38.8389C62.3035 39.0421 61.5826 39.1438 60.7722 39.1438H55.6367ZM57.6018 32.3944V37.552H60.7418C61.3024 37.552 61.7835 37.4866 62.1853 37.3557C62.587 37.2247 62.9179 37.0404 63.1779 36.8026C63.4379 36.565 63.6286 36.2824 63.7502 35.9551C63.8717 35.6278 63.9326 35.2678 63.9326 34.875C63.9326 34.1102 63.6675 33.5056 63.1374 33.061C62.6073 32.6166 61.8054 32.3944 60.7317 32.3944H57.6018ZM57.6018 30.968H60.1949C60.7486 30.968 61.2281 30.906 61.6332 30.782C62.0384 30.658 62.3744 30.4857 62.6411 30.2652C62.9078 30.0447 63.1053 29.7777 63.2337 29.4642C63.3619 29.1506 63.4261 28.8078 63.4261 28.4357C63.4261 27.5675 63.1695 26.9301 62.6563 26.5236C62.143 26.117 61.3463 25.9138 60.2658 25.9138H57.6018V30.968ZM76.3155 39.1438H75.5152C75.3397 39.1438 75.1979 39.1162 75.0899 39.061C74.9817 39.0059 74.9109 38.8888 74.8771 38.7096L74.6746 37.738C74.4044 37.9861 74.1411 38.2084 73.8845 38.4047C73.6278 38.6011 73.3578 38.7665 73.0741 38.9008C72.7905 39.0352 72.4883 39.1369 72.1676 39.2058C71.8468 39.2746 71.4906 39.3091 71.0989 39.3091C70.7005 39.3091 70.3274 39.2523 69.9796 39.1386C69.6319 39.0249 69.3297 38.8544 69.0731 38.627C68.8165 38.3996 68.6122 38.1119 68.4602 37.7639C68.3084 37.4159 68.2323 37.0042 68.2323 36.5288C68.2323 36.1153 68.3438 35.7174 68.5666 35.335C68.7894 34.9525 69.149 34.6132 69.6454 34.3168C70.1418 34.0206 70.7917 33.7777 71.5953 33.5882C72.3988 33.3987 73.3814 33.2902 74.5428 33.2626V32.446C74.5428 31.633 74.3723 31.018 74.0313 30.6011C73.6903 30.1842 73.1856 29.9758 72.517 29.9758C72.078 29.9758 71.7084 30.0326 71.4079 30.1463C71.1073 30.26 70.8474 30.3875 70.6279 30.5288C70.4085 30.67 70.2194 30.7975 70.0607 30.9112C69.902 31.0249 69.745 31.0817 69.5897 31.0817C69.4682 31.0817 69.3617 31.049 69.2706 30.9835C69.1794 30.9181 69.1069 30.8371 69.0529 30.7406L68.7287 30.1515C69.296 29.5934 69.9071 29.1765 70.5621 28.9009C71.2171 28.6252 71.943 28.4874 72.7399 28.4874C73.3138 28.4874 73.8236 28.5839 74.2693 28.7768C74.715 28.9698 75.0899 29.2385 75.3937 29.583C75.6976 29.9276 75.9272 30.3444 76.0825 30.8337C76.2378 31.3229 76.3155 31.8604 76.3155 32.446V39.1438ZM71.6358 38.0171C71.9531 38.0171 72.2435 37.9844 72.5069 37.919C72.7703 37.8535 73.0184 37.7605 73.2513 37.6399C73.4844 37.5193 73.7072 37.3729 73.9199 37.2006C74.1326 37.0283 74.3402 36.832 74.5428 36.6115V34.4306C73.7123 34.4582 73.0066 34.5253 72.4259 34.6321C71.8451 34.7389 71.3724 34.8784 71.0078 35.0507C70.6431 35.223 70.378 35.4262 70.2126 35.6606C70.0472 35.8948 69.9644 36.1567 69.9644 36.4461C69.9644 36.7217 70.0084 36.9594 70.0961 37.1593C70.1839 37.3591 70.3021 37.5227 70.4506 37.6502C70.5992 37.7777 70.7748 37.8707 70.9774 37.9293C71.18 37.9879 71.3994 38.0171 71.6358 38.0171ZM81.375 23.9189V39.1438H79.5719V23.9189H81.375ZM92.4107 39.1438H91.6105C91.4349 39.1438 91.2931 39.1162 91.185 39.061C91.077 39.0059 91.0061 38.8888 90.9723 38.7096L90.7697 37.738C90.4997 37.9861 90.2363 38.2084 89.9797 38.4047C89.7231 38.6011 89.4529 38.7665 89.1693 38.9008C88.8857 39.0352 88.5835 39.1369 88.2627 39.2058C87.942 39.2746 87.5858 39.3091 87.1942 39.3091C86.7958 39.3091 86.4226 39.2523 86.0749 39.1386C85.7271 39.0249 85.4249 38.8544 85.1683 38.627C84.9117 38.3996 84.7074 38.1119 84.5555 37.7639C84.4035 37.4159 84.3276 37.0042 84.3276 36.5288C84.3276 36.1153 84.439 35.7174 84.6618 35.335C84.8847 34.9525 85.2443 34.6132 85.7406 34.3168C86.2369 34.0206 86.8869 33.7777 87.6904 33.5882C88.4941 33.3987 89.4766 33.2902 90.6381 33.2626V32.446C90.6381 31.633 90.4676 31.018 90.1265 30.6011C89.7855 30.1842 89.2807 29.9758 88.6123 29.9758C88.1733 29.9758 87.8036 30.0326 87.5031 30.1463C87.2026 30.26 86.9426 30.3875 86.7231 30.5288C86.5037 30.67 86.3146 30.7975 86.1559 30.9112C85.9972 31.0249 85.8402 31.0817 85.6849 31.0817C85.5633 31.0817 85.457 31.049 85.3658 30.9835C85.2747 30.9181 85.202 30.8371 85.148 30.7406L84.8239 30.1515C85.3911 29.5934 86.0023 29.1765 86.6573 28.9009C87.3124 28.6252 88.0382 28.4874 88.8351 28.4874C89.4091 28.4874 89.9189 28.5839 90.3646 28.7768C90.8103 28.9698 91.185 29.2385 91.4889 29.583C91.7928 29.9276 92.0224 30.3444 92.1777 30.8337C92.333 31.3229 92.4107 31.8604 92.4107 32.446V39.1438ZM87.731 38.0171C88.0484 38.0171 88.3388 37.9844 88.6021 37.919C88.8654 37.8535 89.1137 37.7605 89.3466 37.6399C89.5796 37.5193 89.8024 37.3729 90.0151 37.2006C90.2278 37.0283 90.4355 36.832 90.6381 36.6115V34.4306C89.8075 34.4582 89.1018 34.5253 88.521 34.6321C87.9403 34.7389 87.4677 34.8784 87.1029 35.0507C86.7383 35.223 86.4733 35.4262 86.3078 35.6606C86.1424 35.8948 86.0597 36.1567 86.0597 36.4461C86.0597 36.7217 86.1036 36.9594 86.1914 37.1593C86.2792 37.3591 86.3973 37.5227 86.5459 37.6502C86.6945 37.7777 86.87 37.8707 87.0726 37.9293C87.2751 37.9879 87.4946 38.0171 87.731 38.0171ZM95.4646 39.1438V28.6735H96.5382C96.7949 28.6735 96.957 28.8009 97.0245 29.0559L97.1663 30.1928C97.612 29.6898 98.11 29.2833 98.6603 28.9732C99.2107 28.6631 99.8472 28.5081 100.57 28.5081C101.13 28.5081 101.625 28.6028 102.054 28.7923C102.482 28.9818 102.84 29.2506 103.127 29.5985C103.414 29.9465 103.632 30.3651 103.781 30.8543C103.929 31.3436 104.003 31.8845 104.003 32.4771V39.1438H102.201V32.4771C102.201 31.6847 102.023 31.0697 101.669 30.6321C101.314 30.1946 100.772 29.9758 100.043 29.9758C99.5095 29.9758 99.0115 30.1067 98.549 30.3686C98.0864 30.6304 97.6592 30.9853 97.2676 31.4332V39.1438H95.4646ZM114.047 30.5339C113.992 30.6097 113.938 30.6683 113.885 30.7096C113.83 30.751 113.753 30.7717 113.651 30.7717C113.55 30.7717 113.44 30.7286 113.323 30.6425C113.204 30.5563 113.054 30.4616 112.872 30.3582C112.689 30.2549 112.468 30.1601 112.208 30.074C111.948 29.9879 111.629 29.9448 111.251 29.9448C110.751 29.9448 110.309 30.0361 109.924 30.2187C109.539 30.4013 109.217 30.6649 108.957 31.0094C108.697 31.3539 108.501 31.7708 108.369 32.26C108.237 32.7493 108.172 33.2971 108.172 33.9034C108.172 34.5374 108.243 35.1007 108.384 35.5934C108.526 36.0861 108.725 36.4995 108.982 36.8337C109.239 37.1679 109.551 37.4228 109.919 37.5985C110.287 37.7742 110.701 37.8621 111.16 37.8621C111.599 37.8621 111.96 37.8087 112.244 37.7019C112.527 37.5951 112.764 37.4763 112.953 37.3453C113.142 37.2144 113.297 37.0955 113.418 36.9887C113.54 36.8819 113.662 36.8285 113.783 36.8285C113.938 36.8285 114.054 36.8871 114.127 37.0042L114.634 37.6761C114.189 38.2342 113.631 38.6425 112.963 38.9008C112.294 39.1593 111.589 39.2884 110.846 39.2884C110.204 39.2884 109.608 39.1678 109.058 38.9267C108.508 38.6855 108.03 38.3358 107.625 37.8776C107.22 37.4194 106.9 36.856 106.667 36.1876C106.434 35.5193 106.318 34.7579 106.318 33.9034C106.318 33.1248 106.424 32.4047 106.637 31.7432C106.85 31.0817 107.16 30.5115 107.569 30.0326C107.978 29.5537 108.482 29.1799 109.083 28.9112C109.684 28.6425 110.373 28.5081 111.15 28.5081C111.865 28.5081 112.5 28.627 113.054 28.8647C113.607 29.1024 114.097 29.4383 114.522 29.8724L114.047 30.5339ZM120.889 28.5081C121.503 28.5081 122.07 28.6132 122.59 28.8233C123.11 29.0335 123.56 29.3367 123.938 29.7329C124.316 30.1291 124.611 30.6183 124.824 31.2006C125.037 31.7829 125.143 32.446 125.143 33.1903C125.143 33.4797 125.113 33.6726 125.052 33.769C124.991 33.8656 124.876 33.9138 124.707 33.9138H117.881C117.894 34.5753 117.981 35.1507 118.143 35.6398C118.306 36.1291 118.529 36.5374 118.812 36.8647C119.096 37.192 119.434 37.4366 119.825 37.5985C120.217 37.7605 120.656 37.8414 121.142 37.8414C121.594 37.8414 121.985 37.788 122.312 37.6812C122.639 37.5744 122.921 37.459 123.157 37.335C123.394 37.2109 123.592 37.0955 123.75 36.9887C123.909 36.8819 124.046 36.8285 124.16 36.8285C124.309 36.8285 124.424 36.8871 124.505 37.0042L125.011 37.6761C124.789 37.9516 124.522 38.1911 124.211 38.3944C123.901 38.5977 123.568 38.7648 123.214 38.8957C122.859 39.0266 122.493 39.1248 122.114 39.1903C121.736 39.2557 121.362 39.2884 120.99 39.2884C120.281 39.2884 119.628 39.1661 119.031 38.9215C118.432 38.677 117.916 38.3186 117.481 37.8466C117.045 37.3746 116.705 36.7906 116.463 36.0946C116.219 35.3987 116.098 34.5994 116.098 33.6967C116.098 32.9663 116.207 32.2841 116.427 31.6502C116.647 31.0163 116.962 30.4667 117.374 30.0016C117.786 29.5365 118.289 29.1713 118.884 28.906C119.477 28.6407 120.146 28.5081 120.889 28.5081ZM120.929 29.8621C120.058 29.8621 119.373 30.1188 118.873 30.6321C118.374 31.1455 118.063 31.8569 117.941 32.7665H123.522C123.522 32.3392 123.465 31.9482 123.35 31.5934C123.236 31.2385 123.067 30.9319 122.844 30.6735C122.621 30.4151 122.349 30.2152 122.028 30.074C121.708 29.9327 121.341 29.8621 120.929 29.8621ZM127.761 39.1438V28.6735H128.795C128.99 28.6735 129.126 28.7114 129.2 28.7872C129.274 28.863 129.325 28.9939 129.352 29.1799L129.473 30.813C129.825 30.0826 130.258 29.5124 130.775 29.1024C131.291 28.6924 131.898 28.4874 132.593 28.4874C132.877 28.4874 133.133 28.5202 133.363 28.5856C133.593 28.6511 133.805 28.7424 134.001 28.8595L133.768 30.2342C133.72 30.4065 133.616 30.4926 133.454 30.4926C133.359 30.4926 133.214 30.4599 133.018 30.3944C132.822 30.3289 132.549 30.2962 132.198 30.2962C131.57 30.2962 131.045 30.4823 130.623 30.8543C130.201 31.2264 129.848 31.7674 129.564 32.4771V39.1438H127.761Z" fill="white"/>
</g>
</g>
<defs>
<filter id="filter0_d" x="-3.33333" y="-1.66667" width="169.667" height="71.6667" filterUnits="userSpaceOnUse" color-interpolation-filters="sRGB">
<feFlood flood-opacity="0" result="BackgroundImageFix"/>
<feColorMatrix in="SourceAlpha" type="matrix" values="0 0 0 0 0 0 0 0 0 0 0 0 0 0 0 0 0 0 127 0"/>
<feOffset dy="1.66667"/>
<feGaussianBlur stdDeviation="1.66667"/>
<feColorMatrix type="matrix" values="0 0 0 0 0 0 0 0 0 0 0 0 0 0 0 0 0 0 0.1 0"/>
<feBlend mode="normal" in2="BackgroundImageFix" result="effect1_dropShadow"/>
<feBlend mode="normal" in="SourceGraphic" in2="effect1_dropShadow" result="shape"/>
</filter>
<clipPath id="clip0">
<rect width="105" height="18" fill="white" transform="translate(29 23.5)"/>
</clipPath>
</defs>
</svg>
