<svg width="168" height="68" viewBox="0 0 168 68" fill="none" xmlns="http://www.w3.org/2000/svg">
<path d="M26.9206 34.1673L24.0989 36.9901L21.25 34.1673L24.0979 31.3195L26.9206 34.1673ZM33.8187 27.2692L38.6786 32.1291L41.5275 29.2823L33.8187 21.5986L26.1099 29.3074L28.9588 32.1543L33.8187 27.2692ZM43.5396 31.3195L40.7168 34.1673L43.5647 37.0152L46.4115 34.1673L43.5396 31.3195ZM33.8187 41.0655L28.9588 36.1804L26.1099 39.0283L33.8187 46.736L41.5275 39.0272L38.6786 36.1804L33.8187 41.0655ZM33.8187 36.9911L36.6666 34.1422L33.8187 31.3205L30.9708 34.1673L33.8187 36.9901V36.9911ZM63.7678 37.2844V37.2362C63.7678 35.3949 62.7854 34.4617 61.1902 33.8479C62.1716 33.3085 63.0064 32.4234 63.0064 30.8775V30.8293C63.0064 28.6685 61.2635 27.2692 58.4649 27.2692H52.058V41.0414H58.6126C61.7296 41.0655 63.7678 39.7887 63.7678 37.2854V37.2844ZM59.9868 31.3938C59.9868 32.4245 59.152 32.8413 57.8019 32.8413H55.0043V29.9202H57.9988C59.2756 29.9202 59.9868 30.4355 59.9868 31.3446V31.3938ZM60.7482 36.8927C60.7482 37.9233 59.9386 38.3904 58.6115 38.3904H55.0043V35.3697H58.5141C60.0611 35.3697 60.7482 35.9353 60.7482 36.8675V36.8927ZM70.1255 41.0655V27.2692H67.0818V41.0414H70.1255V41.0655ZM86.4261 41.0655V27.2692H83.4305V35.7636L76.9744 27.2692H74.1758V41.0414H77.1713V32.3019L83.8485 41.0655H86.425H86.4261ZM103.216 41.0655L97.3012 27.1959H94.5036L88.5869 41.0655H91.7049L92.9566 37.9725H98.7748L100.026 41.0655H103.218H103.216ZM97.6929 35.2964H94.0354L95.8767 30.8293L97.6929 35.2964ZM117.676 41.0655V27.2692H114.681V35.7636L108.224 27.2692H105.426V41.0414H108.421V32.3019L115.098 41.0655H117.675H117.676ZM133.313 38.8314L131.374 36.8927C130.293 37.8741 129.336 38.5119 127.74 38.5119C125.384 38.5119 123.739 36.5481 123.739 34.1914V34.1181C123.739 31.7615 125.408 29.8228 127.74 29.8228C129.115 29.8228 130.196 30.4114 131.275 31.3687L133.214 29.1346C131.938 27.883 130.391 26.999 127.79 26.999C123.568 26.999 120.597 30.2145 120.597 34.1181V34.1673C120.597 38.1192 123.616 41.2613 127.667 41.2613C130.318 41.2865 131.889 40.3532 133.313 38.8314ZM146.25 41.0655V38.3653H138.762V35.4682H145.268V32.768H138.762V29.9694H146.152V27.2692H135.768V41.0414H146.25V41.0655Z" fill="white"/>
</svg>
