<svg width="174" height="74" viewBox="0 0 174 74" fill="none" xmlns="http://www.w3.org/2000/svg">
<g filter="url(#filter0_d)">
<path d="M77.9091 32.5932C77.6344 31.5225 76.9419 30.739 75.5878 30.739C73.5895 30.739 72.7538 32.5013 72.7538 34.2897C72.7538 36.0781 73.5895 37.8413 75.5878 37.8413C77.0386 37.8413 77.8337 36.7581 77.9633 35.4001H79.5563C79.4257 37.6324 77.8462 39.1722 75.5907 39.1722C72.7964 39.1722 71.125 36.9525 71.125 34.2887C71.125 31.625 72.7906 29.4014 75.5849 29.4014C77.6866 29.4139 79.3445 30.5765 79.5408 32.5874L77.9091 32.5932Z" fill="white"/>
<path d="M80.5195 35.5643C80.5195 33.5013 81.7595 32.0137 83.9271 32.0137C86.0946 32.0137 87.3346 33.5013 87.3346 35.5643C87.3346 37.6274 86.0946 39.1295 83.9271 39.1295C81.7595 39.1295 80.5195 37.641 80.5195 35.5643ZM85.846 35.5643C85.846 34.4037 85.2589 33.1888 83.9271 33.1888C82.5952 33.1888 82.0081 34.4027 82.0081 35.5643C82.0081 36.726 82.5952 37.9543 83.9271 37.9543C85.2589 37.9543 85.846 36.7395 85.846 35.5643Z" fill="white"/>
<path d="M88.6133 29.624H90.1018V31.0342H88.6133V29.624ZM88.6133 32.1968H90.1018V38.9471H88.6133V32.1968Z" fill="white"/>
<path d="M91.7227 32.1965H93.1329V33.1889L93.159 33.215C93.3728 32.8474 93.6798 32.5427 94.049 32.3316C94.4181 32.1205 94.8365 32.0105 95.2617 32.0127C96.7242 32.0127 97.6508 32.7962 97.6508 34.3099V38.9458H96.1622V34.7026C96.1361 33.6454 95.7183 33.1889 94.8439 33.1889C93.8515 33.1889 93.2112 33.9714 93.2112 34.9637V38.9467H91.7227V32.1965Z" fill="white"/>
<path d="M107.561 38.9469H106.516L106.269 37.8501C105.398 38.8424 104.597 39.1684 103.464 39.1684C100.671 39.1703 98.9961 36.9457 98.9961 34.2849C98.9961 31.624 100.671 29.4014 103.462 29.4014C105.493 29.4014 107.209 30.4847 107.456 32.5874H105.863C105.707 31.36 104.637 30.7332 103.462 30.7332C101.463 30.7332 100.628 32.4955 100.628 34.2839C100.628 36.0723 101.463 37.8355 103.462 37.8355C105.132 37.8617 106.046 36.8567 106.073 35.2763H103.592V34.0373H107.558L107.561 38.9469Z" fill="white"/>
<path d="M110.289 35.9561C110.289 37.0142 110.864 37.9543 112.104 37.9543C112.966 37.9543 113.488 37.5752 113.748 36.8314H115.159C114.833 38.3064 113.58 39.1295 112.104 39.1295C109.989 39.1295 108.801 37.6535 108.801 35.5779C108.801 33.6579 110.058 32.0137 112.065 32.0137C114.193 32.0137 115.499 33.9326 115.251 35.9561H110.289ZM113.763 34.9772C113.71 34.0371 113.07 33.1888 112.065 33.1888C111.033 33.1888 110.329 33.9713 110.289 34.9772H113.763Z" fill="white"/>
<path d="M120.947 34.4549C120.829 33.6318 120.228 33.1888 119.406 33.1888C118.632 33.1888 117.552 33.5931 117.552 35.6427C117.552 36.7656 118.048 37.9543 119.34 37.9543C120.202 37.9543 120.803 37.3798 120.947 36.4136H122.436C122.161 38.1633 121.081 39.1295 119.34 39.1295C117.225 39.1295 116.062 37.6274 116.062 35.6427C116.062 33.6057 117.174 32.0137 119.393 32.0137C120.96 32.0137 122.294 32.7971 122.436 34.4549H120.947Z" fill="white"/>
<path d="M123.691 29.624H125.18V34.9254L127.87 32.1968H129.698L127.112 34.6768L129.945 38.9471H128.127L126.064 35.6692L125.176 36.531V38.949H123.691V29.624Z" fill="white"/>
<path d="M130.348 35.5643C130.348 33.5013 131.588 32.0137 133.755 32.0137C135.923 32.0137 137.164 33.5013 137.164 35.5643C137.164 37.6274 135.923 39.1295 133.755 39.1295C131.588 39.1295 130.348 37.641 130.348 35.5643ZM135.675 35.5643C135.675 34.4037 135.087 33.1888 133.755 33.1888C132.423 33.1888 131.836 34.4027 131.836 35.5643C131.836 36.726 132.423 37.9543 133.755 37.9543C135.087 37.9543 135.675 36.7395 135.675 35.5643Z" fill="white"/>
<path fill-rule="evenodd" clip-rule="evenodd" d="M59.8039 42.2707C61.1511 40.2345 61.8643 37.8445 61.8533 35.4029C61.8382 32.1292 60.5234 28.9954 58.198 26.691C55.8727 24.3865 52.7272 23.1 49.4535 23.1144C47.0119 23.1253 44.6284 23.86 42.6044 25.2256C40.5805 26.5911 39.0069 28.5262 38.0826 30.7861C37.1584 33.046 36.9251 35.5292 37.4122 37.9217C37.7467 39.5648 38.4107 41.1144 39.3556 42.4807C39.3556 42.4808 39.3555 42.4809 39.3555 42.481C41.5289 45.9613 46.6418 48.6642 51.3659 47.6828C51.4762 47.6627 51.5871 47.6407 51.6985 47.617L51.695 47.6084C52.5791 47.4493 53.4476 47.1935 54.2843 46.8424C56.5358 45.8979 58.4566 44.3069 59.8039 42.2707ZM51.695 47.6084V47.6083L51.6992 47.6073C51.1817 43.9947 54.3387 40.4566 56.1174 38.646C56.2851 38.4762 56.4901 38.2798 56.7139 38.0654L56.714 38.0653C57.0169 37.7752 57.3542 37.4521 57.6802 37.117C60.0283 34.946 60.525 32.341 55.7686 31.0456C54.8796 30.7883 53.9583 30.4243 53.0253 30.0557L53.0043 30.0474L53.0031 30.0422L53.0051 30.0436L52.9991 30.0264C52.9831 29.9658 52.957 29.9015 52.92 29.8334C52.352 28.6232 50.8236 28.4762 49.554 28.8713L49.5658 28.8722L49.5532 28.8751C48.4525 28.6159 47.3654 28.524 46.3217 28.7784C41.7607 30.0348 41.0188 32.2579 40.8387 34.9355L40.8089 35.2939C40.5829 38.0232 40.4102 40.1093 39.3556 42.4807C39.7866 43.1038 40.2759 43.6888 40.8191 44.2271C42.5534 45.9458 44.7583 47.1116 47.1551 47.5771C48.6611 47.8696 50.2004 47.8774 51.695 47.6084Z" fill="white"/>
<path fill-rule="evenodd" clip-rule="evenodd" d="M49.7435 33.7448C50.0057 33.3521 50.1455 32.8905 50.1453 32.4184C50.1453 32.1049 50.0836 31.7946 49.9636 31.505C49.8436 31.2154 49.6678 30.9524 49.4461 30.7308C49.2244 30.5092 48.9612 30.3334 48.6716 30.2136C48.382 30.0937 48.0716 30.0321 47.7582 30.0322C47.286 30.0322 46.8245 30.1723 46.4319 30.4346C46.0393 30.6969 45.7334 31.0698 45.5527 31.5061C45.3721 31.9423 45.3248 32.4223 45.417 32.8854C45.5092 33.3485 45.7367 33.7738 46.0706 34.1076C46.4045 34.4414 46.83 34.6687 47.2931 34.7607C47.7562 34.8527 48.2362 34.8053 48.6724 34.6245C49.1085 34.4436 49.4813 34.1375 49.7435 33.7448ZM47.7644 34.1032C48.726 34.1032 49.5054 33.3237 49.5054 32.3622C49.5054 31.4007 48.726 30.6212 47.7644 30.6212C46.8029 30.6212 46.0234 31.4007 46.0234 32.3622C46.0234 33.3237 46.8029 34.1032 47.7644 34.1032Z" fill="white"/>
<path d="M58.6795 35.9411C58.0789 36.4886 57.3641 36.8938 56.6367 37.2517C55.9005 37.6013 55.133 37.8807 54.3444 38.0864C53.5552 38.2905 52.7321 38.4443 51.8983 38.3688C51.0646 38.2934 50.2124 38.01 49.6602 37.3852L49.6863 37.3552C50.3633 37.7943 51.1448 37.9491 51.9225 37.9713C52.7107 37.9953 53.4991 37.9304 54.2728 37.7779C55.0544 37.6143 55.8189 37.3779 56.5564 37.0718C57.2944 36.7671 58.0247 36.4141 58.6534 35.9111L58.6795 35.9411Z" fill="white"/>
</g>
<defs>
<filter id="filter0_d" x="33.8307" y="21.4476" width="106.666" height="31.4387" filterUnits="userSpaceOnUse" color-interpolation-filters="sRGB">
<feFlood flood-opacity="0" result="BackgroundImageFix"/>
<feColorMatrix in="SourceAlpha" type="matrix" values="0 0 0 0 0 0 0 0 0 0 0 0 0 0 0 0 0 0 127 0"/>
<feOffset dy="1.66667"/>
<feGaussianBlur stdDeviation="1.66667"/>
<feColorMatrix type="matrix" values="0 0 0 0 0 0 0 0 0 0 0 0 0 0 0 0 0 0 0.1 0"/>
<feBlend mode="normal" in2="BackgroundImageFix" result="effect1_dropShadow"/>
<feBlend mode="normal" in="SourceGraphic" in2="effect1_dropShadow" result="shape"/>
</filter>
</defs>
</svg>
