<svg width="168" height="68" viewBox="0 0 168 68" fill="none" xmlns="http://www.w3.org/2000/svg">
<path d="M47.635 43.216C44.9117 43.216 42.2461 41.2565 42.2461 36.8332C42.2461 32.3955 44.9117 30.4648 47.635 30.4648C48.975 30.4648 50.0269 30.8106 50.7761 31.3005L49.9548 33.1015C49.4505 32.7413 48.7012 32.5108 47.952 32.5108C46.3094 32.5108 44.8109 33.8075 44.8109 36.8044C44.8109 39.8013 46.3526 41.1269 47.952 41.1269C48.7012 41.1269 49.4505 40.8963 49.9548 40.5361L50.7761 42.3804C49.998 42.899 48.975 43.216 47.635 43.216Z" fill="white"/>
<path d="M57.0139 43.216C53.5414 43.216 51.625 40.4641 51.625 36.8332C51.625 33.2024 53.527 30.4648 57.0139 30.4648C60.4864 30.4648 62.4028 33.188 62.4028 36.8332C62.4028 40.4641 60.4864 43.216 57.0139 43.216ZM57.0139 32.4388C55.0831 32.4388 54.1321 34.1677 54.1321 36.8044C54.1321 39.4411 55.0831 41.1845 57.0139 41.1845C58.9447 41.1845 59.8957 39.4411 59.8957 36.8044C59.8957 34.1677 58.9447 32.4388 57.0139 32.4388Z" fill="white"/>
<path d="M65.7458 28.491C64.9245 28.491 64.2617 27.857 64.2617 27.079C64.2617 26.3009 64.9245 25.667 65.7458 25.667C66.5671 25.667 67.2299 26.3009 67.2299 27.079C67.2299 27.857 66.5527 28.491 65.7458 28.491ZM64.4923 30.7098H66.9994V42.9567H64.4923V30.7098Z" fill="white"/>
<path d="M76.826 42.9567V34.7873C76.826 33.3609 75.9615 32.4676 74.2612 32.4676C73.3535 32.4676 72.5178 32.6261 72.0135 32.8278V42.9711H69.5352V31.3293C70.7599 30.825 72.3305 30.4648 74.2468 30.4648C77.6761 30.4648 79.3331 31.9633 79.3331 34.5567V42.9711H76.826" fill="white"/>
<path d="M85.9178 43.2157C84.3328 43.2157 82.7623 42.8267 81.7969 42.3512V25.1191H84.2752V31.0265C84.866 30.7527 85.8169 30.5222 86.6671 30.5222C89.8226 30.5222 91.9695 32.7987 91.9695 36.5448C91.9695 41.1698 89.5776 43.2157 85.9178 43.2157ZM86.2348 32.4673C85.5576 32.4673 84.7507 32.6258 84.2752 32.8707V40.9104C84.6354 41.0689 85.3414 41.2274 86.0475 41.2274C88.0215 41.2274 89.4768 39.8586 89.4768 36.7321C89.4912 34.0522 88.2232 32.4673 86.2348 32.4673Z" fill="white"/>
<path d="M98.7126 43.216C95.1968 43.216 93.4102 41.7896 93.4102 39.3691C93.4102 35.9543 97.0412 35.3492 100.744 35.1475V34.3694C100.744 32.8278 99.7212 32.2803 98.1507 32.2803C96.998 32.2803 95.5859 32.6405 94.7646 33.0295L94.1306 31.3293C95.1104 30.8971 96.7674 30.4648 98.41 30.4648C101.335 30.4648 103.122 31.6031 103.122 34.6288V42.3515C102.243 42.827 100.442 43.216 98.7126 43.216ZM100.759 36.8044C98.2515 36.9341 95.7588 37.1502 95.7588 39.3258C95.7588 40.6226 96.753 41.415 98.6406 41.415C99.433 41.415 100.37 41.2853 100.759 41.098V36.8044Z" fill="white"/>
<path d="M108.713 43.216C107.286 43.216 105.788 42.827 104.895 42.3515L105.73 40.4497C106.364 40.8387 107.704 41.2421 108.641 41.2421C109.981 41.2421 110.874 40.5793 110.874 39.5564C110.874 38.4469 109.938 38.0147 108.698 37.5536C107.056 36.9341 105.226 36.1849 105.226 33.894C105.226 31.8768 106.796 30.4648 109.52 30.4648C111.004 30.4648 112.229 30.825 113.093 31.3293L112.315 33.0583C111.768 32.7125 110.672 32.3379 109.794 32.3379C108.497 32.3379 107.776 33.0151 107.776 33.9084C107.776 35.0178 108.684 35.4068 109.894 35.8679C111.595 36.5018 113.482 37.2078 113.482 39.5996C113.468 41.7752 111.782 43.216 108.713 43.216Z" fill="white"/>
<path d="M125.559 36.7754L117.418 37.9136C117.663 40.118 119.104 41.2275 121.165 41.2275C122.389 41.2275 123.715 40.9249 124.551 40.4782L125.271 42.3369C124.32 42.8412 122.677 43.2014 120.992 43.2014C117.13 43.2014 114.969 40.7232 114.969 36.8186C114.969 33.0725 117.058 30.4502 120.487 30.4502C123.672 30.4502 125.559 32.5394 125.559 35.8388C125.588 36.1414 125.588 36.4584 125.559 36.7754ZM120.473 32.28C118.571 32.28 117.317 33.7352 117.274 36.2855L123.211 35.4642C123.182 33.3318 122.101 32.28 120.473 32.28Z" fill="white"/>
</svg>
