<svg width="167" height="67" viewBox="0 0 167 67" fill="none" xmlns="http://www.w3.org/2000/svg">
<g filter="url(#filter0_d)">
<g clip-path="url(#clip0)">
<path d="M56.6594 20.4251C51.1982 20.9984 46.7856 24.9188 45.6124 30.2621C45.5189 30.6716 45.4255 31.5928 45.3943 32.3094L45.332 33.6196H47.0348H48.7375L48.8621 34.3566C49.0386 35.4621 49.5577 36.7724 50.2014 37.7243C50.5129 38.185 50.7621 38.6354 50.7621 38.7173C50.7621 38.7991 50.6583 39.2291 50.5337 39.6795L50.3156 40.4779L50.0561 40.2527C49.1424 39.4031 47.99 37.4787 47.5331 35.9944L47.2943 35.2574H46.4845C45.7058 35.2574 45.6747 35.2676 45.6747 35.5031C45.6747 35.8409 46.1315 37.1921 46.5572 38.1031C47.0451 39.1369 47.9069 40.3858 48.7375 41.2763C49.5889 42.1771 51.1878 43.3952 51.2916 43.211C51.385 43.0472 52.6309 38.3999 52.6309 38.2362C52.6309 38.1645 52.4233 37.8676 52.1637 37.581C51.1151 36.4039 50.4298 34.5921 50.4091 32.9338L50.3987 31.9818L48.7375 31.9613L47.0763 31.9306L47.1178 31.47C47.1282 31.2141 47.2528 30.5897 47.3878 30.0779C48.3326 26.3826 51.3954 23.3732 55.2266 22.3393C56.0053 22.1346 56.3375 22.1039 57.9779 22.1141C59.5561 22.1141 59.9714 22.1551 60.6566 22.3393C63.7091 23.1684 66.2632 25.1952 67.6441 27.8873C67.8621 28.2968 68.1632 29.0133 68.3189 29.4637L68.5992 30.2928L69.4402 30.3236C69.9074 30.344 70.2812 30.3133 70.2812 30.2724C70.2812 30.2212 70.1878 29.8527 70.0736 29.4535C69.0145 25.6763 65.9517 22.4212 62.214 21.0905C61.1757 20.7322 60.3348 20.548 59.0785 20.4251C57.9053 20.3023 57.8222 20.3023 56.6594 20.4251Z" fill="white"/>
<path d="M91.5664 26.4543V30.8559H92.397H93.2276V29.9039V28.9519L93.6741 28.5323L94.1101 28.1126L95.0446 29.4842L95.979 30.8559H96.8407C97.5052 30.8559 97.6817 30.8252 97.6298 30.7228C97.5883 30.6614 97.0172 29.8527 96.3735 28.9417C95.7298 28.0307 95.2003 27.2527 95.2003 27.2118C95.2003 27.1811 95.6571 26.6386 96.2178 26.0039C96.7681 25.3795 97.2872 24.7858 97.3703 24.6834C97.5052 24.5197 97.4533 24.5094 96.6435 24.5197H95.7713L94.5254 25.9118L93.2795 27.3039L93.2484 24.6732L93.2276 22.0527H92.397H91.5664V26.4543Z" fill="white"/>
<path d="M75.6797 26.557V30.8562H77.372C78.2961 30.8562 79.324 30.8153 79.6562 30.7539C81.5354 30.457 82.7917 29.157 83.0513 27.2633C83.3939 24.7964 82.0546 22.7799 79.7808 22.3704C79.4485 22.309 78.3895 22.2578 77.424 22.2578H75.6797V26.557ZM79.9054 23.9468C80.8087 24.3255 81.2966 25.0932 81.3693 26.2602C81.4524 27.6421 80.9644 28.6452 80.0092 29.1058C79.6354 29.2799 79.3655 29.3208 78.4518 29.3208H77.3409V26.5775C77.3409 25.0625 77.372 23.7932 77.424 23.7421C77.5485 23.6192 79.4693 23.7728 79.9054 23.9468Z" fill="white"/>
<path d="M117.831 23.4855V24.5092H117.415H117V25.1233V25.7375H117.405H117.82L117.851 27.8564C117.883 30.2107 117.924 30.3745 118.599 30.7328C119.025 30.958 120.021 30.9477 120.727 30.7123L121.278 30.5281L121.215 30.1288C121.184 29.9139 121.111 29.6273 121.049 29.484C120.966 29.2485 120.925 29.2281 120.686 29.3202C120.281 29.4737 119.845 29.443 119.658 29.2588C119.523 29.1257 119.492 28.8084 119.492 27.4162V25.7375H120.167H120.842V25.1233V24.5092H120.167H119.492V23.4855V22.4619H118.661H117.831V23.4855Z" fill="white"/>
<path d="M57.0969 25.3794C57.0969 26.9148 57.0761 27.0684 56.9204 27.0684C56.557 27.0786 55.2903 27.5802 54.7712 27.918C53.5668 28.7062 52.622 29.9959 52.269 31.3267C52.186 31.6542 52.1133 32.3196 52.1133 32.8007C52.1133 34.4589 52.622 35.6668 53.8472 36.8849L54.6155 37.6629L53.7849 40.7337C53.328 42.4227 52.9439 43.8967 52.9231 44.0093C52.892 44.1833 53.0373 44.2652 53.8783 44.5518C55.228 45.0125 56.3597 45.1865 58.0002 45.1865C59.5887 45.1865 61.0111 44.9511 62.2258 44.4802C62.828 44.255 62.9526 44.1629 62.9319 44.0093C62.9111 43.8967 62.5166 42.4125 62.0597 40.703C61.6029 39.0038 61.2395 37.5912 61.2603 37.581C61.7794 37.2432 62.3816 36.629 62.7969 36.0148C64.0116 34.2235 64.1466 32.1251 63.1603 30.1495C62.4439 28.7164 60.8865 27.5085 59.3291 27.1605L58.7581 27.0377V26.229V25.4306H59.0592C59.5056 25.4306 60.6996 25.8196 61.4575 26.2085C63.8559 27.4471 65.3198 29.7503 65.4756 32.5141L65.5379 33.6196H67.1783C68.5176 33.6196 68.8291 33.6503 68.8291 33.7629C68.8291 34.1109 68.4865 35.6054 68.2581 36.281C67.7805 37.6629 66.7215 39.3826 65.8493 40.1912L65.5482 40.4676L65.3095 39.5463L65.0603 38.6251L65.4963 38.0211C65.9843 37.3353 66.6176 36.0763 66.7111 35.5849L66.7838 35.2574H65.9532H65.1226L64.6969 36.0967C64.4581 36.5676 64.0324 37.2329 63.7417 37.581L63.2122 38.2156L63.8974 40.7542C64.2816 42.1463 64.6034 43.303 64.6138 43.3235C64.6346 43.3337 65.0187 43.0778 65.4652 42.7503C68.6215 40.4164 70.4903 36.803 70.4903 33.0463V31.9818H68.8395C66.981 31.9818 67.1368 32.0534 67.0122 31.1322C66.9291 30.5282 66.5554 29.4432 66.1816 28.7062C65.2368 26.8534 63.8663 25.5329 61.9248 24.6015C60.6685 23.9975 59.3603 23.6904 58.0105 23.6904H57.0969V25.3794ZM58.7996 28.7574C60.4608 29.1054 61.686 30.3133 62.0286 31.9613C62.3193 33.3432 61.8936 34.7558 60.8657 35.7385C60.5646 36.0353 60.0767 36.3731 59.7963 36.5062C59.3707 36.6904 59.2772 36.7826 59.3084 36.9463C59.3291 37.0589 59.7133 38.4613 60.1493 40.0684C60.5854 41.6652 60.9176 43.0369 60.8969 43.0983C60.8242 43.2928 59.1111 43.5487 57.9275 43.5487C56.7231 43.5487 55.0308 43.2928 54.9581 43.0881C54.9269 43.0164 55.2799 41.5731 55.7472 39.8637C56.2144 38.1644 56.5778 36.7621 56.557 36.7518C56.5362 36.7314 56.287 36.5983 55.986 36.4345C55.2384 36.0455 54.5532 35.329 54.1586 34.5408C53.8472 33.9267 53.8264 33.8038 53.8264 32.8007C53.8264 31.7873 53.8472 31.6849 54.169 31.0298C54.7816 29.8117 55.9444 28.9314 57.2215 28.7164C58.0002 28.5936 58.0002 28.5936 58.7996 28.7574Z" fill="white"/>
<path d="M54.8639 24.1923C52.4551 25.0419 50.389 26.9765 49.4442 29.2694C49.2573 29.7198 49.1016 30.1497 49.1016 30.2112C49.1016 30.3033 49.3404 30.3442 49.9425 30.3442H50.7731L50.9912 29.8529C51.6764 28.3277 53.0469 26.8946 54.542 26.1474L55.4349 25.697V24.8474C55.4349 24.3765 55.4245 23.9978 55.4141 24.008C55.3934 24.008 55.1546 24.0899 54.8639 24.1923Z" fill="white"/>
<path d="M86.2177 24.5404C85.2833 24.8475 84.6292 25.39 84.1828 26.2499C83.9751 26.6388 83.9336 26.864 83.9336 27.6829C83.9336 28.5428 83.9647 28.7168 84.2139 29.1774C84.5462 29.7916 85.1899 30.3955 85.844 30.6821C86.2178 30.8562 86.5292 30.8971 87.256 30.9073C88.0762 30.9073 88.2631 30.8664 88.7822 30.6207C89.374 30.3341 90.2981 29.4538 90.1423 29.3207C90.0904 29.2798 89.7893 29.1774 89.4467 29.0853L88.8341 28.9215L88.6265 29.1877C88.2008 29.7097 87.2145 29.894 86.5085 29.5664C86.1035 29.3719 85.6467 28.768 85.6467 28.4302V28.1947H88.097H90.5576L90.5057 27.3963C90.4331 26.127 89.8412 25.2569 88.6784 24.7042C88.1178 24.438 86.8096 24.3459 86.2177 24.5404ZM88.0762 25.8302C88.4604 26.0451 88.7407 26.4136 88.8238 26.8333L88.8964 27.1711H87.2768C86.3839 27.1711 85.6363 27.1404 85.6156 27.0892C85.5117 26.9152 85.7713 26.3727 86.1035 26.0554C86.6538 25.5333 87.391 25.4514 88.0762 25.8302Z" fill="white"/>
<path d="M101.325 24.5405C101.128 24.6019 100.712 24.8987 100.422 25.1853L99.8715 25.7279V25.1137V24.5097H99.1447H98.418V27.683V30.8562H99.1967H99.9753V28.9523C99.9753 27.1916 99.9961 27.0279 100.193 26.7515C100.463 26.3727 101.076 26.0657 101.688 25.9735L102.156 25.9121V25.1649C102.156 24.3153 102.125 24.2948 101.325 24.5405Z" fill="white"/>
<path d="M112.737 24.4995C112.301 24.6428 111.989 24.827 111.636 25.1546L111.293 25.4719V24.9908V24.5097H110.567H109.84V28.9625V33.4254L110.65 33.3947L111.449 33.364L111.48 31.5932L111.501 29.8223L111.771 30.1396C112.228 30.6617 112.799 30.8971 113.629 30.8971C114.512 30.8971 115.021 30.6719 115.613 30.0065C116.184 29.3719 116.433 28.6451 116.422 27.6317C116.412 25.8506 115.27 24.5404 113.64 24.4483C113.297 24.4278 112.882 24.4483 112.737 24.4995ZM113.422 25.8506C114.242 26.0656 114.751 26.7821 114.751 27.6932C114.751 28.3687 114.429 29.0239 113.931 29.3207C113.453 29.6176 112.674 29.5971 112.228 29.2695C111.615 28.8294 111.501 28.553 111.501 27.5601C111.501 26.7207 111.522 26.6388 111.792 26.3522C111.947 26.1782 112.259 25.9735 112.487 25.8916C112.996 25.7176 112.923 25.7176 113.422 25.8506Z" fill="white"/>
<path d="M102.509 24.6838C102.551 24.7861 103.122 26.209 103.776 27.857L104.98 30.846L104.804 31.3066C104.523 32.0334 104.285 32.2176 103.755 32.146L103.319 32.0948L103.278 32.7602C103.267 33.1287 103.288 33.4665 103.35 33.4972C103.402 33.5279 103.724 33.5586 104.077 33.5586C104.959 33.5483 105.707 33.1389 106.06 32.4633C106.195 32.2074 108.905 24.6838 108.905 24.5609C108.905 24.5302 108.562 24.5098 108.147 24.5098H107.399L106.683 26.8129C106.288 28.072 105.935 29.157 105.894 29.2184C105.852 29.2798 105.531 28.4917 105.167 27.4578C104.804 26.4239 104.42 25.3389 104.316 25.042L104.118 24.5098H103.278C102.53 24.5098 102.457 24.5302 102.509 24.6838Z" fill="white"/>
<path d="M98.3034 35.0014C98.3034 35.0321 98.3034 35.3904 98.293 35.7896V36.5368L99.082 36.5675L99.8711 36.5982V35.7691V34.9502H99.0924C98.6667 34.9502 98.3137 34.9707 98.3034 35.0014Z" fill="white"/>
<path d="M113.059 38.8809C113.059 42.7911 113.059 42.8014 113.297 43.1494C113.578 43.5691 114.118 43.8557 114.637 43.8557C115.135 43.8557 116.049 43.6612 116.132 43.5384C116.163 43.4872 116.153 43.2006 116.121 42.8935L116.049 42.351L115.561 42.4022C114.689 42.4841 114.72 42.6274 114.72 38.5226V34.9502H113.889H113.059V38.8809Z" fill="white"/>
<path d="M78.0273 35.2573C75.9197 35.7793 74.4661 37.9904 74.8399 40.0888C75.2656 42.4636 77.3732 44.1014 79.5743 43.7636C80.5918 43.61 81.4224 43.2006 82.0142 42.5557C82.3049 42.2486 82.5333 41.9518 82.5333 41.9108C82.5333 41.747 81.1525 41.0407 81.1006 41.1738C81.0071 41.4604 80.5295 41.9108 80.0831 42.1156C79.4082 42.4431 78.3803 42.3817 77.7678 41.9825C77.2798 41.6652 76.7711 40.9384 76.6049 40.3242C76.2935 39.2187 76.7607 37.673 77.5705 37.0998C78.6191 36.3423 80.2596 36.5778 80.9241 37.5707L81.1317 37.888L81.7754 37.4683C82.1388 37.2329 82.4295 37.0179 82.4295 36.977C82.4295 36.9463 82.2011 36.6596 81.9104 36.3526C81.2148 35.5951 80.4049 35.247 79.2732 35.1959C78.806 35.1754 78.2558 35.2061 78.0273 35.2573Z" fill="white"/>
<path d="M101.812 35.4216C101.771 35.4625 101.739 35.9232 101.739 36.4554V37.4074H101.324H100.898L100.93 38.0421L100.961 38.6869L101.324 38.6972H101.688L101.739 40.8058C101.791 42.7405 101.812 42.9452 102.009 43.2114C102.3 43.6106 102.84 43.8562 103.411 43.8562C103.878 43.8562 104.937 43.6003 105.093 43.4468C105.145 43.4058 105.124 43.109 105.051 42.7814L104.916 42.198L104.553 42.2799C104.044 42.3822 103.733 42.3618 103.556 42.2184C103.421 42.1058 103.401 41.7988 103.421 40.3964L103.453 38.7177L104.075 38.6972L104.698 38.6869V38.0728V37.4586L104.055 37.4279L103.411 37.3972L103.38 36.4043L103.349 35.4114L102.622 35.3806C102.217 35.3704 101.854 35.3806 101.812 35.4216Z" fill="white"/>
<path d="M85.2328 37.4173C84.6514 37.5299 83.717 37.8984 83.5716 38.0724C83.4886 38.1646 83.5197 38.3283 83.6962 38.6764C83.8208 38.9425 83.9558 39.137 83.9869 39.1165C85.0044 38.5331 85.8869 38.3386 86.5203 38.5535C87.0082 38.7173 87.2678 39.0551 87.3612 39.6488C87.4339 40.089 87.4339 40.0992 87.1951 40.0276C86.6137 39.8433 85.264 39.8433 84.6826 40.0071C83.2186 40.4268 82.6268 41.8803 83.4678 43.0165C83.8831 43.5898 84.3918 43.8047 85.3367 43.8047C86.1673 43.7945 86.6449 43.6205 87.299 43.0882C87.5897 42.8323 87.6208 42.8323 87.6208 43.0165C87.6208 43.5488 88.3164 43.9378 89.0328 43.815L89.3858 43.7433V43.1087C89.3858 42.5969 89.3443 42.4331 89.1782 42.2898C88.9913 42.1362 88.9705 41.9929 88.9705 40.652C88.9705 39.2701 88.9498 39.1575 88.7006 38.6457C88.3476 37.9598 87.7662 37.5709 86.8525 37.4173C86.1153 37.2945 85.8973 37.2945 85.2328 37.4173ZM87.0913 40.8976C87.3612 40.9898 87.4132 41.0614 87.4132 41.3276C87.4132 42.0032 86.8733 42.5354 86.0738 42.6685C85.347 42.7811 84.6099 42.3205 84.6099 41.7472C84.6099 41.4811 84.9733 41 85.2744 40.8874C85.5858 40.7543 86.7071 40.7646 87.0913 40.8976Z" fill="white"/>
<path d="M93.5694 37.3969C93.0918 37.5197 92.3131 37.9906 92.1678 38.2567C92.0432 38.4614 92.0328 38.441 91.9809 37.9701L91.929 37.4583L91.2334 37.4276L90.5273 37.3969V41.8599V46.3126H91.3579H92.1885V44.5417V42.7606L92.635 43.1803C93.3929 43.9071 94.5246 44.0709 95.4902 43.5898C96.1235 43.2827 96.4869 42.8835 96.8503 42.1158C97.0787 41.6449 97.1202 41.4095 97.1202 40.6315C97.1202 39.8536 97.0787 39.6181 96.8503 39.137C96.5284 38.4512 95.947 37.8575 95.3656 37.6016C94.8465 37.3866 94.0263 37.2843 93.5694 37.3969ZM94.4519 38.8811C95.023 39.178 95.5109 39.9354 95.5109 40.5394C95.5109 41.4299 94.8257 42.341 94.0678 42.474C93.5071 42.5662 92.8011 42.2386 92.4481 41.7268C92.2197 41.3992 92.1885 41.2354 92.1885 40.5189C92.1885 39.8228 92.2197 39.6386 92.417 39.4032C92.9153 38.7787 93.8082 38.5536 94.4519 38.8811Z" fill="white"/>
<path d="M108.022 37.3764C107.514 37.4481 106.486 37.8063 106.226 38.0008L105.977 38.1851L106.216 38.6662C106.351 38.9323 106.486 39.1371 106.517 39.1166C108.334 38.0827 109.735 38.3079 109.912 39.6489L109.974 40.089L109.621 40.0071C109.424 39.956 108.822 39.915 108.282 39.915C107.41 39.9252 107.233 39.956 106.756 40.2016C106.018 40.5804 105.655 41.1126 105.645 41.8394C105.624 43.7229 108.105 44.5418 109.715 43.1906L110.13 42.8323L110.203 43.1189C110.348 43.6922 110.888 43.9583 111.594 43.8048C111.916 43.7331 111.916 43.7331 111.916 43.0268C111.916 42.4945 111.885 42.3205 111.77 42.3205C111.552 42.3205 111.5 41.9827 111.5 40.5701C111.5 39.1985 111.417 38.7788 111.023 38.2567C110.545 37.6323 109.133 37.2126 108.022 37.3764ZM109.621 40.8977C109.901 41 109.943 41.0512 109.943 41.3993C109.943 42.6378 107.794 43.1906 107.264 42.0851C106.932 41.3993 107.586 40.7851 108.645 40.7851C108.998 40.7851 109.434 40.8363 109.621 40.8977Z" fill="white"/>
<path d="M98.303 37.4482C98.2822 37.4686 98.2718 38.9017 98.2926 40.6214L98.3237 43.7537H99.092H99.8707V40.5805V37.4072H99.1128C98.6871 37.4072 98.3237 37.4277 98.303 37.4482Z" fill="white"/>
</g>
</g>
<defs>
<filter id="filter0_d" x="-3.33333" y="-1.66667" width="173.333" height="73.3333" filterUnits="userSpaceOnUse" color-interpolation-filters="sRGB">
<feFlood flood-opacity="0" result="BackgroundImageFix"/>
<feColorMatrix in="SourceAlpha" type="matrix" values="0 0 0 0 0 0 0 0 0 0 0 0 0 0 0 0 0 0 127 0"/>
<feOffset dy="1.66667"/>
<feGaussianBlur stdDeviation="1.66667"/>
<feColorMatrix type="matrix" values="0 0 0 0 0 0 0 0 0 0 0 0 0 0 0 0 0 0 0.1 0"/>
<feBlend mode="normal" in2="BackgroundImageFix" result="effect1_dropShadow"/>
<feBlend mode="normal" in="SourceGraphic" in2="effect1_dropShadow" result="shape"/>
</filter>
<clipPath id="clip0">
<rect width="76" height="26" fill="white" transform="translate(45.332 20.333)"/>
</clipPath>
</defs>
</svg>
