<svg width="163" height="65" viewBox="0 0 163 65" fill="none" xmlns="http://www.w3.org/2000/svg">
<g filter="url(#filter0_d)">
<g clip-path="url(#clip0)">
<path d="M39.5 18.7083C39.5833 18.7083 39.6667 18.7222 39.7639 18.7222C47.5136 18.7222 55.2633 18.7222 63.0268 18.7222C63.1102 18.7222 63.1796 18.7222 63.3046 18.7222C62.5685 20.736 61.8324 22.7082 61.0825 24.7081C58.0548 23.1943 55.0549 21.6804 52.0134 20.1666C52.0134 25.6386 52.0134 31.0689 52.0134 36.5271C51.6245 36.5271 51.2356 36.5271 50.8468 36.5271C50.8468 31.0967 50.8468 25.6525 50.8468 20.1666C47.8052 21.6943 44.7915 23.2082 41.7499 24.722C41.6805 24.5275 41.611 24.347 41.5416 24.1526C40.8749 22.4026 40.2361 20.6666 39.5833 18.9166C39.5694 18.8889 39.5278 18.8333 39.5139 18.7778C39.5 18.7639 39.5 18.75 39.5 18.7083ZM41.1944 19.9305C41.5833 20.9721 41.9721 22.0137 42.361 23.0554C44.4443 22.0137 46.4997 20.9721 48.5552 19.9444C48.5552 19.9305 48.5413 19.9305 48.5413 19.9166C46.1109 19.9305 43.6804 19.9305 41.1944 19.9305ZM61.5686 19.9305C59.1103 19.9305 56.6521 19.9305 54.2077 19.9305V19.9444C56.2771 20.9721 58.3326 22.0137 60.4019 23.0554C60.7908 22.0137 61.1658 20.986 61.5686 19.9305ZM114.691 18.5417C114.691 21.7499 114.691 24.9859 114.691 28.2218C115.066 28.2774 115.441 28.3052 115.83 28.3607C115.816 28.4996 115.802 28.6385 115.775 28.7774C114.761 28.7774 113.747 28.7774 112.719 28.7774C112.705 28.6524 112.664 28.5135 112.65 28.3607C112.942 28.3052 113.233 28.2774 113.525 28.2218C113.525 26.4302 113.525 24.6248 113.525 22.8193C112.511 22.8193 111.497 22.8193 110.469 22.8193C110.469 24.6248 110.469 26.4164 110.469 28.1941C110.886 28.2218 111.275 28.2496 111.705 28.2774C111.692 28.444 111.65 28.5829 111.636 28.7357C110.525 28.7357 109.442 28.7357 108.317 28.7357C108.303 28.6107 108.261 28.4718 108.247 28.319C108.608 28.2635 108.942 28.2357 109.303 28.1802C109.303 26.3886 109.303 24.5831 109.303 22.7776C108.886 22.7776 108.483 22.7776 108.053 22.7776C107.997 22.6248 108.053 22.5137 108.122 22.4165C108.317 22.1249 108.553 21.9999 108.872 22.0554C109.011 22.0693 109.15 22.0554 109.289 22.0554C109.303 21.8193 109.317 21.5693 109.358 21.3332C109.442 20.8055 109.705 20.3333 110.053 19.9305C110.4 19.5139 110.733 19.1111 111.08 18.6805C111.15 18.5972 111.233 18.5556 111.358 18.5556C112.15 18.5556 112.941 18.5417 113.719 18.5278C113.803 18.5278 113.886 18.5139 113.983 18.5C114.219 18.5417 114.455 18.5417 114.691 18.5417ZM113.525 19.4027C113.497 19.4027 113.455 19.4027 113.441 19.4166C112.941 19.6527 112.414 19.6944 111.858 19.6527C111.65 19.6388 111.428 19.6527 111.219 19.6527C111.15 19.6527 111.081 19.6805 111.025 19.7361C110.678 20.0694 110.497 20.4583 110.497 20.9444C110.483 21.3332 110.497 21.7499 110.497 22.1526C111.511 22.1526 112.525 22.1526 113.539 22.1526C113.525 21.236 113.525 20.3333 113.525 19.4027ZM54.3466 30.6662C54.3466 30.2495 54.3466 29.8745 54.3466 29.4857C55.5271 29.4857 56.7076 29.4857 57.8882 29.4857C57.8882 33.8188 57.8882 38.152 57.8882 42.4852C53.555 42.4852 49.2357 42.4852 44.8887 42.4852C44.8887 38.152 44.8887 33.8188 44.8887 29.4857C46.0553 29.4857 47.2219 29.4857 48.4163 29.4857C48.4163 29.8745 48.4163 30.2634 48.4163 30.6523C47.6247 30.6523 46.8469 30.6523 46.0553 30.6523C46.0553 34.2077 46.0553 37.7492 46.0553 41.2908C49.5968 41.2908 53.1383 41.2908 56.6938 41.2908C56.6938 37.7492 56.6938 34.2077 56.6938 30.6523C55.9299 30.6662 55.1383 30.6662 54.3466 30.6662ZM66.0823 28.7913C66.0684 28.6524 66.0267 28.5135 66.0128 28.3468C66.235 28.3191 66.4573 28.2774 66.6795 28.2496C66.9017 28.2218 67.1239 28.1802 67.3739 28.1663C67.3739 28.0968 67.3739 28.0274 67.3739 27.9719C67.3739 25.1664 67.3739 22.3887 67.3739 19.5833C67.3739 19.4166 67.3183 19.3611 67.1656 19.3472C66.8322 19.3194 66.4989 19.2639 66.1656 19.2083C66.11 19.2083 66.0823 19.1944 66.0267 19.1805C66.0406 19.0278 66.0823 18.8889 66.0962 18.7639C66.4017 18.7639 66.7211 18.7639 67.0267 18.7639C68.3461 18.7639 69.6793 18.75 71.0126 18.75C71.8876 18.75 72.7209 18.9166 73.4709 19.375C74.4292 19.9444 75.0125 20.7777 75.2902 21.8332C75.5958 23.0554 75.5819 24.2776 75.2208 25.472C74.7764 26.9858 73.7209 27.9302 72.2626 28.4302C71.3876 28.7357 70.4988 28.8051 69.5821 28.7774C68.5822 28.7496 67.5822 28.7774 66.5961 28.7774C66.4156 28.7913 66.2628 28.7913 66.0823 28.7913ZM68.6655 19.3889C68.6655 22.2776 68.6655 25.1525 68.6655 28.0413C69.1655 28.0691 69.6655 28.0968 70.1654 28.1663C71.4571 28.319 72.7764 27.708 73.4431 26.3608C74.1653 24.9164 74.2347 23.4026 73.7486 21.8749C73.332 20.5971 72.457 19.7777 71.1376 19.4444C70.3182 19.2361 69.4988 19.3611 68.6655 19.3889ZM88.3869 28.7913C88.2203 28.694 88.0397 28.6246 87.8731 28.4996C87.512 28.2635 87.3175 27.7496 87.4286 27.333C87.4425 27.2774 87.4981 27.2496 87.5536 27.208C87.9703 26.9163 88.373 26.6108 88.8314 26.2914C88.748 26.2636 88.6786 26.2219 88.5953 26.1941C86.9425 25.4719 87.137 23.6804 88.0119 22.8609C88.5814 22.3332 89.2897 21.986 90.0258 21.8749C90.7479 21.7777 91.4285 22.0138 91.9979 22.4998C92.0257 22.5276 92.0673 22.5693 92.1229 22.5971C92.359 22.3749 92.5812 22.1526 92.8312 21.9304C92.8868 21.8749 92.984 21.8471 93.0534 21.8471C93.2756 21.8332 93.4978 21.8471 93.7201 21.8471C93.7201 22.2082 93.7201 22.5415 93.7201 22.8887C93.2756 22.8748 92.8312 22.8609 92.4979 23.1248C92.5257 23.4304 92.5812 23.722 92.5812 24.0137C92.5673 24.7081 92.2201 25.2358 91.6646 25.6525C91.1368 26.0414 90.5257 26.2497 89.9008 26.4302C89.8452 26.4441 89.7758 26.4441 89.7341 26.4302C89.498 26.3608 89.3452 26.4858 89.2063 26.6663C89.0536 26.8747 88.8591 27.0552 88.6925 27.2635C88.5397 27.458 88.5536 27.6802 88.7619 27.7913C88.8591 27.8469 88.9841 27.8746 89.1091 27.8746C89.9702 27.8746 90.8452 27.8746 91.7062 27.8746C91.984 27.8746 92.234 27.9024 92.5118 27.9719C93.3312 28.1802 93.7339 28.9024 93.4701 29.7079C93.2756 30.3051 92.8729 30.7217 92.3868 31.0828C91.6785 31.6106 90.8868 31.9717 90.0535 32.1939C89.7758 32.2633 89.4841 32.2078 89.1925 32.1939C88.7341 32.1661 88.2619 32.055 87.8314 31.8328C87.012 31.4023 86.8731 30.6801 86.9009 30.0273C86.9009 29.9718 86.9703 29.9023 87.0259 29.8745C87.4425 29.5273 87.8453 29.1801 88.2619 28.8468C88.2897 28.8607 88.3314 28.819 88.3869 28.7913ZM89.9702 31.4995C90.5674 31.4995 91.109 31.3328 91.5674 30.9717C91.9146 30.694 92.1646 30.3745 92.2618 29.9301C92.3868 29.4023 92.1923 29.1107 91.6646 28.9857C91.5118 28.9579 91.359 28.9301 91.2202 28.9301C90.4841 28.9163 89.7619 28.9163 89.0258 28.9163C88.9702 28.9163 88.8869 28.9301 88.8591 28.9718C88.623 29.3051 88.3592 29.6107 88.1369 29.9301C87.9703 30.2079 87.9981 30.4995 88.1925 30.7495C88.2897 30.9023 88.4564 31.0273 88.6091 31.1245C88.998 31.4161 89.4841 31.4856 89.9702 31.4995ZM88.5258 23.972C88.5397 24.1387 88.5536 24.3192 88.5953 24.472C88.7619 25.3608 89.373 25.8469 90.248 25.7914C90.7618 25.7636 91.2063 25.4581 91.3313 24.9858C91.5257 24.2359 91.3868 23.5276 90.8868 22.9165C90.5257 22.4998 90.0396 22.4026 89.5119 22.5276C89.0258 22.6248 88.7341 22.972 88.623 23.4581C88.5536 23.6248 88.5397 23.8192 88.5258 23.972ZM83.2621 42.2629C83.2621 43.1935 83.2621 44.124 83.2621 45.0684C83.776 45.1239 84.276 45.1656 84.8037 45.2212C84.7899 45.36 84.776 45.485 84.7343 45.5961C84.7204 45.6239 84.651 45.6795 84.5954 45.6795C84.0399 45.6795 83.4982 45.6517 82.9566 45.6517C82.3872 45.6517 81.8178 45.6656 81.2483 45.6795C81.1928 45.6795 81.165 45.6795 81.0956 45.6795C81.0817 45.5267 81.04 45.3878 81.0122 45.235C81.3594 45.1795 81.7066 45.1378 82.0539 45.0823C82.0539 42.2352 82.0539 39.3603 82.0539 36.4854C81.7066 36.5132 81.3594 36.5548 81.0122 36.5826C80.9983 36.4437 80.9567 36.3048 80.9289 36.1382C81.6511 35.9854 82.3316 35.6521 83.1094 35.6382C83.1233 36.0132 83.1649 36.3882 83.1788 36.7909C83.2344 36.7632 83.2621 36.7354 83.3038 36.7215C83.8177 36.3326 84.3454 35.9299 84.8732 35.541C84.9287 35.5132 84.9982 35.4715 85.0398 35.4715C85.8593 35.4715 86.6092 35.6938 87.1648 36.3187C87.5953 36.777 87.7897 37.3465 87.887 37.9576C87.9842 38.652 87.9842 39.3325 87.8175 40.0269C87.5397 41.0685 86.887 41.8185 85.887 42.2074C85.4426 42.374 84.9426 42.499 84.4565 42.5824C84.0677 42.6518 83.6788 42.5129 83.3455 42.3463C83.3177 42.3324 83.276 42.3185 83.2483 42.2907C83.276 42.2629 83.276 42.2629 83.2621 42.2629ZM83.2621 39.2492C83.2621 39.8047 83.2621 40.3464 83.2621 40.9019C83.2621 40.9713 83.2899 41.0685 83.3316 41.1241C83.7482 41.6935 84.6371 42.0129 85.3315 41.8463C85.9843 41.6796 86.3453 41.2074 86.5676 40.6102C86.8314 39.9019 86.8314 39.1797 86.7342 38.4575C86.6648 37.9437 86.5398 37.4576 86.2481 37.027C85.8315 36.4021 85.2482 36.2354 84.5815 36.5965C84.1371 36.8326 83.7205 37.152 83.3038 37.4437C83.2483 37.4715 83.2344 37.5687 83.2344 37.6381C83.2483 38.152 83.2621 38.7075 83.2621 39.2492ZM74.943 35.0132C74.7208 35.0132 74.5264 35.0132 74.3181 35.0132C74.2208 35.0132 74.1792 34.9855 74.1514 34.8882C74.0264 34.541 73.9292 34.1938 73.7903 33.8605C73.7347 33.7355 73.6653 33.6383 73.582 33.555C71.9709 32.18 68.6099 32.3883 67.8044 35.416C67.3739 37.027 67.5128 38.6103 68.4433 40.0547C69.2488 41.2908 70.4015 41.9435 71.9154 41.8741C72.5403 41.8463 73.0681 41.5407 73.5264 41.1519C73.6792 41.013 73.7486 40.7769 73.832 40.5825C73.9847 40.2908 74.1375 39.9853 74.2903 39.6936C74.3181 39.638 74.4153 39.5964 74.4847 39.5686C74.6791 39.5547 74.8736 39.5686 75.1097 39.5686C74.9708 40.1936 74.8458 40.8047 74.7208 41.4019C74.7069 41.4296 74.6514 41.4852 74.6236 41.4991C73.6097 41.9852 72.5542 42.374 71.4432 42.5685C70.8876 42.6657 70.3599 42.5546 69.8321 42.4018C67.7628 41.8324 66.4156 40.1658 66.2212 38.0548C66.1378 36.9715 66.235 35.9299 66.7211 34.9438C67.2767 33.8466 68.1655 33.1105 69.2766 32.6383C70.0127 32.3328 70.7904 32.0828 71.5959 32.0828C72.8042 32.0828 73.8597 32.4994 74.8458 33.1661C74.9014 33.1939 74.9291 33.2494 74.9291 33.305C74.9569 33.8605 74.943 34.4299 74.943 35.0132ZM103.303 28.3329C103.289 28.4857 103.248 28.6246 103.234 28.7635C102.275 28.7635 101.303 28.7635 100.317 28.7635C100.303 28.6385 100.262 28.4857 100.248 28.3329C100.609 28.2774 100.956 28.2496 101.317 28.1941C101.317 26.4302 101.317 24.6664 101.317 22.9026C100.97 22.9304 100.636 22.972 100.289 22.9998C100.275 22.8471 100.234 22.7082 100.22 22.5693C100.595 22.3749 102.011 22.0415 102.373 22.0693C102.4 22.4443 102.428 22.8471 102.456 23.2498C102.539 23.1943 102.595 23.1665 102.65 23.1248C103.234 22.7359 103.831 22.3332 104.414 21.9582C104.497 21.9026 104.609 21.8749 104.692 21.8749C104.928 21.8749 105.178 21.8888 105.414 21.9304C106.164 22.0554 106.525 22.4582 106.622 23.2498C106.65 23.5137 106.65 23.7776 106.678 24.0414C106.678 25.3608 106.678 26.6941 106.678 28.0274C106.678 28.1802 106.733 28.2357 106.872 28.2357C107.178 28.2496 107.511 28.3052 107.858 28.3329C107.844 28.4857 107.803 28.6246 107.789 28.7635C106.803 28.7635 105.845 28.7635 104.872 28.7635C104.858 28.6246 104.817 28.4857 104.803 28.3329C105.067 28.2774 105.303 28.2496 105.553 28.1941C105.553 28.1246 105.553 28.0691 105.553 27.9996C105.553 26.6941 105.553 25.3886 105.553 24.0831C105.553 24.0553 105.553 23.9998 105.553 23.9581C105.525 22.972 104.831 22.7776 104.164 22.9582C103.942 23.0276 103.733 23.1248 103.525 23.2498C103.22 23.4165 102.928 23.6248 102.609 23.8331C102.553 23.8609 102.525 23.9303 102.525 23.9998C102.525 25.3608 102.525 26.7219 102.525 28.0968C102.525 28.1941 102.553 28.2357 102.65 28.2357C102.817 28.2496 103.039 28.3052 103.303 28.3329ZM120.899 22.6665C120.677 22.611 120.469 22.5693 120.247 22.5137C120.261 22.361 120.275 22.2221 120.316 22.0832C121.122 22.0832 121.927 22.0832 122.761 22.0832C122.774 22.2082 122.816 22.361 122.83 22.5137C122.566 22.5415 122.33 22.5971 122.08 22.6109C121.941 22.6248 121.872 22.6804 121.816 22.8193C121.094 24.6942 120.386 26.583 119.636 28.444C119.136 29.6523 118.594 30.8328 118.052 32.0411C118.038 32.0689 117.969 32.1383 117.927 32.1383C117.441 32.1383 116.941 32.1383 116.455 32.1383C116.455 31.7078 116.455 31.2912 116.455 30.8467C116.677 30.8467 116.9 30.8328 117.122 30.8467C117.427 30.8745 117.608 30.7634 117.761 30.4995C118.108 29.9162 118.469 29.3468 118.83 28.7774C118.844 28.7496 118.886 28.694 118.913 28.6385C118.816 28.6663 118.719 28.694 118.608 28.7079C118.455 28.3329 118.316 27.958 118.163 27.5552C117.539 25.9719 116.941 24.3887 116.33 22.7915C116.275 22.6526 116.205 22.5971 116.066 22.5971C115.802 22.5693 115.566 22.5276 115.316 22.4998C115.33 22.3471 115.372 22.2082 115.386 22.0693C116.4 22.0693 117.4 22.0693 118.427 22.0693C118.441 22.1943 118.483 22.3471 118.497 22.4998C118.15 22.5554 117.844 22.5971 117.497 22.6526C117.719 23.2776 117.927 23.8748 118.15 24.4581C118.413 25.1664 118.65 25.8608 118.9 26.5552C119.025 26.8886 119.094 27.2219 119.108 27.583C119.108 27.6524 119.122 27.7219 119.177 27.7913C119.747 26.1108 120.316 24.4025 120.899 22.6665ZM93.5534 25.5553C93.5673 24.6664 93.7756 23.8192 94.4006 23.1248C94.9283 22.5276 95.6228 22.236 96.3727 21.986C97.7754 21.5554 99.3587 22.361 99.9143 23.8053C100.303 24.8331 100.303 25.8886 99.8865 26.9024C99.4559 27.9441 98.5949 28.4857 97.5532 28.8329C95.7894 29.4023 93.9284 28.2357 93.6228 26.2497C93.5951 26.0136 93.5673 25.7775 93.5534 25.5553ZM99.0115 25.4164C98.9976 25.2914 98.9976 25.0553 98.956 24.8331C98.8587 24.1387 98.5949 23.5276 98.0393 23.0415C97.2477 22.3332 95.7339 22.1804 95.095 23.6803C94.7339 24.5275 94.6645 25.3886 94.8728 26.2636C95.0256 26.9302 95.3311 27.4996 95.8866 27.9302C96.6922 28.5274 97.9421 28.569 98.5671 27.3608C98.8865 26.7774 98.9837 26.1525 99.0115 25.4164ZM81.3733 41.6241C81.3872 41.7768 81.4011 41.9157 81.4289 42.0824C80.8733 42.1796 80.3317 42.2907 79.7762 42.4157C79.6373 42.0546 79.4984 41.7074 79.3456 41.3324C79.2901 41.3602 79.2484 41.4019 79.1929 41.4296C78.7068 41.7907 78.2068 42.1518 77.7346 42.499C77.6651 42.5546 77.5679 42.5824 77.4707 42.5824C77.0124 42.5685 76.5541 42.4435 76.193 42.1518C75.5541 41.6519 75.3875 40.6936 75.7624 39.9158C75.9013 39.638 76.0958 39.4575 76.4013 39.3603C77.2902 39.0825 78.1929 38.7631 79.0818 38.4714C79.2067 38.4436 79.2484 38.3881 79.2345 38.2492C79.2206 37.8603 79.2484 37.4437 79.2067 37.0409C79.1373 36.4437 78.8318 36.2215 78.2207 36.291C77.8735 36.3187 77.554 36.4298 77.2068 36.5132C77.1374 36.5271 77.0679 36.6104 77.0541 36.6798C76.9707 36.9715 76.9013 37.2631 76.8318 37.5687C76.4846 37.5687 76.1374 37.5687 75.7902 37.5687C75.7902 37.2354 75.7902 36.9298 75.7902 36.6243C75.7902 36.5965 75.8458 36.5409 75.8735 36.5271C76.6513 36.1799 77.4013 35.8188 78.179 35.4854C78.2068 35.4715 78.2623 35.4577 78.304 35.4715C78.5957 35.4854 78.8873 35.4854 79.1651 35.541C79.9012 35.6799 80.2484 36.041 80.3317 36.777C80.3595 37.1243 80.4011 37.4437 80.4011 37.7909C80.4011 38.7492 80.4011 39.7353 80.4011 40.6936C80.4011 40.9852 80.4289 41.2769 80.5956 41.513C80.6234 41.5685 80.7206 41.6102 80.79 41.6102C80.9567 41.6241 81.165 41.6241 81.3733 41.6241ZM79.2345 38.9575C79.1512 38.9853 79.0956 39.0131 79.0401 39.027C78.4151 39.2908 77.804 39.5547 77.1652 39.8047C76.9429 39.888 76.818 40.0408 76.7485 40.263C76.6652 40.5269 76.6791 40.7769 76.7485 41.013C76.8457 41.388 77.1235 41.6102 77.5263 41.5963C77.7485 41.5824 77.9846 41.5407 78.179 41.4435C78.5262 41.2491 78.8456 41.013 79.179 40.7908C79.2067 40.7769 79.2484 40.7213 79.2484 40.6658C79.2345 40.1102 79.2345 39.5408 79.2345 38.9575ZM101.942 41.6241C101.734 41.6241 101.553 41.6102 101.359 41.6241C101.234 41.6241 101.192 41.5685 101.136 41.4852C100.997 41.2074 100.97 40.9019 100.97 40.5963C100.97 39.5964 100.97 38.5825 100.97 37.5826C100.97 37.2215 100.914 36.8465 100.845 36.4854C100.775 36.1382 100.609 35.8465 100.275 35.6799C99.817 35.4577 99.3309 35.4438 98.831 35.4577C98.8032 35.4577 98.7754 35.4715 98.7476 35.4854C97.9977 35.8326 97.2199 36.1799 96.4561 36.5132C96.4283 36.5271 96.3727 36.5826 96.3588 36.6104C96.3588 36.9159 96.3588 37.2354 96.3588 37.5548C96.706 37.5548 97.0116 37.5548 97.3449 37.5548C97.3727 37.5548 97.4282 37.4854 97.4421 37.4576C97.5116 37.1937 97.581 36.9298 97.6505 36.6521C97.6643 36.5965 97.7199 36.5132 97.7477 36.5132C98.1365 36.4298 98.5393 36.3048 98.956 36.2771C99.4698 36.2493 99.7476 36.4993 99.8031 37.0132C99.8309 37.4298 99.817 37.8326 99.8309 38.2492C99.8309 38.3742 99.7754 38.402 99.6781 38.4436C98.7615 38.7492 97.8727 39.0686 96.956 39.3603C96.6505 39.4575 96.4561 39.638 96.3311 39.9158C95.9839 40.6241 96.0672 41.4435 96.5672 41.9852C96.9838 42.4296 97.5255 42.5685 98.1088 42.5824C98.1643 42.5824 98.2338 42.5546 98.2754 42.5129C98.6365 42.249 98.9976 41.9991 99.3587 41.7213C99.5254 41.5963 99.7059 41.4574 99.8865 41.3324C100.039 41.7074 100.178 42.0546 100.317 42.4157C100.873 42.3185 101.414 42.2074 101.97 42.1102C101.984 41.9157 101.956 41.763 101.942 41.6241ZM99.817 40.6797C99.817 40.7074 99.7893 40.763 99.7476 40.7769C99.442 40.9991 99.1226 41.2213 98.8032 41.4158C98.5115 41.5824 98.206 41.6796 97.8588 41.5685C97.6227 41.4991 97.4699 41.3463 97.3588 41.1241C97.2338 40.8186 97.2338 40.4852 97.3449 40.1797C97.4144 39.9853 97.5116 39.8741 97.7199 39.7908C98.3588 39.5269 98.9976 39.2631 99.6504 38.9992C99.7059 38.9853 99.7476 38.9714 99.817 38.9297C99.8309 39.5408 99.8309 40.1102 99.817 40.6797ZM81.3455 23.9859C81.3455 23.6526 81.3455 23.347 81.3455 23.0554C81.3455 23.0276 81.4011 22.9581 81.4428 22.9304C82.1927 22.5832 82.9566 22.2082 83.7343 21.9026C83.9427 21.8193 84.2204 21.8888 84.4565 21.8888C84.5538 21.8888 84.6649 21.9026 84.7621 21.9443C85.4982 22.0971 85.8593 22.5137 85.9009 23.347C85.9287 24.4581 85.9287 25.5831 85.9565 26.7219C85.9565 26.958 85.9704 27.2219 85.9843 27.458C85.9843 27.5274 85.9981 27.583 86.012 27.6524C86.1092 28.0274 86.1509 28.0691 86.5398 28.0691C86.6648 28.0691 86.7759 28.0691 86.9148 28.0691C86.9287 28.2218 86.9425 28.3607 86.9703 28.5135C86.4148 28.6107 85.8731 28.7218 85.3176 28.819C85.1787 28.4579 85.0398 28.1107 84.8871 27.7357C84.8176 27.7913 84.7621 27.8191 84.7204 27.8607C84.2343 28.2079 83.7621 28.569 83.276 28.9024C83.2205 28.9301 83.151 28.9857 83.1094 28.9857C82.4427 28.9857 81.8178 28.7913 81.4289 28.2079C81.0122 27.6108 81.0122 26.958 81.3455 26.2775C81.4705 25.9997 81.6511 25.8469 81.9427 25.7497C82.8594 25.472 83.7482 25.1525 84.6371 24.8609C84.776 24.8053 84.8315 24.7636 84.8037 24.6248C84.7899 24.2498 84.7899 23.8748 84.776 23.5137C84.7482 22.9304 84.4426 22.6526 83.8593 22.7082C83.4844 22.7359 83.1233 22.847 82.7483 22.9304C82.6927 22.9443 82.6233 23.0276 82.6094 23.0831C82.5399 23.347 82.4705 23.6109 82.4011 23.8748C82.3872 23.9303 82.3177 23.972 82.2761 23.972C82.0122 24.0137 81.6928 23.9859 81.3455 23.9859ZM84.8454 25.3886C84.7621 25.4164 84.6926 25.4442 84.6371 25.472C83.9982 25.7358 83.3594 25.9997 82.7344 26.2636C82.5816 26.333 82.4566 26.4164 82.4011 26.5691C82.2483 26.9302 82.2483 27.3052 82.415 27.6524C82.5122 27.8607 82.6927 27.958 82.901 28.0274C83.2621 28.1107 83.5677 28.0135 83.8871 27.8191C84.1788 27.6246 84.4704 27.4302 84.7621 27.2358C84.7899 27.208 84.8454 27.1524 84.8454 27.0969C84.8454 26.5275 84.8454 25.9719 84.8454 25.3886ZM104.511 41.7768C104.9 41.8324 105.261 41.8602 105.664 41.9157C105.65 42.0546 105.65 42.1796 105.608 42.2768C105.595 42.3324 105.511 42.3602 105.442 42.3602C105.025 42.3602 104.636 42.3324 104.22 42.3324C103.692 42.3324 103.136 42.3463 102.609 42.3602C102.539 42.3602 102.47 42.3602 102.386 42.3602C102.372 42.2074 102.331 42.0824 102.317 41.9157C102.664 41.8602 102.998 41.8324 103.359 41.7768C103.359 38.8742 103.359 35.9715 103.359 33.0689C103.011 33.0689 102.692 33.0689 102.331 33.0689C102.317 32.93 102.275 32.7911 102.261 32.6244C103.011 32.4578 103.72 32.1106 104.525 32.1245C104.511 35.3465 104.511 38.5686 104.511 41.7768ZM93.7617 33.9022C93.7617 34.5271 93.7617 35.1521 93.7617 35.791C94.4978 35.791 95.2339 35.791 95.9839 35.791C95.9839 35.9993 95.9839 36.1799 95.9839 36.3882C95.2478 36.3882 94.5256 36.3882 93.7895 36.3882C93.7895 36.4715 93.7756 36.5271 93.7756 36.5965C93.7756 37.9159 93.7756 39.2492 93.7756 40.5686C93.7756 40.6936 93.7895 40.8047 93.8034 40.9297C93.8589 41.3046 94.095 41.5269 94.47 41.5546C94.8033 41.5685 95.095 41.4852 95.4005 41.3463C95.4839 41.3185 95.595 41.263 95.6922 41.2213C95.7616 41.3602 95.8311 41.4991 95.9144 41.6519C95.5533 41.8602 95.2061 42.0685 94.845 42.2491C94.7756 42.3046 94.6922 42.3324 94.6228 42.3879C94.0534 42.7213 93.5256 42.5546 93.0117 42.2907C92.7201 42.1379 92.6784 41.8046 92.6507 41.4991C92.6368 41.2769 92.6368 41.0547 92.6368 40.8324C92.6368 39.4436 92.6368 38.0548 92.6368 36.6521C92.6368 36.5826 92.6368 36.4993 92.6368 36.416C92.1785 36.416 91.7062 36.416 91.2618 36.416C91.2063 36.2632 91.2479 36.1521 91.3451 36.041C91.5674 35.7632 91.8451 35.6243 92.2062 35.6938C92.359 35.7076 92.5118 35.6938 92.7062 35.6938C92.7062 35.4299 92.6923 35.1799 92.7062 34.9438C92.7062 34.8466 92.7618 34.7355 92.8034 34.666C92.9701 34.4438 93.1784 34.2355 93.3728 34.0272C93.4978 33.8605 93.4978 33.8605 93.7617 33.9022ZM78.1929 22.0415C78.1929 22.6387 78.1929 23.2081 78.1929 23.8053C78.429 23.5276 78.679 23.2776 78.9012 22.9998C79.179 22.6665 79.4706 22.3471 79.7484 22.0415C79.8039 21.986 79.9012 21.9443 79.9845 21.9443C80.29 21.9304 80.6095 21.9443 80.9289 21.9443C80.9289 22.3748 80.9289 22.7915 80.9289 23.222C80.665 23.222 80.415 23.2082 80.1789 23.222C80.0123 23.2359 79.8317 23.2776 79.6928 23.347C79.1234 23.6387 78.679 24.0692 78.3179 24.5831C78.2901 24.6109 78.2623 24.6803 78.2623 24.722C78.2623 25.833 78.2623 26.958 78.2623 28.0691C78.2623 28.0968 78.2623 28.1246 78.2762 28.1663C78.7623 28.2218 79.2623 28.2496 79.7345 28.3052C79.7206 28.4718 79.6789 28.6524 79.6651 28.7913C78.4984 28.7913 77.3318 28.7913 76.1652 28.7913C76.1513 28.6524 76.1096 28.5135 76.0958 28.3607C76.4013 28.3329 76.693 28.2774 77.0124 28.2635C77.1096 28.2496 77.1652 28.208 77.1652 28.1107C77.1652 26.4302 77.1652 24.7359 77.1652 23.0554C77.1652 23.0276 77.1652 22.9998 77.1513 22.9582C76.8041 22.9859 76.4569 23.0276 76.1096 23.0415C76.0958 22.8887 76.0541 22.7498 76.0402 22.5832C76.7485 22.3887 77.4152 22.0832 78.1929 22.0415ZM91.6507 41.9157C91.6368 42.0685 91.5951 42.2074 91.5813 42.3463C91.234 42.3463 90.8868 42.3463 90.5535 42.3463C89.9147 42.3463 89.2758 42.3602 88.623 42.3602C88.3453 42.3602 88.3453 42.3602 88.2897 42.0963C88.2758 42.0407 88.2758 41.9713 88.2758 41.9296C88.623 41.8741 88.9702 41.8463 89.3175 41.7907C89.3175 40.0408 89.3175 38.2909 89.3175 36.5132C88.9702 36.5271 88.623 36.5687 88.2758 36.5826C88.2619 36.4298 88.2203 36.291 88.2064 36.1382C88.9564 35.9715 89.6785 35.6243 90.498 35.6382C90.498 37.7076 90.498 39.7492 90.498 41.7907C90.8868 41.8324 91.2479 41.8602 91.6507 41.9157ZM89.7341 34.7216C89.7063 34.7216 89.6786 34.7355 89.6508 34.7355C89.3452 34.7493 89.2619 34.666 89.2063 34.3605C89.1508 34.0272 89.1786 33.7077 89.2619 33.3744C89.2758 33.3189 89.3175 33.2494 89.3452 33.2494C89.7202 33.2355 90.123 33.1244 90.498 33.2355C90.5535 33.2494 90.5952 33.3189 90.5952 33.3605C90.6646 33.7494 90.6646 34.1522 90.5396 34.541C90.5257 34.5966 90.4563 34.6382 90.4146 34.6382C90.1924 34.6799 89.9563 34.6938 89.7341 34.7216Z" fill="white"/>
</g>
</g>
<defs>
<filter id="filter0_d" x="-3.33333" y="-1.66667" width="169.667" height="71.6667" filterUnits="userSpaceOnUse" color-interpolation-filters="sRGB">
<feFlood flood-opacity="0" result="BackgroundImageFix"/>
<feColorMatrix in="SourceAlpha" type="matrix" values="0 0 0 0 0 0 0 0 0 0 0 0 0 0 0 0 0 0 127 0"/>
<feOffset dy="1.66667"/>
<feGaussianBlur stdDeviation="1.66667"/>
<feColorMatrix type="matrix" values="0 0 0 0 0 0 0 0 0 0 0 0 0 0 0 0 0 0 0.1 0"/>
<feBlend mode="normal" in2="BackgroundImageFix" result="effect1_dropShadow"/>
<feBlend mode="normal" in="SourceGraphic" in2="effect1_dropShadow" result="shape"/>
</filter>
<clipPath id="clip0">
<rect width="84" height="28" fill="white" transform="translate(39.5 18.5)"/>
</clipPath>
</defs>
</svg>
