<svg width="167" height="68" viewBox="0 0 167 68" fill="none" xmlns="http://www.w3.org/2000/svg">
<path d="M50.2187 39.7929V19.918L41.8438 34.4596L50.2187 39.7929Z" fill="white"/>
<path d="M50.2227 19.918L58.5976 34.4596L50.2227 39.7929V19.918Z" fill="white"/>
<path d="M41.8438 36.1816L50.2326 41.5289V48.4177" fill="white"/>
<path d="M58.5976 36.1816L50.2227 41.5289V48.4177" fill="white"/>
<path opacity="0.75" d="M50.2209 29.6953L41.832 34.4592L50.2209 39.7925V29.6953Z" fill="white"/>
<path opacity="0.75" d="M50.2227 29.6953L58.5976 34.4592L50.2227 39.7925V29.6953Z" fill="white"/>
<path d="M64.0278 29.2092C64.0556 30.237 64.8055 30.7231 65.6528 30.7231C66.1944 30.7231 66.7361 30.5009 66.9583 30.0009H68.375C68.0555 31.3342 66.8472 32.0286 65.5833 32.0286C64.0694 32.0286 62.5556 31.0009 62.5556 28.7647C62.5556 26.5981 63.9861 25.487 65.5972 25.487C67.125 25.487 68.4305 26.5009 68.4305 28.5842V29.2092H64.0278ZM64.0694 28.0842H66.9305C66.9305 27.2509 66.3472 26.7786 65.5694 26.7786C64.875 26.7925 64.1944 27.1675 64.0694 28.0842ZM73.2361 31.8897H72.2361C71.0416 31.8897 70.3055 31.5147 70.3055 29.8342V26.9592H69.1667V25.5981H70.3194V24.1814L71.8333 23.7648V25.5981H73.0833V26.9592H71.8333V29.7925C71.8333 30.2231 71.9583 30.5425 72.5833 30.5425H73.2222L73.2361 31.8897ZM80.2361 27.8342V31.8897H78.7222V27.9592C78.7222 27.2509 78.2916 26.8342 77.5416 26.8342C76.6389 26.8342 76.1527 27.4592 76.1527 28.487V31.8897H74.6389V23.1953H76.1666V26.5286C76.5139 25.9314 77.0139 25.487 78.0833 25.487C79.5 25.4731 80.2361 26.3342 80.2361 27.8342ZM83.1666 29.2092C83.1944 30.237 83.9444 30.7231 84.7916 30.7231C85.3333 30.7231 85.8749 30.5009 86.0972 30.0009H87.5138C87.1944 31.3342 85.9861 32.0286 84.7222 32.0286C83.2083 32.0286 81.6944 31.0009 81.6944 28.7647C81.6944 26.5981 83.125 25.487 84.7361 25.487C86.2638 25.487 87.5694 26.5009 87.5694 28.5842V29.2092H83.1666ZM83.2083 28.0842H86.0694C86.0694 27.2509 85.4861 26.7786 84.7083 26.7786C84.0138 26.7925 83.3472 27.1675 83.2083 28.0842ZM92.6666 27.0009H92.2638C91.2083 27.0009 90.6249 27.5842 90.6249 28.8203V31.8897H89.1111V25.5981H90.6249V26.5286C90.9444 25.8342 91.5277 25.5286 92.2638 25.5286H92.6805L92.6666 27.0009ZM94.861 29.2092C94.8888 30.237 95.6388 30.7231 96.486 30.7231C97.0277 30.7231 97.5694 30.5009 97.7916 30.0009H99.2082C98.8888 31.3342 97.6805 32.0286 96.4166 32.0286C94.9027 32.0286 93.3888 31.0009 93.3888 28.7647C93.3888 26.5981 94.8194 25.487 96.4305 25.487C97.9583 25.487 99.2638 26.5009 99.2638 28.5842V29.2092H94.861ZM94.9027 28.0842H97.7638C97.7638 27.2509 97.1805 26.7786 96.4027 26.7786C95.7083 26.7925 95.0277 27.1675 94.9027 28.0842ZM106.222 31.8897H104.736V30.987C104.361 31.5703 103.847 31.9453 102.986 31.9453C101.667 31.9453 100.722 31.0981 100.722 29.487V25.5842H102.236V29.3897C102.236 30.237 102.68 30.612 103.333 30.612C104.042 30.612 104.694 30.0842 104.694 28.6397V25.5842H106.208L106.222 31.8897ZM117.167 27.6536V31.9036H115.653V27.9453C115.653 27.1953 115.305 26.8481 114.653 26.8481C113.93 26.8481 113.444 27.2786 113.444 28.362V31.9036H111.93V27.9453C111.93 27.1953 111.542 26.8481 110.917 26.8481C110.208 26.8481 109.708 27.2925 109.708 28.3481V31.9036H108.194V25.5981H109.694V26.5286C109.889 26.0286 110.389 25.487 111.347 25.487C112.194 25.487 112.805 25.8759 113.111 26.5286C113.347 26.0842 113.833 25.487 114.972 25.487C116.305 25.4731 117.167 26.2925 117.167 27.6536ZM65.3472 36.3481C64.8056 36.3481 64.7083 36.6258 64.7083 36.987V37.4036H65.8611V38.7647H64.7083V43.6953H63.1944V38.7647H62.25V37.4036H63.1944V37.0703C63.1944 35.3758 63.9444 35.0147 65.1111 35.0147H66.0278V36.362L65.3472 36.3481ZM72.9722 40.5564C72.9722 42.6119 71.6805 43.8342 69.8333 43.8342C68 43.8342 66.7083 42.6119 66.7083 40.5564C66.7083 38.5147 68 37.2925 69.8333 37.2925C71.6805 37.2786 72.9722 38.5008 72.9722 40.5564ZM68.2639 40.5564C68.2639 41.8203 68.9444 42.4314 69.8611 42.4314C70.8472 42.4314 71.4166 41.7369 71.4166 40.5564C71.4166 39.3064 70.7361 38.6953 69.8194 38.6953C68.8333 38.6953 68.2639 39.3758 68.2639 40.5564ZM79.9305 43.6953H78.4583V42.7925C78.0833 43.3758 77.5694 43.7508 76.7083 43.7508C75.3889 43.7508 74.4444 42.9036 74.4444 41.2925V37.3897H75.9583V41.1953C75.9583 42.0425 76.4027 42.4175 77.0555 42.4175C77.7639 42.4175 78.4166 41.8897 78.4166 40.4453V37.3897H79.9305V43.6953ZM87.4861 39.6258V43.6953H85.9722V39.7647C85.9722 39.0564 85.5416 38.6397 84.7916 38.6397C83.8888 38.6397 83.4027 39.2647 83.4027 40.2925V43.6953H81.8888V37.4175H83.4027V38.3342C83.75 37.7508 84.2777 37.3064 85.3194 37.3064C86.7499 37.2786 87.4861 38.1397 87.4861 39.6258ZM95.2777 43.6953H93.7777V42.7369C93.4444 43.4592 92.6527 43.8342 91.7777 43.8342C90.236 43.8342 88.9444 42.7508 88.9444 40.5425C88.9444 38.3619 90.236 37.2925 91.7777 37.2925C92.5972 37.2925 93.3749 37.6258 93.7499 38.2369V35.0008H95.2638L95.2777 43.6953ZM93.7916 40.5425C93.7916 39.2369 92.9583 38.6258 92.1388 38.6258C91.2499 38.6258 90.4999 39.2508 90.4999 40.5425C90.4999 41.8064 91.2499 42.4453 92.1388 42.4453C92.9583 42.4453 93.7916 41.8342 93.7916 40.5425ZM102.292 39.4731V43.7092H100.805V42.7925C100.319 43.598 99.4999 43.848 98.8333 43.848C97.8333 43.848 96.8055 43.3064 96.8055 41.9731C96.8055 40.4036 98.236 40.1258 98.8194 40.0425L100.125 39.8619C100.403 39.8342 100.875 39.6953 100.875 39.1814C100.875 38.6814 100.43 38.4869 99.8471 38.4869C98.9999 38.4869 98.5971 38.8758 98.5277 39.4175H97.0694C97.236 37.9592 98.486 37.2925 99.9166 37.2925C101.389 37.2786 102.292 37.9869 102.292 39.4731ZM100.819 41.0564V40.7231C100.625 40.8064 100.417 40.8481 100.069 40.9036L99.3194 41.0008C98.9305 41.0425 98.3055 41.2231 98.3055 41.8481C98.3055 42.3342 98.6805 42.5703 99.2221 42.5703C100.111 42.5703 100.819 41.9314 100.819 41.0564ZM107.417 43.6953H106.417C105.222 43.6953 104.486 43.3203 104.486 41.6397V38.7647H103.333V37.4036H104.486V35.987L106 35.5703V37.4036H107.25V38.7647H106V41.598C106 42.0286 106.125 42.348 106.75 42.348H107.389L107.417 43.6953ZM108.736 34.8342H110.347V36.5564H108.736V34.8342ZM108.778 43.6953H110.292V37.4036H108.778V43.6953ZM118.042 40.5564C118.042 42.6119 116.75 43.8342 114.903 43.8342C113.069 43.8342 111.778 42.6119 111.778 40.5564C111.778 38.5147 113.069 37.2925 114.903 37.2925C116.764 37.2786 118.042 38.5008 118.042 40.5564ZM113.347 40.5564C113.347 41.8203 114.028 42.4314 114.944 42.4314C115.93 42.4314 116.5 41.7369 116.5 40.5564C116.5 39.3064 115.819 38.6953 114.903 38.6953C113.917 38.6953 113.347 39.3758 113.347 40.5564ZM125.167 39.6258V43.6953H123.653V39.7647C123.653 39.0564 123.222 38.6397 122.472 38.6397C121.569 38.6397 121.083 39.2647 121.083 40.2925V43.6953H119.569V37.4175H121.083V38.3342C121.43 37.7508 121.958 37.3064 123 37.3064C124.43 37.2786 125.18 38.1397 125.167 39.6258Z" fill="white"/>
</svg>
