<svg width="167" height="68" viewBox="0 0 167 68" fill="none" xmlns="http://www.w3.org/2000/svg">
<g filter="url(#filter0_d)">
<path d="M85.5184 43.9919C81.6537 43.9919 81.4138 41.7187 82.1278 39.1354H85.2494C84.9457 40.5614 84.7522 41.7598 86.4677 41.7598C87.5225 41.7598 88.1839 41.0786 88.3994 40.0648C88.9703 37.3785 82.7227 37.2135 83.6681 32.7695C84.1642 30.4344 85.6761 28.5745 89.4789 28.5745C92.5173 28.5745 93.7359 29.938 92.8655 33.0597H89.8271C90.0646 31.943 90.1204 30.8064 88.8599 30.8064C87.8472 30.8064 87.1293 31.3649 86.9097 32.3973C86.307 35.2284 92.6425 34.9805 91.6446 39.6727C90.8224 43.5377 87.8948 43.9919 85.5184 43.9919ZM103.764 43.744L106.938 28.8227H115.081L114.593 31.1168H109.571L108.789 34.7954H113.418L112.93 37.0894H108.3L107.373 41.4506H112.561L112.073 43.744H103.764ZM100.728 34.7954L101.999 28.8224H105.12L101.945 43.745H98.8259L100.241 37.0895H96.6652L95.2498 43.745H92.1285L95.3017 28.8224H98.4232L97.1531 34.7954H100.728ZM77.4483 33.0598L72.2163 43.7451H69.0698L76.3767 28.8226H80.4898L81.3675 43.7451H78.0789L77.4483 33.0598ZM121.525 28.8214C125.617 28.8214 125.802 31.5498 124.813 36.2003C124.325 38.4956 123.56 43.7441 118.227 43.7441H113.143C114.201 38.7698 115.259 33.7951 116.317 28.8214H121.525ZM121.633 36.2832C122.217 33.5345 122.732 31.1167 120.562 31.1167H118.949C118.217 34.561 117.485 38.0052 116.752 41.4506H118.26C120.162 41.4506 120.837 40.0239 121.633 36.2832ZM68.3267 43.7451H65.2066L66.6216 37.09H63.0457L61.6305 43.7451H58.5088L61.6833 28.8228H64.8036L63.5334 34.7954H67.1095L68.3792 28.8228H71.4995L68.3267 43.7451ZM52.2994 34.7954L53.0813 31.1168H49.5069L48.7235 34.7954H52.2994ZM59.3225 31.1168H56.2027L55.4206 34.7954H58.5405L58.0524 37.0899H54.9329L53.5164 43.745H50.3964L51.8113 37.0899H48.236L46.8207 43.745H43.7002L45.1154 37.0899H41.9961L42.4838 34.7954H45.6031L46.385 31.1168H43.2657L43.7536 28.8228H46.8731L48.1432 22.8535H51.2632L49.9944 28.8228H53.5703L54.8395 22.8535H57.9601L56.6909 28.8228H59.8106L59.3225 31.1168Z" fill="white"/>
</g>
<defs>
<filter id="filter0_d" x="38.6628" y="21.1868" width="89.9835" height="27.8051" filterUnits="userSpaceOnUse" color-interpolation-filters="sRGB">
<feFlood flood-opacity="0" result="BackgroundImageFix"/>
<feColorMatrix in="SourceAlpha" type="matrix" values="0 0 0 0 0 0 0 0 0 0 0 0 0 0 0 0 0 0 127 0"/>
<feOffset dy="1.66667"/>
<feGaussianBlur stdDeviation="1.66667"/>
<feColorMatrix type="matrix" values="0 0 0 0 0 0 0 0 0 0 0 0 0 0 0 0 0 0 0.1 0"/>
<feBlend mode="normal" in2="BackgroundImageFix" result="effect1_dropShadow"/>
<feBlend mode="normal" in="SourceGraphic" in2="effect1_dropShadow" result="shape"/>
</filter>
</defs>
</svg>
