<svg width="167" height="68" viewBox="0 0 167 68" fill="none" xmlns="http://www.w3.org/2000/svg">
<path d="M72.6109 27.8971V34.9534H65.6005V28.8083C65.6005 28.3032 65.1908 27.8936 64.6858 27.8936H62.3125V44.7855C62.3125 45.2906 62.7222 45.7002 63.2272 45.7002H65.6005V37.8211H72.6144V44.782C72.6073 45.287 73.0099 45.7038 73.515 45.7108H73.5291H75.9024V28.8083C75.9024 28.3032 75.4927 27.8936 74.9877 27.8936H72.6109V27.8971ZM86.5327 32.3117V40.7771C86.5398 41.547 86.1372 42.2639 85.4732 42.6595C83.6155 43.7331 81.6908 42.3875 81.6908 40.6217V33.2264C81.6908 32.7213 81.2811 32.3117 80.7761 32.3117H78.4028V40.9254C78.4099 43.7013 80.656 45.9475 83.4319 45.9616H84.781C87.5604 45.9545 89.8136 43.7013 89.8207 40.9219V33.2264C89.8207 32.7213 89.411 32.3117 88.906 32.3117H86.5327Z" fill="white"/>
<path d="M122.438 45.711H124.811V33.7174C124.811 33.2124 124.402 32.8027 123.897 32.8027H121.523V44.7892C121.52 45.2943 121.926 45.7075 122.431 45.711H122.438Z" fill="white"/>
<path d="M124.863 30.4041C125.25 29.4689 124.806 28.3966 123.871 28.0092C122.936 27.6218 121.863 28.0659 121.476 29.0012C121.088 29.9365 121.533 31.0087 122.468 31.3961C123.403 31.7835 124.475 31.3394 124.863 30.4041Z" fill="white"/>
<path d="M98.3007 32.3047C94.8573 32.3047 92.0391 34.7663 92.0391 38.2096V40.0708C92.0391 43.5142 94.8573 45.9617 98.3007 45.9617C101.744 45.9617 104.562 43.5142 104.562 40.0708V38.2096C104.566 34.7663 101.748 32.3047 98.3007 32.3047ZM101.26 40.2933C101.26 41.9214 99.9288 43.0057 98.2972 43.0057C96.6656 43.0057 95.3377 41.9214 95.3377 40.2933V37.9695C95.3377 36.3414 96.6691 35.2572 98.2972 35.2572C99.9253 35.2572 101.26 36.3414 101.26 37.9695V40.2933Z" fill="white"/>
<path d="M113.046 32.3045C112.015 32.2975 110.998 32.5306 110.069 32.9791V28.8258C110.069 28.3208 109.66 27.9111 109.155 27.9111H106.781V40.0707C106.781 43.5141 109.6 45.9615 113.043 45.9615C116.486 45.9615 119.305 43.5141 119.305 40.0707V38.2095C119.308 34.7661 116.497 32.3045 113.046 32.3045ZM116.01 40.2932C116.01 41.9213 114.678 43.0055 113.046 43.0055C111.418 43.0055 110.087 41.9213 110.087 40.2932V37.9693C110.087 36.3412 111.418 35.257 113.046 35.257C114.675 35.257 116.01 36.3412 116.01 37.9693V40.2932Z" fill="white"/>
<path d="M52.3724 29.3563C52.3724 25.7681 50.6242 22.6779 49.2928 21.6749C49.2928 21.6749 49.1903 21.6184 49.2009 21.7632C49.0915 28.6959 45.5492 30.5747 43.6032 33.1034C39.111 38.9448 43.2854 45.3477 47.5446 46.5308C49.9179 47.1948 46.9936 45.3583 46.6158 41.4841C46.1531 36.8081 52.3724 33.2341 52.3724 29.3563Z" fill="white"/>
<path d="M54.4141 31.7189C54.3858 31.7013 54.347 31.6871 54.3223 31.7331C54.2481 32.6054 53.3581 34.4701 52.228 36.1865C48.3961 41.9996 50.5787 44.8038 51.8077 46.3118C52.5211 47.1841 51.8077 46.3118 53.5877 45.4183C55.7879 44.0833 57.2147 41.7736 57.4266 39.2096C57.7762 35.0775 55.297 32.4747 54.4141 31.7189Z" fill="white"/>
</svg>
