<svg width="168" height="67" viewBox="0 0 168 67" fill="none" xmlns="http://www.w3.org/2000/svg">
<path d="M75.4453 32.9839V45.6707H80.2847V43.9309H77.4933V32.9839H75.4453ZM125.669 37.5149V35.4127C125.669 33.872 124.636 32.875 122.769 32.875C120.903 32.875 119.87 33.8899 119.87 35.4127V43.2421C119.87 44.7645 120.903 45.7798 122.769 45.7798C124.636 45.7798 125.669 44.7828 125.669 43.2421V39.3455H122.806V41.0853H123.676V43.2421C123.676 43.7316 123.295 43.9853 122.769 43.9853C122.208 43.9853 121.936 43.7316 121.936 43.2421V35.4127C121.791 34.4157 123.73 34.452 123.676 35.4127V37.5149H125.669ZM116.643 36.7174C116.643 37.6963 116.662 38.7654 116.698 39.9252L114.813 32.9838H112.584V45.6709H114.45V41.9373C114.45 40.9042 114.432 39.7985 114.396 38.6022L116.335 45.6709H118.51V32.9838H116.643V36.7174ZM109.049 45.6709H111.097V32.984H109.049V45.6709ZM105.666 38.3303C105.666 38.8199 105.412 39.0735 104.923 39.0735H103.998V34.7237H104.923C105.412 34.7237 105.666 34.9775 105.666 35.4669V38.3303ZM107.714 38.3303V35.4669C107.714 33.9261 106.753 32.9839 104.923 32.9839H101.95V45.6708H103.998V40.8137H104.633L105.928 45.6708H107.976L106.583 40.4475C107.329 40.0386 107.714 39.3045 107.714 38.3303ZM98.8809 38.3303C98.8809 38.8199 98.6269 39.0735 98.1379 39.0735H97.2139V34.7237H98.1379C98.6269 34.7237 98.8809 34.9775 98.8809 35.4669V38.3303ZM98.1379 32.9839H95.1654V45.6708H97.2139V40.8137H98.1379C99.9689 40.8137 100.929 39.8709 100.929 38.3303V35.4669C100.929 33.9261 99.9689 32.9839 98.1379 32.9839ZM91.7577 43.242C91.8663 44.2211 89.945 44.2211 90.0721 43.242V35.4126C89.945 34.4338 91.8663 34.4338 91.7577 35.4126V43.242ZM90.9055 32.8751C89.0389 32.8751 88.0058 33.8899 88.0058 35.4126V43.242C88.0058 44.7646 89.0389 45.7797 90.9055 45.7797C92.7724 45.7797 93.8057 44.7827 93.8057 43.242V35.4126C93.8057 33.8719 92.7724 32.8751 90.9055 32.8751ZM84.7433 43.242C84.8519 44.2211 82.9308 44.2211 83.0579 43.242V35.4126C82.9308 34.4338 84.8519 34.4338 84.7433 35.4126V43.242ZM83.8913 32.8751C82.0246 32.8751 80.9916 33.8899 80.9916 35.4126V43.242C80.9916 44.7646 82.0246 45.7797 83.8913 45.7797C85.758 45.7797 86.7915 44.7827 86.7915 43.242V35.4126C86.7915 33.8719 85.758 32.8751 83.8913 32.8751Z" fill="white"/>
<path fill-rule="evenodd" clip-rule="evenodd" d="M60.4126 32.9729H73.5681V33.0524L53.0209 45.5859L63.2179 37.4341L60.4126 32.9729ZM52.7399 20.8896V45.7513L42.3359 37.434L52.7399 20.8896Z" fill="white"/>
<path d="M75.4453 32.9839V45.6707H80.2847V43.9309H77.4933V32.9839H75.4453ZM125.669 37.5149V35.4127C125.669 33.872 124.636 32.875 122.769 32.875C120.903 32.875 119.87 33.8899 119.87 35.4127V43.2421C119.87 44.7645 120.903 45.7798 122.769 45.7798C124.636 45.7798 125.669 44.7828 125.669 43.2421V39.3455H122.806V41.0853H123.676V43.2421C123.676 43.7316 123.295 43.9853 122.769 43.9853C122.208 43.9853 121.936 43.7316 121.936 43.2421V35.4127C121.791 34.4157 123.73 34.452 123.676 35.4127V37.5149H125.669ZM116.643 36.7174C116.643 37.6963 116.662 38.7654 116.698 39.9252L114.813 32.9838H112.584V45.6709H114.45V41.9373C114.45 40.9042 114.432 39.7985 114.396 38.6022L116.335 45.6709H118.51V32.9838H116.643V36.7174ZM109.049 45.6709H111.097V32.984H109.049V45.6709ZM105.666 38.3303C105.666 38.8199 105.412 39.0735 104.923 39.0735H103.998V34.7237H104.923C105.412 34.7237 105.666 34.9775 105.666 35.4669V38.3303ZM107.714 38.3303V35.4669C107.714 33.9261 106.753 32.9839 104.923 32.9839H101.95V45.6708H103.998V40.8137H104.633L105.928 45.6708H107.976L106.583 40.4475C107.329 40.0386 107.714 39.3045 107.714 38.3303ZM98.8809 38.3303C98.8809 38.8199 98.6269 39.0735 98.1379 39.0735H97.2139V34.7237H98.1379C98.6269 34.7237 98.8809 34.9775 98.8809 35.4669V38.3303ZM98.1379 32.9839H95.1654V45.6708H97.2139V40.8137H98.1379C99.9689 40.8137 100.929 39.8709 100.929 38.3303V35.4669C100.929 33.9261 99.9689 32.9839 98.1379 32.9839ZM91.7577 43.242C91.8663 44.2211 89.945 44.2211 90.0721 43.242V35.4126C89.945 34.4338 91.8663 34.4338 91.7577 35.4126V43.242ZM90.9055 32.8751C89.0389 32.8751 88.0058 33.8899 88.0058 35.4126V43.242C88.0058 44.7646 89.0389 45.7797 90.9055 45.7797C92.7724 45.7797 93.8057 44.7827 93.8057 43.242V35.4126C93.8057 33.8719 92.7724 32.8751 90.9055 32.8751ZM84.7433 43.242C84.8519 44.2211 82.9308 44.2211 83.0579 43.242V35.4126C82.9308 34.4338 84.8519 34.4338 84.7433 35.4126V43.242ZM83.8913 32.8751C82.0246 32.8751 80.9916 33.8899 80.9916 35.4126V43.242C80.9916 44.7646 82.0246 45.7797 83.8913 45.7797C85.758 45.7797 86.7915 44.7827 86.7915 43.242V35.4126C86.7915 33.8719 85.758 32.8751 83.8913 32.8751Z" fill="white"/>
</svg>
