<svg width="168" height="67" viewBox="0 0 168 67" fill="none" xmlns="http://www.w3.org/2000/svg">
<path d="M69.625 40.2044H71.3599V33.6928L74.0321 40.2044H75.4313L78.0896 33.6928V40.2044H79.8245V30.3809H77.6978L74.7318 37.6363L71.7658 30.3809H69.625V40.2044Z" fill="white"/>
<path d="M84.5724 40.3161C86.713 40.3161 88.252 38.7724 88.252 36.6673C88.252 34.5623 86.713 33.0186 84.5724 33.0186C82.4179 33.0186 80.8789 34.5623 80.8789 36.6673C80.8789 38.7724 82.4179 40.3161 84.5724 40.3161ZM84.5724 38.8285C83.3971 38.8285 82.6138 37.9444 82.6138 36.6673C82.6138 35.3903 83.3971 34.5061 84.5724 34.5061C85.7338 34.5061 86.5171 35.3903 86.5171 36.6673C86.5171 37.9444 85.7338 38.8285 84.5724 38.8285Z" fill="white"/>
<path d="M92.4513 40.3161C94.5919 40.3161 96.1309 38.7724 96.1309 36.6673C96.1309 34.5623 94.5919 33.0186 92.4513 33.0186C90.2968 33.0186 88.7578 34.5623 88.7578 36.6673C88.7578 38.7724 90.2968 40.3161 92.4513 40.3161ZM92.4513 38.8285C91.276 38.8285 90.4927 37.9444 90.4927 36.6673C90.4927 35.3903 91.276 34.5061 92.4513 34.5061C93.6127 34.5061 94.396 35.3903 94.396 36.6673C94.396 37.9444 93.6127 38.8285 92.4513 38.8285Z" fill="white"/>
<path d="M97.0078 40.2038H98.7288V36.3445C98.7288 35.3061 99.4003 34.5482 100.366 34.5482C101.247 34.5482 101.835 35.2218 101.835 36.1902V40.2038H103.555V35.8253C103.555 34.1693 102.52 33.0186 100.925 33.0186C99.918 33.0186 99.1206 33.4536 98.7288 34.2255V33.1308H97.0078V40.2038Z" fill="white"/>
<path d="M104.984 40.2044H106.845V36.4715H108.916C110.959 36.4715 112.176 35.2084 112.176 33.4262C112.176 31.6439 110.959 30.3809 108.916 30.3809H104.984V40.2044ZM106.845 34.9137V31.9386H108.832C109.923 31.9386 110.371 32.6403 110.371 33.4262C110.371 34.2121 109.923 34.9137 108.832 34.9137H106.845Z" fill="white"/>
<path d="M115.481 33.0186C113.648 33.0186 112.459 34.1132 112.375 35.5165H113.914C113.942 34.885 114.488 34.3096 115.397 34.3096C116.307 34.3096 116.838 34.8008 116.838 35.4885C116.838 35.7692 116.67 35.9656 116.32 35.9656H115.019C113.438 35.9656 112.375 36.8217 112.375 38.197C112.375 39.4179 113.326 40.3161 114.726 40.3161C115.733 40.3161 116.544 39.853 116.838 39.1513V40.2038H118.531V35.6569C118.531 34.057 117.272 33.0186 115.481 33.0186ZM115.131 39.039C114.488 39.039 114.04 38.6741 114.04 38.1268C114.04 37.5093 114.53 37.1024 115.257 37.1024H116.838V37.2146C116.838 38.2812 116.209 39.039 115.131 39.039Z" fill="white"/>
<path d="M125.498 33.1309H123.735L122.112 37.9865L120.475 33.1309H118.727L121.301 40.2038L120.308 43.0667H121.944L123.036 39.867L125.498 33.1309Z" fill="white"/>
<path d="M62.5672 35.6723C62.5672 41.3238 57.9998 45.9052 52.3657 45.9052C46.7315 45.9052 42.1641 41.3238 42.1641 35.6723C42.1641 30.0209 46.7315 25.4395 52.3657 25.4395C57.9998 25.4395 62.5672 30.0209 62.5672 35.6723Z" fill="white"/>
<path d="M68.6892 24.4163C68.6892 26.4347 67.058 28.0709 65.0458 28.0709C63.0336 28.0709 61.4023 26.4347 61.4023 24.4163C61.4023 22.3979 63.0336 20.7617 65.0458 20.7617C67.058 20.7617 68.6892 22.3979 68.6892 24.4163Z" fill="white"/>
</svg>
