<svg width="1117" height="172" viewBox="0 0 1117 172" fill="none" xmlns="http://www.w3.org/2000/svg">
<g clip-path="url(#clip0_1727_1979)">
<path fill-rule="evenodd" clip-rule="evenodd" d="M15.5515 171.2C15.7515 170.7 37.8515 132.2 64.7514 85.6999C91.6515 39.0999 113.951 0.999939 114.351 0.999939C114.951 0.999939 212.051 168.2 213.151 171.1C213.351 171.6 170.851 172 114.351 172C59.8515 172 15.3515 171.6 15.5515 171.2ZM172.351 148.4C172.351 148 159.451 125.3 143.651 97.8999C127.751 70.4999 114.651 47.9999 114.351 47.9999C113.851 47.9999 57.1515 146 56.5515 148C56.3515 148.7 76.6515 149 114.251 149C146.251 149 172.351 148.7 172.351 148.4Z" fill="white"/>
<path d="M44.9523 76.1C44.1523 76.2 17.7523 31.5 3.65234 6.19998L0.152344 0H44.7523C69.2523 0 89.3523 0.199982 89.3523 0.299988C89.3523 1.5 45.6523 76.1 44.9523 76.1Z" fill="white"/>
<path fill-rule="evenodd" clip-rule="evenodd" d="M266.352 36.8C270.452 35.8 278.152 34.6 283.352 34.1C294.852 33 310.652 33.7 318.252 35.6C342.552 41.9 356.352 59.9 356.352 85.1C356.352 97.2 355.052 103.6 351.052 111.9C339.652 135.4 308.052 144.7 279.352 133.1L272.352 130.2V172H258.352L258.552 105.3L258.852 38.5L266.352 36.8ZM338.952 69.5C334.852 58.8 328.152 52 317.352 47.8C312.952 46.1 309.252 45.6 298.852 45.4C291.652 45.2 282.952 45.6 279.352 46.3L272.852 47.5L272.552 82.7L272.352 117.8L278.552 120.8C287.052 124.8 294.152 126.3 303.952 126.2C322.452 126.2 333.452 118.8 338.952 103C341.652 95.2 341.652 76.6 338.952 69.5Z" fill="white"/>
<path d="M389.553 36.1001C391.453 35.5001 395.653 34.6001 398.853 34.0001C408.153 32.6001 428.953 33.5001 434.853 35.6001C447.953 40.2001 455.053 48.5001 457.353 62.1001C458.053 66.1001 458.353 80.8001 458.153 101L457.853 133.5L450.853 134.7C447.053 135.4 437.453 136.5 429.553 137.1C401.153 139.6 384.453 134.6 376.653 121.3C374.453 117.6 373.853 115.1 373.553 108.4C373.153 100.9 373.353 99.5001 375.753 94.6001C377.253 91.6001 379.853 87.9001 381.553 86.5001C389.653 79.7001 402.753 76.0001 418.853 76.0001H428.353V87.2001L424.953 86.6001C418.853 85.4001 404.453 87.7001 398.353 90.7001C390.953 94.5001 388.353 98.5001 388.353 106.3C388.353 114.2 391.053 119 397.453 122.5C405.153 126.7 417.053 127.5 438.153 125.4L443.353 124.9V94.7001C443.353 77.5001 442.953 62.9001 442.353 60.9001C440.553 54.6001 437.253 50.7001 430.853 47.5001C425.153 44.6001 424.253 44.5001 412.853 44.6001C405.053 44.7001 398.653 45.3001 394.453 46.4001C390.953 47.3001 387.953 48.0001 387.853 47.8001C387.653 47.6001 387.153 45.2001 386.853 42.3001L386.153 37.2001L389.553 36.1001Z" fill="white"/>
<path d="M508.352 34C501.652 34.6 485.252 38.3 483.152 39.6C482.752 39.9 482.352 61.7 482.352 88.1V136H496.352L496.552 91.8L496.852 47.5L502.352 46.2C507.952 44.9 534.752 45.1 538.952 46.5C540.752 47.1 541.152 46.5 542.152 41.9C543.052 37.9 543.152 36.5 542.252 35.9C539.352 34.1 518.452 32.9 508.352 34Z" fill="white"/>
<path d="M564.253 35.9999C566.453 35.3999 570.953 34.5999 574.053 34.0999C583.353 32.6999 597.253 32.8999 604.753 34.4999C613.753 36.3999 620.953 40.6 625.553 46.4999C631.953 54.9 632.353 58.0999 632.353 98.0999V133.7L621.153 135.3C580.753 141.3 558.453 136.2 550.153 119.2C547.053 112.7 546.953 100.4 550.053 94.3999C556.153 82.7999 568.453 77.1999 590.153 76.3L603.453 75.6999L603.153 81.0999C602.853 86.1999 602.753 86.5 600.353 86.2999C594.253 85.7999 578.153 88.0999 573.853 90.0999C564.653 94.3999 560.853 102.5 563.353 112C566.053 122 575.153 126.3 593.853 126.3C599.953 126.3 607.853 126 611.653 125.6L618.353 124.8V96.5999C618.353 81 617.853 65.8999 617.353 62.9C615.953 55.4 612.253 50.5999 605.453 47.3C600.253 44.6999 599.053 44.4999 587.853 44.5999C579.953 44.6999 573.653 45.3 569.453 46.4C562.553 48.2999 561.453 47.8 561.353 43.4999C561.353 42.3999 561.053 40.4999 560.753 39.3C560.253 37.3999 560.753 36.9999 564.253 35.9999Z" fill="white"/>
<path d="M934.853 34C932.153 34.4 927.853 35.3 925.453 35.9L921.153 37.1L921.753 42.3C922.153 45.1 922.653 47.6 922.853 47.9C923.153 48.1 926.153 47.5 929.553 46.5C937.653 44.2 955.853 43.9 962.853 45.9C969.453 47.9 975.653 54 977.153 60.2C977.953 63.3 978.353 75.3 978.353 94.8V124.8L973.153 125.6C970.253 126 962.053 126.3 954.853 126.3C943.953 126.3 940.953 125.9 936.153 124.1C926.453 120.4 922.453 113.8 923.553 103.5C924.653 94.2 932.653 88.7 947.753 87C952.653 86.4 958.153 86.2 959.953 86.6L963.353 87.2V75.7L950.653 76.3C930.353 77.1 918.253 82.1 911.853 92.5C909.453 96.4 908.853 98.6 908.553 104.6C908.053 114.6 910.253 121 916.353 127C925.253 136 940.453 139.2 965.053 137.1C973.153 136.4 982.753 135.3 986.353 134.7L992.853 133.5L993.153 100.5C993.353 78.7 993.053 65.5 992.353 61.5C989.353 46.2 979.853 37 963.753 34.1C957.353 32.9 942.553 32.8 934.853 34Z" fill="white"/>
<path fill-rule="evenodd" clip-rule="evenodd" d="M1025.85 36.7C1030.25 35.8 1038.15 34.6 1043.35 34.1C1055.05 32.9 1069.95 33.6 1077.75 35.6C1090.35 38.8 1103.35 48 1108.95 57.6C1117.85 72.8 1118.55 95 1110.75 111.7C1107.25 119.1 1097.75 128.6 1090.15 132.3C1074.75 139.7 1053.55 139.8 1037.75 132.6L1032.35 130.1L1032.15 150.8L1031.85 171.5H1017.85V38.5L1025.85 36.7ZM1100.15 93.4C1102.95 68.6 1092.15 50.9 1071.35 46.1C1065.85 44.8 1047.15 44.9 1038.65 46.2L1032.35 47.2V118L1037.15 120.4C1050.65 127.2 1069.05 128.3 1081.25 122.9C1091.75 118.3 1098.65 107.6 1100.15 93.4Z" fill="white"/>
<path d="M656.352 50.5C656.352 68.1 656.952 70.4 662.952 76.2C667.752 80.7 673.452 83.6 690.052 89.9C710.552 97.6 714.352 100.2 716.352 107.1C718.652 115.1 714.152 121.8 704.552 124.7C693.552 128.1 670.952 126.5 659.252 121.6C658.052 121.1 657.352 122.2 656.052 126.3C655.908 126.779 655.767 127.247 655.631 127.698C654.917 130.071 654.352 131.948 654.352 132.2C654.352 132.5 658.052 133.8 662.652 135.1C669.652 137.1 673.152 137.5 686.852 137.5C700.652 137.5 703.852 137.2 709.852 135.3C726.552 130 733.952 119.8 731.252 105.5C729.052 93.7 722.552 88.9 695.452 78.9C679.552 73.1 673.452 69.3 671.652 64C670.952 62 670.452 54.9 670.452 47.7L670.352 35H656.352V50.5Z" fill="white"/>
<path d="M749.352 77.9C744.652 64.9 736.352 37.9 736.352 35.8C736.352 35.4 739.752 35 743.852 35H751.252L752.352 39.2C759.152 65.5 779.452 120 782.352 120C784.152 120 798.752 80.2 807.252 52L812.152 35.5L824.252 34.9L825.352 39.2C828.752 52.4 833.952 69.5 838.152 81.7C844.752 100.4 853.352 121.1 854.352 120.5C856.752 119 872.852 76.5 879.352 54.4C880.237 51.4351 881.108 48.5295 881.867 45.9972C883.079 41.953 884.006 38.8609 884.252 38C884.952 35.7 885.552 35.5 891.852 35.2L898.552 34.9L897.952 38.3C895.052 53.7 879.152 97.1 867.352 121.7L860.452 136H847.252L842.852 126.7C835.952 112 827.852 91.5 822.552 75.7L817.652 61.1L812.552 76.4C807.852 90.5 798.952 112.7 791.452 129.2L788.452 136H774.252L768.752 124.4C760.652 107.3 755.152 94 749.352 77.9Z" fill="white"/>
</g>
<defs>
<clipPath id="clip0_1727_1979">
<rect width="1116" height="172" fill="white" transform="matrix(1 0 0 -1 0.152344 172)"/>
</clipPath>
</defs>
</svg>
