<svg width="167" height="68" viewBox="0 0 167 68" fill="none" xmlns="http://www.w3.org/2000/svg">
<path d="M43.4829 24.2663L44.2187 24.3705L44.1727 31.584L44.1038 38.7975L43.4139 38.9277C43.046 39.0058 43.7129 39.0839 44.9085 39.0579C46.1042 39.0579 46.8171 39.0318 46.4722 38.9797L45.8283 38.9016V31.4798V24.084L44.2877 24.1361C43.4139 24.1361 43.069 24.2142 43.4829 24.2663Z" fill="white"/>
<path d="M79.5825 24.2663L80.3183 24.3704L80.2724 31.5839L80.2034 38.7974L79.5136 38.9537C79.1227 39.0578 79.8125 39.1359 81.0082 39.1359C82.2038 39.1359 82.8937 39.0578 82.5028 38.9537L81.8129 38.7974L81.744 36.3235C81.652 33.3808 81.9279 32.2089 82.9167 31.0891C83.4685 30.4641 83.5145 30.3339 83.1236 30.5683C82.8477 30.7246 82.4798 31.1152 82.3188 31.3756C82.1809 31.662 81.9739 31.8964 81.882 31.8964C81.7669 31.8964 81.698 30.1256 81.698 27.9902V24.084L80.2724 24.1361C79.4676 24.1361 79.1456 24.2142 79.5825 24.2663Z" fill="white"/>
<path d="M102.968 24.3184L103.657 24.4746V31.636V38.7974L102.968 38.9276C102.599 39.0058 103.266 39.0839 104.462 39.0839C105.658 39.0839 106.348 39.0058 105.956 38.9276L105.267 38.7974L105.198 31.4277L105.152 24.084L103.703 24.1101C102.668 24.1361 102.462 24.1882 102.968 24.3184Z" fill="white"/>
<path d="M114.765 24.2653L115.5 24.3695V28.0413V31.7131L115.041 31.0361C113.178 28.3538 109.062 30.8798 109.062 34.7079C109.062 36.2443 110.189 38.0933 111.591 38.9266C112.328 39.3693 113.73 39.4474 114.052 39.1089C114.121 39.0047 113.822 38.9787 113.409 39.0308C111.522 39.2391 110.902 38.1454 110.902 34.5777C110.902 31.7913 111.316 30.5934 112.443 30.2548C113.569 29.8902 114.834 30.6975 115.225 32.0256C115.708 33.6402 115.477 37.1558 114.834 38.2235L114.328 39.0568L114.903 38.3537L115.477 37.6245L115.546 38.3016C115.616 38.9266 115.708 38.9787 116.995 39.0308C117.754 39.0829 118.099 39.0568 117.754 39.0047L117.11 38.9006V31.4788V24.083L115.57 24.1351C114.696 24.1351 114.351 24.2132 114.765 24.2653Z" fill="white"/>
<path d="M26.5117 34.6301V44.9165H27.6844C28.3972 44.9165 28.7881 44.8124 28.6962 44.6562C28.6272 44.4999 28.1443 44.3957 27.6385 44.3957H26.7416L26.7876 34.552L26.8567 24.7345L27.8914 24.5781L28.9261 24.422L27.7304 24.3959L26.5117 24.3438V34.6301Z" fill="white"/>
<path d="M140.058 24.526L141.023 24.6302V34.5261V44.3957H140.241C139.804 44.3957 139.367 44.4999 139.298 44.6562C139.207 44.8124 139.598 44.9165 140.31 44.9165H141.483V34.6301V24.3438L140.287 24.3959C139.115 24.422 139.115 24.4479 140.058 24.526Z" fill="white"/>
<path d="M35.4775 30.0993C35.1555 30.2295 34.6726 30.6722 34.3968 31.0628L33.8679 31.766V30.9066V30.0733L32.4422 30.0993C31.4535 30.1253 31.2006 30.1774 31.6375 30.3076L32.2813 30.4639V37.4951V44.5263L31.5225 44.6825C31.1086 44.7867 31.7984 44.8388 33.063 44.8388C34.3277 44.8388 35.0176 44.7867 34.6267 44.7346L33.8679 44.6304V41.0888V37.5732L34.5347 38.3805C34.9026 38.8232 35.2935 39.2138 35.4085 39.2138C36.9031 39.4742 38.1218 39.0055 39.2025 37.7034C40.3752 36.2972 40.6511 34.1878 39.8693 32.4691C39.3405 31.2712 38.8116 30.7243 37.7079 30.2035C36.7651 29.7608 36.3053 29.7347 35.4775 30.0993ZM37.8918 30.8806C38.3057 31.3233 38.3517 31.7399 38.3517 34.6305C38.3517 37.6253 38.3057 37.9117 37.8459 38.4326C36.7651 39.6826 34.8566 39.1096 34.2358 37.3649C33.7759 36.0107 33.7529 33.2503 34.2358 31.9222C34.8566 30.1514 36.7651 29.6045 37.8918 30.8806Z" fill="white"/>
<path d="M51.4163 30.2036C49.9447 30.9327 49.4618 32.8077 50.7725 32.8077C51.4163 32.8077 51.4623 32.7556 51.3933 31.8442C51.3473 31.115 51.4393 30.8025 51.8532 30.49C53.0489 29.5265 54.3366 30.3859 54.3366 32.1046C54.3366 33.5369 53.8537 34.1098 52.1062 34.7608C50.1057 35.516 49.5078 36.115 49.5078 37.4171C49.5078 38.8233 50.3816 39.3702 52.52 39.24C52.8649 39.2139 53.3708 38.9014 53.6697 38.5629L54.1756 37.9639L54.6815 38.5889C55.0263 39.0837 55.3943 39.24 56.0382 39.24C56.521 39.24 57.0039 39.1358 57.1419 38.9796C57.2798 38.8233 57.1419 38.7712 56.751 38.8754C56.36 38.9535 56.0611 38.8754 55.9232 38.641C55.8082 38.4327 55.7162 36.8181 55.7162 35.0213C55.7162 31.3494 55.5323 30.8025 54.1986 30.1775C53.2328 29.7348 52.359 29.7348 51.4163 30.2036ZM54.2676 35.9848C54.0836 38.1462 53.5088 38.9796 52.2901 38.8754C50.8644 38.7452 50.4276 36.74 51.5773 35.6202C51.9912 35.2035 53.7157 34.3442 54.1986 34.2661C54.3136 34.24 54.3366 34.9952 54.2676 35.9848Z" fill="white"/>
<path d="M62.3162 30.0736C60.3387 30.7767 59.304 32.6257 59.4419 35.1777C59.5109 36.584 59.6258 36.9486 60.2007 37.6517C60.5916 38.0944 61.1895 38.6152 61.5344 38.8235C62.3391 39.3183 63.9028 39.4485 64.7306 39.136C65.3974 38.8756 66.5241 37.5475 66.5241 37.0267C66.5241 36.8444 66.3171 37.0788 66.0642 37.5475C65.8342 37.9902 65.3974 38.511 65.1215 38.6673C64.4547 39.084 63.075 39.1881 62.4771 38.8756C61.2124 38.2246 60.6606 34.9694 61.3274 32.3132C61.6723 31.0111 61.8103 30.7767 62.5461 30.4122C63.144 30.1257 63.5809 30.0997 64.0867 30.2559C64.7535 30.4903 64.7995 30.5684 64.7535 31.7142C64.7306 32.808 64.7765 32.9642 65.3054 33.0944C66.662 33.485 66.892 31.6361 65.6043 30.5684C64.9145 29.9955 63.236 29.7351 62.3162 30.0736Z" fill="white"/>
<path d="M71.9512 30.1778C70.0887 30.9591 68.847 33.2247 69.146 35.308C69.4219 37.3392 70.2726 38.485 71.9972 39.1361C72.825 39.4486 73.0089 39.1882 72.2271 38.7975C71.4683 38.433 70.8935 36.9226 70.8935 35.3601V34.0059L73.7217 33.9278L76.527 33.8497L76.458 33.0684C76.2741 30.8549 73.9517 29.3705 71.9512 30.1778ZM74.2506 30.7247C74.7105 31.2455 74.8255 31.5841 74.7565 32.4955L74.6875 33.5892L72.756 33.6674L70.8475 33.7455L71.0084 32.7559C71.3764 30.3601 73.0319 29.3445 74.2506 30.7247Z" fill="white"/>
<path d="M84.6914 29.9428C84.6914 30.021 84.9444 30.2033 85.2663 30.3335C86.1401 30.698 86.324 31.6355 86.2551 35.3855L86.186 38.7969L85.4962 38.9532C85.1283 39.0313 85.7951 39.0834 86.9909 39.0834C88.1865 39.0834 88.8764 39.0053 88.4855 38.9271L87.7956 38.7969L87.6806 35.099C87.5887 31.9741 87.4967 31.3491 87.1288 30.8803C86.6229 30.2553 84.6914 29.5262 84.6914 29.9428Z" fill="white"/>
<path d="M93.9097 30.4901C92.3 31.4016 91.4727 32.8078 91.4727 34.6307C91.4727 37.7817 94.5534 40.2036 97.1061 39.0057C100.854 37.2609 100.74 31.7401 96.8994 30.2037C95.5653 29.6828 95.3357 29.7089 93.9097 30.4901ZM96.7379 30.438C97.7268 30.9068 98.1179 32.1307 98.1179 34.7609C98.095 37.938 97.3127 39.188 95.4275 39.0577C93.8178 38.9275 93.1971 37.6775 93.1971 34.5786C93.1971 30.9068 94.5075 29.3703 96.7379 30.438Z" fill="white"/>
<path d="M123.434 30.308C119.801 32.209 119.985 37.7038 123.733 39.136C124.123 39.2923 124.468 39.3183 124.468 39.2142C124.468 39.084 124.262 38.9277 124.031 38.8496C123.25 38.6152 122.629 37.1309 122.629 35.4642V33.9798H125.411H128.217L128.079 32.9121C127.917 31.6101 127.021 30.4382 125.872 30.0736C124.745 29.7351 124.491 29.7611 123.434 30.308ZM125.872 30.5684C126.285 30.933 126.4 31.3236 126.4 32.3132L126.423 33.5892L124.537 33.6673C122.744 33.7455 122.629 33.7194 122.629 33.1986C122.629 32.3392 123.227 30.959 123.802 30.4903C124.514 29.9434 125.204 29.9695 125.872 30.5684Z" fill="white"/>
<path d="M135.138 30.1772C134.746 30.3855 134.217 30.8803 133.942 31.2709L133.459 32.0261L133.436 31.0366V30.073L132.011 30.0991C130.953 30.1251 130.746 30.1772 131.252 30.3074L131.941 30.4636V34.6303V38.7969L131.252 38.9532C130.883 39.0573 131.597 39.1354 132.861 39.1354C134.172 39.1094 134.816 39.0573 134.356 38.9532L133.551 38.7969L133.574 35.6459C133.574 32.8595 133.643 32.3907 134.103 31.5574C134.609 30.6199 135.46 30.1251 135.966 30.4636C136.104 30.5678 136.172 31.0626 136.149 31.5834C136.081 32.4949 136.126 32.547 136.77 32.547C137.368 32.547 137.46 32.4428 137.529 31.7397C137.644 30.3855 136.402 29.5782 135.138 30.1772Z" fill="white"/>
<path d="M83.9516 30.2551C84.1125 30.3332 84.3195 30.3071 84.3885 30.229C84.4805 30.1509 84.3425 30.0728 84.0896 30.0988C83.8366 30.0988 83.7676 30.1769 83.9516 30.2551Z" fill="white"/>
<path d="M75.8582 37.5739C75.4673 38.4333 74.3406 39.1364 73.5128 39.0322C73.2139 39.0062 72.9609 39.0843 72.9609 39.1885C72.9609 39.527 74.5935 39.2406 75.1913 38.7978C75.6742 38.4333 76.571 36.8447 76.3181 36.8447C76.2491 36.8447 76.0422 37.1833 75.8582 37.5739Z" fill="white"/>
<path d="M127.224 37.9118C126.558 38.7972 126.259 38.9795 125.569 39.0056C125.086 39.0316 124.695 39.1358 124.695 39.266C124.695 39.6045 126.236 39.24 126.903 38.7712C127.363 38.4327 128.351 36.8181 128.098 36.8441C128.052 36.8702 127.661 37.3389 127.224 37.9118Z" fill="white"/>
</svg>
