<svg width="400" height="400" viewBox="0 0 400 400" fill="none" xmlns="http://www.w3.org/2000/svg">
<circle cx="200" cy="200" r="200" fill="#7678FD"/>
<path d="M373.205 300C355.651 330.404 330.404 355.651 300 373.205C269.596 390.759 235.107 400 200 400C164.893 400 130.404 390.759 100 373.205C69.5962 355.651 44.3486 330.404 26.7949 300C9.24125 269.596 -4.53481e-07 235.107 0 200C4.53481e-07 164.893 9.24125 130.404 26.7949 100C44.3486 69.5962 69.5962 44.3486 100 26.7949C130.404 9.24125 164.893 -4.18651e-07 200 0V200L373.205 300Z" fill="#3845A1"/>
</svg>
