<svg width="400" height="400" viewBox="0 0 400 400" fill="none" xmlns="http://www.w3.org/2000/svg">
  <path
    d="M374.062 87.2179C385.477 241.032 286.087 313.732 196.987 321.485C114.151 328.692 36.1772 278.057 29.3367 200.26C23.6939 135.986 63.6259 108.623 95 105.896C127.269 103.082 154.386 125.219 156.738 152.022C159.004 177.792 142.84 189.521 131.598 190.498C122.708 191.273 111.524 185.903 110.514 174.375C109.648 164.469 113.429 163.12 112.505 152.597C110.86 133.862 94.4372 131.68 85.4463 132.455C74.565 133.402 54.8227 146.036 57.5935 177.505C60.3788 209.247 90.9736 234.327 131.079 230.839C174.359 227.077 204.492 193.555 206.758 146.538C206.737 144.048 207.264 141.583 208.302 139.317L208.316 139.26C208.782 138.275 209.328 137.329 209.947 136.431C210.871 135.053 212.054 133.531 213.584 131.866C213.598 131.823 213.598 131.823 213.627 131.823C214.738 130.574 216.08 129.225 217.596 127.775C236.501 110.03 304.589 68.1814 368.982 81.4323C370.343 81.7225 371.573 82.4427 372.488 83.4854C373.404 84.5282 373.956 85.8375 374.062 87.2179"
    fill="url(#paint0_linear)"/>
  <defs>
    <linearGradient id="paint0_linear" x1="365.283" y1="85.685" x2="142.783" y2="402.274" gradientUnits="userSpaceOnUse">
      <stop stop-color="#11C4D1"/>
      <stop offset="1" stop-color="#0062AD"/>
    </linearGradient>
  </defs>
</svg>
